Pomorsky-Regular.ufo
<glyph name="exclam" format="2">
  <advance width="173"/>
  <unicode hex="0021"/>
  <outline>
    <contour>
      <point x="91.1074" y="150.703" type="curve"/>
      <point x="80.959" y="150.702" type="line"/>
      <point x="62.2637" y="384.292"/>
      <point x="45.0459" y="435.285"/>
      <point x="45.0459" y="494.553" type="curve" smooth="yes"/>
      <point x="45.0459" y="532.759"/>
      <point x="60.6592" y="557.146"/>
      <point x="86.4219" y="557.146" type="curve" smooth="yes"/>
      <point x="112.967" y="557.146"/>
      <point x="127.8" y="534.385"/>
      <point x="127.8" y="492.114" type="curve" smooth="yes"/>
      <point x="127.8" y="435.213"/>
      <point x="110.624" y="383.188"/>
    </contour>
    <contour>
      <point x="86.4219" y="87.2979" type="curve" smooth="yes"/>
      <point x="109.845" y="87.2979"/>
      <point x="128.58" y="66.9746"/>
      <point x="128.58" y="42.5869" type="curve" smooth="yes"/>
      <point x="128.58" y="18.2021"/>
      <point x="110.624" y="0.317383"/>
      <point x="85.6426" y="0.317383" type="curve" smooth="yes"/>
      <point x="62.2207" y="0.317383"/>
      <point x="45.0459" y="18.2021"/>
      <point x="45.0459" y="42.5869" type="curve" smooth="yes"/>
      <point x="45.0459" y="67.7871"/>
      <point x="63.0029" y="87.2979"/>
    </contour>
  </outline>
</glyph>
<glyph name="quotedbl" format="2">
  <advance width="236"/>
  <unicode hex="0022"/>
  <outline>
    <contour>
      <point x="186" y="405.4" type="curve"/>
      <point x="170.88" y="405.4" type="line"/>
      <point x="158.64" y="470.2"/>
      <point x="147.84" y="540.76"/>
      <point x="147.84" y="552.28" type="curve" smooth="yes"/>
      <point x="147.84" y="568.84"/>
      <point x="161.52" y="581.8"/>
      <point x="178.8" y="581.8" type="curve" smooth="yes"/>
      <point x="195.359" y="581.8"/>
      <point x="209.04" y="568.84"/>
      <point x="209.04" y="553" type="curve" smooth="yes"/>
      <point x="209.04" y="540.04"/>
      <point x="198.239" y="469.48"/>
    </contour>
    <contour>
      <point x="64.3193" y="405.4" type="curve"/>
      <point x="49.1992" y="405.4" type="line"/>
      <point x="36.96" y="470.2"/>
      <point x="26.1592" y="540.76"/>
      <point x="26.1592" y="552.28" type="curve" smooth="yes"/>
      <point x="26.1592" y="568.84"/>
      <point x="39.8398" y="581.8"/>
      <point x="57.1191" y="581.8" type="curve" smooth="yes"/>
      <point x="73.6797" y="581.8"/>
      <point x="87.3594" y="568.84"/>
      <point x="87.3594" y="553" type="curve" smooth="yes"/>
      <point x="87.3594" y="540.04"/>
      <point x="76.5596" y="469.48"/>
    </contour>
  </outline>
</glyph>
<glyph name="numbersign" format="2">
  <advance width="457"/>
  <unicode hex="0023"/>
  <outline>
    <contour>
      <point x="415.378" y="228.733" type="line"/>
      <point x="415.378" y="182.524" type="line"/>
      <point x="323.021" y="182.524" type="line"/>
      <point x="296.755" y="1.05273" type="line"/>
      <point x="247.608" y="1.05273" type="line"/>
      <point x="273.876" y="182.524" type="line"/>
      <point x="160.332" y="182.524" type="line"/>
      <point x="132.37" y="1.05273" type="line"/>
      <point x="83.2266" y="1.05273" type="line"/>
      <point x="111.188" y="182.524" type="line"/>
      <point x="20.5244" y="182.524" type="line"/>
      <point x="20.5244" y="228.733" type="line"/>
      <point x="118.815" y="228.733" type="line"/>
      <point x="136.608" y="341.313" type="line"/>
      <point x="43.4014" y="341.313" type="line"/>
      <point x="43.4014" y="387.521" type="line"/>
      <point x="143.387" y="387.521" type="line"/>
      <point x="169.654" y="557.231" type="line"/>
      <point x="218.799" y="557.231" type="line"/>
      <point x="192.532" y="387.521" type="line"/>
      <point x="305.226" y="387.521" type="line"/>
      <point x="330.647" y="557.231" type="line"/>
      <point x="379.791" y="557.231" type="line"/>
      <point x="354.371" y="387.521" type="line"/>
      <point x="436.562" y="387.521" type="line"/>
      <point x="436.562" y="341.313" type="line"/>
      <point x="347.592" y="341.313" type="line"/>
      <point x="330.647" y="228.733" type="line"/>
    </contour>
    <contour>
      <point x="298.448" y="341.313" type="line"/>
      <point x="185.754" y="341.313" type="line"/>
      <point x="167.959" y="228.733" type="line"/>
      <point x="281.501" y="228.733" type="line"/>
    </contour>
  </outline>
</glyph>
<glyph name="dollar" format="2">
  <advance width="390"/>
  <unicode hex="0024"/>
  <outline>
    <contour>
      <point x="27.6855" y="431.505" type="curve" smooth="yes"/>
      <point x="27.6855" y="502.368"/>
      <point x="77.458" y="548.766"/>
      <point x="177.846" y="559.733" type="curve"/>
      <point x="177.846" y="612.88" type="line"/>
      <point x="206.528" y="612.88" type="line"/>
      <point x="206.528" y="559.733" type="line"/>
      <point x="277.392" y="551.297"/>
      <point x="313.665" y="538.643"/>
      <point x="342.348" y="515.021" type="curve"/>
      <point x="342.348" y="421.382" type="line"/>
      <point x="329.694" y="421.382" type="line"/>
      <point x="315.353" y="493.089"/>
      <point x="277.392" y="528.52"/>
      <point x="206.528" y="536.955" type="curve"/>
      <point x="206.528" y="329.43" type="line"/>
      <point x="297.638" y="276.283"/>
      <point x="369.344" y="247.601"/>
      <point x="369.344" y="142.994" type="curve" smooth="yes"/>
      <point x="369.344" y="55.2598"/>
      <point x="308.604" y="16.4541"/>
      <point x="206.528" y="-0.417969" type="curve"/>
      <point x="206.528" y="-73.8105" type="line"/>
      <point x="177.846" y="-73.8105" type="line"/>
      <point x="177.846" y="-0.417969" type="line"/>
      <point x="106.983" y="2.1123"/>
      <point x="71.5518" y="11.3926"/>
      <point x="20.9365" y="42.6064" type="curve"/>
      <point x="20.9365" y="152.274" type="line"/>
      <point x="33.5908" y="152.274" type="line"/>
      <point x="53.8369" y="63.6963"/>
      <point x="98.5479" y="24.0469"/>
      <point x="177.846" y="23.2031" type="curve"/>
      <point x="177.846" y="261.099" type="line"/>
      <point x="70.709" y="320.994"/>
      <point x="27.6855" y="361.486"/>
    </contour>
    <contour>
      <point x="177.002" y="342.927" type="curve"/>
      <point x="177.002" y="536.955" type="line"/>
      <point x="118.794" y="525.145"/>
      <point x="90.1113" y="496.463"/>
      <point x="90.1113" y="450.064" type="curve" smooth="yes"/>
      <point x="90.1113" y="411.259"/>
      <point x="106.983" y="390.169"/>
    </contour>
    <contour>
      <point x="206.528" y="246.758" type="curve"/>
      <point x="206.528" y="23.2031" type="line"/>
      <point x="272.329" y="35.8574"/>
      <point x="302.699" y="67.0703"/>
      <point x="302.699" y="122.748" type="curve" smooth="yes"/>
      <point x="302.699" y="175.051"/>
      <point x="284.983" y="197.829"/>
    </contour>
  </outline>
</glyph>
<glyph name="percent" format="2">
  <advance width="613"/>
  <unicode hex="0025"/>
  <outline>
    <contour>
      <point x="509.7" y="311.04" type="curve" smooth="yes"/>
      <point x="562.351" y="311.04"/>
      <point x="593.13" y="279.45"/>
      <point x="593.13" y="224.37" type="curve" smooth="yes"/>
      <point x="593.13" y="161.189"/>
      <point x="566.4" y="95.5801"/>
      <point x="523.47" y="51.8398" type="curve" smooth="yes"/>
      <point x="495.12" y="23.4902"/>
      <point x="465.15" y="10.5293"/>
      <point x="428.7" y="10.5293" type="curve" smooth="yes"/>
      <point x="370.38" y="10.5293"/>
      <point x="331.5" y="51.8398"/>
      <point x="331.5" y="115.02" type="curve" smooth="yes"/>
      <point x="331.5" y="216.27"/>
      <point x="418.17" y="311.04"/>
    </contour>
    <contour>
      <point x="442.47" y="34.8301" type="curve" smooth="yes"/>
      <point x="515.37" y="34.8301"/>
      <point x="572.07" y="144.99"/>
      <point x="572.07" y="220.319" type="curve" smooth="yes"/>
      <point x="572.07" y="255.96"/>
      <point x="546.15" y="285.12"/>
      <point x="515.37" y="285.12" type="curve" smooth="yes"/>
      <point x="433.561" y="285.12"/>
      <point x="393.061" y="127.979"/>
      <point x="393.061" y="86.6699" type="curve" smooth="yes"/>
      <point x="393.061" y="55.8896"/>
      <point x="413.311" y="34.8301"/>
    </contour>
    <contour>
      <point x="196.23" y="546.75" type="curve" smooth="yes"/>
      <point x="257.79" y="546.75"/>
      <point x="244.021" y="503.01"/>
      <point x="323.4" y="503.01" type="curve" smooth="yes"/>
      <point x="373.62" y="503.01"/>
      <point x="406.021" y="514.78"/>
      <point x="449.76" y="556.09" type="curve"/>
      <point x="481.35" y="556.09" type="line"/>
      <point x="169.5" y="0" type="line"/>
      <point x="130.62" y="0" type="line"/>
      <point x="414.93" y="507.06" type="line"/>
      <point x="382.53" y="488.43"/>
      <point x="361.47" y="482.76"/>
      <point x="325.83" y="482.76" type="curve" smooth="yes"/>
      <point x="302.34" y="482.76"/>
      <point x="287.76" y="485.189"/>
      <point x="273.18" y="490.859" type="curve"/>
      <point x="277.23" y="476.28"/>
      <point x="278.851" y="466.56"/>
      <point x="278.851" y="455.22" type="curve" smooth="yes"/>
      <point x="278.851" y="362.88"/>
      <point x="211.62" y="244.62"/>
      <point x="112.8" y="244.62" type="curve" smooth="yes"/>
      <point x="60.1504" y="244.62"/>
      <point x="17.2197" y="290.79"/>
      <point x="17.2197" y="347.489" type="curve" smooth="yes"/>
      <point x="17.2197" y="450.359"/>
      <point x="103.891" y="546.75"/>
    </contour>
    <contour>
      <point x="196.23" y="522.45" type="curve" smooth="yes"/>
      <point x="141.96" y="522.45"/>
      <point x="78.7803" y="396.899"/>
      <point x="78.7803" y="321.569" type="curve" smooth="yes"/>
      <point x="78.7803" y="292.41"/>
      <point x="98.2197" y="272.16"/>
      <point x="126.57" y="272.16" type="curve" smooth="yes"/>
      <point x="192.18" y="272.16"/>
      <point x="258.601" y="365.31"/>
      <point x="258.601" y="456.84" type="curve" smooth="yes"/>
      <point x="258.601" y="468.18"/>
      <point x="256.17" y="480.33"/>
      <point x="251.311" y="496.53" type="curve"/>
      <point x="203.521" y="509.489"/>
      <point x="207.57" y="522.45"/>
    </contour>
  </outline>
</glyph>
<glyph name="ampersand" format="2">
  <advance width="604"/>
  <unicode hex="0026"/>
  <outline>
    <contour>
      <point x="377.51" y="452.341" type="curve" smooth="yes"/>
      <point x="377.51" y="397.458"/>
      <point x="345.693" y="359.28"/>
      <point x="254.223" y="316.329" type="curve"/>
      <point x="289.221" y="247.924"/>
      <point x="314.673" y="207.358"/>
      <point x="359.216" y="152.476" type="curve"/>
      <point x="410.121" y="220.085"/>
      <point x="431.597" y="263.037"/>
      <point x="431.597" y="297.238" type="curve" smooth="yes"/>
      <point x="431.597" y="321.102"/>
      <point x="420.462" y="329.055"/>
      <point x="380.691" y="333.032" type="curve"/>
      <point x="380.691" y="349.735" type="line"/>
      <point x="552.498" y="349.735" type="line"/>
      <point x="552.498" y="333.032" type="line"/>
      <point x="512.729" y="328.26"/>
      <point x="496.819" y="318.715"/>
      <point x="477.73" y="286.104" type="curve" smooth="yes"/>
      <point x="444.713" y="227.687"/>
      <point x="432.177" y="203.507"/>
      <point x="377.51" y="130.204" type="curve"/>
      <point x="414.099" y="81.6846"/>
      <point x="455.459" y="57.0273"/>
      <point x="500.002" y="57.0273" type="curve" smooth="yes"/>
      <point x="528.636" y="57.0273"/>
      <point x="546.135" y="67.3672"/>
      <point x="571.587" y="99.1836" type="curve"/>
      <point x="583.519" y="90.4346" type="line"/>
      <point x="559.656" y="33.96"/>
      <point x="514.318" y="0.553711"/>
      <point x="463.413" y="0.553711" type="curve" smooth="yes"/>
      <point x="417.279" y="0.553711"/>
      <point x="378.306" y="21.2344"/>
      <point x="328.195" y="72.9355" type="curve"/>
      <point x="268.54" y="20.4395"/>
      <point x="220.815" y="0.553711"/>
      <point x="156.389" y="0.553711" type="curve" smooth="yes"/>
      <point x="72.0762" y="0.553711"/>
      <point x="20.375" y="45.8916"/>
      <point x="20.375" y="121.455" type="curve" smooth="yes"/>
      <point x="20.375" y="222.47"/>
      <point x="104.688" y="271.785"/>
      <point x="175.478" y="310.76" type="curve"/>
      <point x="154.002" y="370.415"/>
      <point x="147.64" y="395.868"/>
      <point x="147.64" y="426.093" type="curve" smooth="yes"/>
      <point x="147.64" y="494.497"/>
      <point x="201.727" y="553.584"/>
      <point x="270.131" y="553.584" type="curve" smooth="yes"/>
      <point x="332.968" y="553.584"/>
      <point x="377.51" y="508.814"/>
    </contour>
    <contour>
      <point x="242.292" y="341.781" type="curve"/>
      <point x="307.515" y="376.778"/>
      <point x="335.354" y="410.98"/>
      <point x="335.354" y="455.523" type="curve" smooth="yes"/>
      <point x="335.354" y="494.498"/>
      <point x="308.31" y="528.132"/>
      <point x="271.722" y="528.132" type="curve" smooth="yes"/>
      <point x="235.133" y="528.132"/>
      <point x="210.476" y="496.089"/>
      <point x="210.476" y="457.909" type="curve" smooth="yes"/>
      <point x="210.476" y="422.117"/>
      <point x="218.43" y="391.892"/>
    </contour>
    <contour>
      <point x="187.409" y="283.718" type="curve"/>
      <point x="118.21" y="239.175"/>
      <point x="93.5518" y="204.973"/>
      <point x="93.5518" y="154.067" type="curve" smooth="yes"/>
      <point x="93.5518" y="92.8203"/>
      <point x="140.481" y="41.916"/>
      <point x="196.158" y="41.916" type="curve" smooth="yes"/>
      <point x="229.565" y="41.916"/>
      <point x="261.382" y="56.2324"/>
      <point x="308.31" y="93.6162" type="curve"/>
      <point x="262.972" y="149.295"/>
      <point x="235.133" y="193.041"/>
    </contour>
  </outline>
</glyph>
<glyph name="quotesingle" format="2">
  <advance width="113"/>
  <unicode hex="0027"/>
  <outline>
    <contour>
      <point x="64" y="405.4" type="curve"/>
      <point x="48.8799" y="405.4" type="line"/>
      <point x="36.6396" y="470.2"/>
      <point x="25.8398" y="540.76"/>
      <point x="25.8398" y="552.28" type="curve" smooth="yes"/>
      <point x="25.8398" y="568.84"/>
      <point x="39.5195" y="581.8"/>
      <point x="56.7998" y="581.8" type="curve" smooth="yes"/>
      <point x="73.3594" y="581.8"/>
      <point x="87.04" y="568.84"/>
      <point x="87.04" y="553" type="curve" smooth="yes"/>
      <point x="87.04" y="540.04"/>
      <point x="76.2393" y="469.48"/>
    </contour>
  </outline>
</glyph>
<glyph name="parenleft" format="2">
  <advance width="230"/>
  <unicode hex="0028"/>
  <outline>
    <contour>
      <point x="207" y="-21" type="curve" smooth="yes"/>
      <point x="207" y="-75"/>
      <point x="181" y="-101"/>
      <point x="128" y="-101" type="curve" smooth="yes"/>
      <point x="110" y="-101"/>
      <point x="83" y="-99"/>
      <point x="65" y="-88" type="curve" smooth="yes"/>
      <point x="30" y="-67"/>
      <point x="11" y="-16"/>
      <point x="11" y="44" type="curve" smooth="yes"/>
      <point x="11" y="506" type="line" smooth="yes"/>
      <point x="11" y="566"/>
      <point x="30" y="617"/>
      <point x="65" y="638" type="curve" smooth="yes"/>
      <point x="83" y="649"/>
      <point x="110" y="651"/>
      <point x="128" y="651" type="curve" smooth="yes"/>
      <point x="181" y="651"/>
      <point x="207" y="625"/>
      <point x="207" y="571" type="curve" smooth="yes"/>
      <point x="207" y="541"/>
      <point x="186" y="522"/>
      <point x="163" y="522" type="curve" smooth="yes"/>
      <point x="143" y="522"/>
      <point x="129" y="536"/>
      <point x="129" y="552" type="curve" smooth="yes"/>
      <point x="129" y="568"/>
      <point x="145" y="575"/>
      <point x="159" y="575" type="curve" smooth="yes"/>
      <point x="173" y="575"/>
      <point x="185" y="570"/>
      <point x="185" y="570" type="curve"/>
      <point x="185" y="570"/>
      <point x="186" y="574"/>
      <point x="186" y="579" type="curve" smooth="yes"/>
      <point x="186" y="593"/>
      <point x="182" y="619"/>
      <point x="156" y="630" type="curve" smooth="yes"/>
      <point x="144" y="635"/>
      <point x="132" y="638"/>
      <point x="119" y="638" type="curve" smooth="yes"/>
      <point x="99" y="638"/>
      <point x="79" y="631"/>
      <point x="64" y="615" type="curve" smooth="yes"/>
      <point x="38" y="588"/>
      <point x="37" y="519"/>
      <point x="37" y="510" type="curve" smooth="yes"/>
      <point x="37" y="509" type="line"/>
      <point x="37" y="509"/>
      <point x="42" y="527"/>
      <point x="54" y="543" type="curve" smooth="yes"/>
      <point x="63" y="556"/>
      <point x="76" y="566"/>
      <point x="89" y="566" type="curve" smooth="yes"/>
      <point x="90" y="566"/>
      <point x="91" y="566"/>
      <point x="92" y="566" type="curve"/>
      <point x="92" y="566"/>
      <point x="65" y="545"/>
      <point x="65" y="356" type="curve" smooth="yes"/>
      <point x="65" y="302"/>
      <point x="22" y="274"/>
      <point x="22" y="274" type="curve"/>
      <point x="22" y="274"/>
      <point x="65" y="241"/>
      <point x="65" y="194" type="curve" smooth="yes"/>
      <point x="65" y="8"/>
      <point x="92" y="-16"/>
      <point x="92" y="-16" type="curve"/>
      <point x="91" y="-16"/>
      <point x="90" y="-16"/>
      <point x="89" y="-16" type="curve" smooth="yes"/>
      <point x="76" y="-16"/>
      <point x="63" y="-6"/>
      <point x="54" y="7" type="curve" smooth="yes"/>
      <point x="42" y="23"/>
      <point x="37" y="41"/>
      <point x="37" y="41" type="curve"/>
      <point x="37" y="41"/>
      <point x="37" y="41"/>
      <point x="37" y="40" type="curve" smooth="yes"/>
      <point x="37" y="31"/>
      <point x="38" y="-38"/>
      <point x="64" y="-65" type="curve" smooth="yes"/>
      <point x="79" y="-81"/>
      <point x="99" y="-88"/>
      <point x="119" y="-88" type="curve" smooth="yes"/>
      <point x="132" y="-88"/>
      <point x="144" y="-85"/>
      <point x="156" y="-80" type="curve" smooth="yes"/>
      <point x="182" y="-69"/>
      <point x="186" y="-43"/>
      <point x="186" y="-29" type="curve" smooth="yes"/>
      <point x="186" y="-24"/>
      <point x="185" y="-20"/>
      <point x="185" y="-20" type="curve"/>
      <point x="185" y="-20"/>
      <point x="173" y="-28"/>
      <point x="159" y="-28" type="curve" smooth="yes"/>
      <point x="145" y="-28"/>
      <point x="129" y="-16"/>
      <point x="129" y="0" type="curve" smooth="yes"/>
      <point x="129" y="16"/>
      <point x="143" y="28"/>
      <point x="163" y="28" type="curve" smooth="yes"/>
      <point x="186" y="28"/>
      <point x="207" y="9"/>
    </contour>
  </outline>
</glyph>
<glyph name="parenright" format="2">
  <advance width="230"/>
  <unicode hex="0029"/>
  <outline>
    <contour>
      <point x="12" y="571" type="curve" smooth="yes"/>
      <point x="12" y="625"/>
      <point x="38" y="651"/>
      <point x="91" y="651" type="curve" smooth="yes"/>
      <point x="109" y="651"/>
      <point x="136" y="649"/>
      <point x="154" y="638" type="curve" smooth="yes"/>
      <point x="189" y="617"/>
      <point x="208" y="566"/>
      <point x="208" y="506" type="curve" smooth="yes"/>
      <point x="208" y="44" type="line" smooth="yes"/>
      <point x="208" y="-16"/>
      <point x="189" y="-67"/>
      <point x="154" y="-88" type="curve" smooth="yes"/>
      <point x="136" y="-99"/>
      <point x="109" y="-101"/>
      <point x="91" y="-101" type="curve" smooth="yes"/>
      <point x="38" y="-101"/>
      <point x="12" y="-75"/>
      <point x="12" y="-21" type="curve" smooth="yes"/>
      <point x="12" y="9"/>
      <point x="33" y="28"/>
      <point x="56" y="28" type="curve" smooth="yes"/>
      <point x="76" y="28"/>
      <point x="90" y="16"/>
      <point x="90" y="0" type="curve" smooth="yes"/>
      <point x="90" y="-16"/>
      <point x="74" y="-28"/>
      <point x="60" y="-28" type="curve" smooth="yes"/>
      <point x="46" y="-28"/>
      <point x="34" y="-20"/>
      <point x="34" y="-20" type="curve"/>
      <point x="34" y="-20"/>
      <point x="33" y="-24"/>
      <point x="33" y="-29" type="curve" smooth="yes"/>
      <point x="33" y="-43"/>
      <point x="37" y="-69"/>
      <point x="63" y="-80" type="curve" smooth="yes"/>
      <point x="75" y="-85"/>
      <point x="87" y="-88"/>
      <point x="100" y="-88" type="curve" smooth="yes"/>
      <point x="120" y="-88"/>
      <point x="140" y="-81"/>
      <point x="155" y="-65" type="curve" smooth="yes"/>
      <point x="181" y="-38"/>
      <point x="182" y="31"/>
      <point x="182" y="40" type="curve" smooth="yes"/>
      <point x="182" y="41" type="line"/>
      <point x="182" y="41"/>
      <point x="177" y="23"/>
      <point x="165" y="7" type="curve" smooth="yes"/>
      <point x="156" y="-6"/>
      <point x="143" y="-16"/>
      <point x="130" y="-16" type="curve" smooth="yes"/>
      <point x="129" y="-16"/>
      <point x="128" y="-16"/>
      <point x="127" y="-16" type="curve"/>
      <point x="127" y="-16"/>
      <point x="154" y="8"/>
      <point x="154" y="194" type="curve" smooth="yes"/>
      <point x="154" y="241"/>
      <point x="197" y="274"/>
      <point x="197" y="274" type="curve"/>
      <point x="197" y="274"/>
      <point x="154" y="302"/>
      <point x="154" y="356" type="curve" smooth="yes"/>
      <point x="154" y="545"/>
      <point x="127" y="566"/>
      <point x="127" y="566" type="curve"/>
      <point x="128" y="566"/>
      <point x="129" y="566"/>
      <point x="130" y="566" type="curve" smooth="yes"/>
      <point x="143" y="566"/>
      <point x="156" y="556"/>
      <point x="165" y="543" type="curve" smooth="yes"/>
      <point x="177" y="527"/>
      <point x="182" y="509"/>
      <point x="182" y="509" type="curve"/>
      <point x="182" y="509"/>
      <point x="182" y="509"/>
      <point x="182" y="510" type="curve" smooth="yes"/>
      <point x="182" y="519"/>
      <point x="181" y="588"/>
      <point x="155" y="615" type="curve" smooth="yes"/>
      <point x="140" y="631"/>
      <point x="120" y="638"/>
      <point x="100" y="638" type="curve" smooth="yes"/>
      <point x="87" y="638"/>
      <point x="75" y="635"/>
      <point x="63" y="630" type="curve" smooth="yes"/>
      <point x="37" y="619"/>
      <point x="33" y="593"/>
      <point x="33" y="579" type="curve" smooth="yes"/>
      <point x="33" y="574"/>
      <point x="34" y="570"/>
      <point x="34" y="570" type="curve"/>
      <point x="34" y="570"/>
      <point x="46" y="578"/>
      <point x="60" y="578" type="curve" smooth="yes"/>
      <point x="74" y="578"/>
      <point x="90" y="568"/>
      <point x="90" y="552" type="curve" smooth="yes"/>
      <point x="90" y="536"/>
      <point x="76" y="522"/>
      <point x="56" y="522" type="curve" smooth="yes"/>
      <point x="33" y="522"/>
      <point x="12" y="541"/>
    </contour>
  </outline>
</glyph>
<glyph name="asterisk" format="2">
  <advance width="283"/>
  <unicode hex="002A"/>
  <outline>
    <contour>
      <point x="250" y="595" type="curve" smooth="yes"/>
      <point x="256" y="595"/>
      <point x="260" y="592"/>
      <point x="260" y="587" type="curve" smooth="yes"/>
      <point x="260" y="576"/>
      <point x="241" y="561"/>
      <point x="234" y="556" type="curve" smooth="yes"/>
      <point x="225" y="549"/>
      <point x="201" y="536"/>
      <point x="201" y="524" type="curve" smooth="yes"/>
      <point x="201" y="509"/>
      <point x="226" y="494"/>
      <point x="236" y="487" type="curve" smooth="yes"/>
      <point x="245" y="480"/>
      <point x="252" y="474"/>
      <point x="258" y="469" type="curve" smooth="yes"/>
      <point x="262" y="465"/>
      <point x="264" y="461"/>
      <point x="264" y="458" type="curve" smooth="yes"/>
      <point x="264" y="453"/>
      <point x="258" y="449"/>
      <point x="251" y="449" type="curve" smooth="yes"/>
      <point x="231" y="449"/>
      <point x="209" y="463"/>
      <point x="192" y="469" type="curve" smooth="yes"/>
      <point x="186" y="471"/>
      <point x="182" y="472"/>
      <point x="179" y="472" type="curve" smooth="yes"/>
      <point x="173" y="472"/>
      <point x="171" y="468"/>
      <point x="168" y="457" type="curve" smooth="yes"/>
      <point x="163" y="443"/>
      <point x="158" y="423"/>
      <point x="153" y="410" type="curve" smooth="yes"/>
      <point x="150" y="403"/>
      <point x="147" y="402"/>
      <point x="143" y="402" type="curve" smooth="yes"/>
      <point x="121" y="402"/>
      <point x="120" y="463"/>
      <point x="109" y="474" type="curve" smooth="yes"/>
      <point x="108" y="475"/>
      <point x="107" y="475"/>
      <point x="105" y="475" type="curve" smooth="yes"/>
      <point x="96" y="475"/>
      <point x="74" y="462"/>
      <point x="68" y="460" type="curve" smooth="yes"/>
      <point x="61" y="457"/>
      <point x="45" y="449"/>
      <point x="34" y="449" type="curve" smooth="yes"/>
      <point x="29" y="449"/>
      <point x="23" y="451"/>
      <point x="23" y="456" type="curve" smooth="yes"/>
      <point x="23" y="466"/>
      <point x="44" y="481"/>
      <point x="50" y="486" type="curve" smooth="yes"/>
      <point x="60" y="495"/>
      <point x="83" y="509"/>
      <point x="83" y="522" type="curve" smooth="yes"/>
      <point x="83" y="538"/>
      <point x="60" y="553"/>
      <point x="48" y="561" type="curve"/>
      <point x="41" y="567"/>
      <point x="20" y="581"/>
      <point x="20" y="591" type="curve" smooth="yes"/>
      <point x="20" y="592"/>
      <point x="20" y="593"/>
      <point x="20" y="594" type="curve" smooth="yes"/>
      <point x="22" y="597"/>
      <point x="27" y="599"/>
      <point x="31" y="599" type="curve" smooth="yes"/>
      <point x="42" y="599"/>
      <point x="58" y="591"/>
      <point x="65" y="588" type="curve" smooth="yes"/>
      <point x="73" y="585"/>
      <point x="91" y="575"/>
      <point x="105" y="575" type="curve" smooth="yes"/>
      <point x="125" y="575"/>
      <point x="125" y="605"/>
      <point x="129" y="623" type="curve" smooth="yes"/>
      <point x="132" y="635"/>
      <point x="136" y="659"/>
      <point x="147" y="659" type="curve" smooth="yes"/>
      <point x="169" y="659"/>
      <point x="162" y="583"/>
      <point x="176" y="575" type="curve" smooth="yes"/>
      <point x="179" y="573"/>
      <point x="182" y="575"/>
      <point x="185" y="575" type="curve" smooth="yes"/>
      <point x="197" y="575"/>
      <point x="213" y="582"/>
      <point x="220" y="585" type="curve" smooth="yes"/>
      <point x="226" y="588"/>
      <point x="241" y="595"/>
    </contour>
    <contour>
      <point x="108" y="526" type="curve" smooth="yes"/>
      <point x="108" y="507"/>
      <point x="122" y="496"/>
      <point x="141" y="496" type="curve" smooth="yes"/>
      <point x="158" y="496"/>
      <point x="177" y="506"/>
      <point x="177" y="524" type="curve" smooth="yes"/>
      <point x="177" y="542"/>
      <point x="161" y="562"/>
      <point x="141" y="562" type="curve" smooth="yes"/>
      <point x="123" y="562"/>
      <point x="108" y="545"/>
    </contour>
  </outline>
</glyph>
<glyph name="plus" format="2">
  <advance width="474"/>
  <unicode hex="002B"/>
  <outline>
    <contour>
      <point x="211.54" y="308.428" type="line"/>
      <point x="211.54" y="480.028" type="line"/>
      <point x="263.02" y="480.028" type="line"/>
      <point x="263.02" y="308.428" type="line"/>
      <point x="433.84" y="308.428" type="line"/>
      <point x="433.84" y="256.948" type="line"/>
      <point x="263.02" y="256.948" type="line"/>
      <point x="263.02" y="85.3477" type="line"/>
      <point x="211.54" y="85.3477" type="line"/>
      <point x="211.54" y="256.948" type="line"/>
      <point x="40.7197" y="256.948" type="line"/>
      <point x="40.7197" y="308.428" type="line"/>
    </contour>
  </outline>
</glyph>
<glyph name="comma" format="2">
  <advance width="250"/>
  <unicode hex="002C"/>
  <outline>
    <contour>
      <point x="49" y="4" type="curve"/>
      <point x="48" y="5"/>
      <point x="48" y="6"/>
      <point x="48" y="8" type="curve" smooth="yes"/>
      <point x="48" y="27"/>
      <point x="98" y="85"/>
      <point x="159" y="85" type="curve" smooth="yes"/>
      <point x="192" y="85"/>
      <point x="202" y="70"/>
      <point x="202" y="53" type="curve" smooth="yes"/>
      <point x="202" y="31"/>
      <point x="186" y="6"/>
      <point x="186" y="6" type="curve"/>
      <point x="201" y="6" type="line"/>
      <point x="201" y="0" type="line"/>
      <point x="150" y="0" type="line"/>
      <point x="150" y="6" type="line"/>
      <point x="165" y="6" type="line"/>
      <point x="165" y="6"/>
      <point x="176" y="27"/>
      <point x="176" y="45" type="curve" smooth="yes"/>
      <point x="176" y="59"/>
      <point x="169" y="72"/>
      <point x="147" y="72" type="curve" smooth="yes"/>
      <point x="100" y="72"/>
      <point x="49" y="4"/>
    </contour>
  </outline>
</glyph>
<glyph name="period" format="2">
  <advance width="250"/>
  <unicode hex="002E"/>
  <outline>
    <contour>
      <point x="82" y="42" type="curve" smooth="yes"/>
      <point x="82" y="66"/>
      <point x="103" y="85"/>
      <point x="125" y="85" type="curve" smooth="yes"/>
      <point x="149" y="85"/>
      <point x="168" y="64"/>
      <point x="168" y="42" type="curve" smooth="yes"/>
      <point x="168" y="18"/>
      <point x="147" y="0"/>
      <point x="125" y="0" type="curve" smooth="yes"/>
      <point x="101" y="0"/>
      <point x="82" y="20"/>
    </contour>
  </outline>
</glyph>
<glyph name="slash" format="2">
  <advance width="296"/>
  <unicode hex="002F"/>
  <outline>
    <contour>
      <point x="266" y="553.221" type="line"/>
      <point x="60" y="0" type="line"/>
      <point x="8.31934" y="0" type="line"/>
      <point x="215.08" y="553.221" type="line"/>
    </contour>
  </outline>
</glyph>
<glyph name="zero" format="2">
  <advance width="447"/>
  <unicode hex="0030"/>
  <outline>
    <contour>
      <point x="223.94" y="0.629883" type="curve" smooth="yes"/>
      <point x="112.16" y="0.629883"/>
      <point x="40.8799" y="120.51"/>
      <point x="40.8799" y="284.13" type="curve" smooth="yes"/>
      <point x="40.8799" y="434.79"/>
      <point x="108.92" y="559.53"/>
      <point x="227.18" y="559.53" type="curve" smooth="yes"/>
      <point x="333.29" y="559.53"/>
      <point x="407" y="445.32"/>
      <point x="407" y="279.27" type="curve" smooth="yes"/>
      <point x="407" y="117.27"/>
      <point x="335.72" y="0.629883"/>
    </contour>
    <contour>
      <point x="224.75" y="538.47" type="curve" smooth="yes"/>
      <point x="155.09" y="538.47"/>
      <point x="118.64" y="448.56"/>
      <point x="118.64" y="276.84" type="curve" smooth="yes"/>
      <point x="118.64" y="108.36"/>
      <point x="154.28" y="21.6904"/>
      <point x="223.94" y="21.6904" type="curve" smooth="yes"/>
      <point x="293.6" y="21.6904"/>
      <point x="329.24" y="108.36"/>
      <point x="329.24" y="277.65" type="curve" smooth="yes"/>
      <point x="329.24" y="446.94"/>
      <point x="292.79" y="538.47"/>
    </contour>
  </outline>
</glyph>
<glyph name="one" format="2">
  <advance width="311"/>
  <unicode hex="0031"/>
  <outline>
    <contour>
      <point x="99.165" y="488.066" type="curve" smooth="yes"/>
      <point x="87.0146" y="488.066"/>
      <point x="72.4346" y="483.206"/>
      <point x="40.8447" y="470.246" type="curve"/>
      <point x="40.8447" y="481.586" type="line"/>
      <point x="186.645" y="556.296" type="line"/>
      <point x="193.125" y="554.676" type="line"/>
      <point x="193.125" y="60.6758" type="line" smooth="yes"/>
      <point x="193.125" y="21.7959"/>
      <point x="206.085" y="13.6963"/>
      <point x="270.075" y="12.8857" type="curve"/>
      <point x="270.075" y="0.736328" type="line"/>
      <point x="46.5146" y="0.736328" type="line"/>
      <point x="46.5146" y="12.8857" type="line"/>
      <point x="104.025" y="14.5059"/>
      <point x="123.465" y="23.416"/>
      <point x="123.465" y="76.0664" type="curve" smooth="yes"/>
      <point x="123.465" y="449.996" type="line" smooth="yes"/>
      <point x="123.465" y="475.916"/>
      <point x="116.175" y="488.066"/>
    </contour>
  </outline>
</glyph>
<glyph name="two" format="2">
  <advance width="441"/>
  <unicode hex="0032"/>
  <outline>
    <contour>
      <point x="41.165" y="391.926" type="line"/>
      <point x="50.0752" y="429.996"/>
      <point x="79.2354" y="553.116"/>
      <point x="209.645" y="553.116" type="curve" smooth="yes"/>
      <point x="293.885" y="553.116"/>
      <point x="359.495" y="490.746"/>
      <point x="359.495" y="409.746" type="curve" smooth="yes"/>
      <point x="359.495" y="346.566"/>
      <point x="327.905" y="285.006"/>
      <point x="255.815" y="209.676" type="curve" smooth="yes"/>
      <point x="119.735" y="62.1162" type="line"/>
      <point x="313.325" y="62.1162" type="line" smooth="yes"/>
      <point x="349.775" y="62.1162"/>
      <point x="360.305" y="69.4062"/>
      <point x="390.275" y="115.576" type="curve"/>
      <point x="400.805" y="111.526" type="line"/>
      <point x="356.255" y="0.555664" type="line"/>
      <point x="40.3555" y="0.555664" type="line"/>
      <point x="40.3555" y="10.2764" type="line"/>
      <point x="184.535" y="168.366" type="line" smooth="yes"/>
      <point x="252.575" y="240.456"/>
      <point x="289.835" y="315.786"/>
      <point x="289.835" y="378.966" type="curve" smooth="yes"/>
      <point x="289.835" y="447.006"/>
      <point x="243.665" y="493.176"/>
      <point x="175.625" y="493.176" type="curve" smooth="yes"/>
      <point x="119.735" y="493.176"/>
      <point x="90.5752" y="467.256"/>
      <point x="58.1748" y="387.876" type="curve"/>
    </contour>
  </outline>
</glyph>
<glyph name="three" format="2">
  <advance width="397"/>
  <unicode hex="0033"/>
  <outline>
    <contour>
      <point x="68.4824" y="76.1855" type="curve" smooth="yes"/>
      <point x="109.057" y="76.1855"/>
      <point x="138.039" y="30.7246"/>
      <point x="191.033" y="30.7246" type="curve" smooth="yes"/>
      <point x="252.307" y="30.7246"/>
      <point x="299.506" y="83.4922"/>
      <point x="299.506" y="151.683" type="curve" smooth="yes"/>
      <point x="299.506" y="262.899"/>
      <point x="198.484" y="280.759"/>
      <point x="128.101" y="280.759" type="curve"/>
      <point x="128.101" y="291.312" type="line"/>
      <point x="190.204" y="312.42"/>
      <point x="265.556" y="341.892"/>
      <point x="265.556" y="423.071" type="curve" smooth="yes"/>
      <point x="265.556" y="474.215"/>
      <point x="228.294" y="509.935"/>
      <point x="174.472" y="509.935" type="curve" smooth="yes"/>
      <point x="122.306" y="509.935"/>
      <point x="85.0439" y="483.145"/>
      <point x="51.0938" y="423.884" type="curve"/>
      <point x="38.6738" y="427.131" type="line"/>
      <point x="61.0303" y="488.016"/>
      <point x="100.776" y="558.643"/>
      <point x="201.797" y="558.643" type="curve" smooth="yes"/>
      <point x="277.976" y="558.643"/>
      <point x="330.971" y="513.182"/>
      <point x="330.971" y="447.426" type="curve" smooth="yes"/>
      <point x="330.971" y="403.589"/>
      <point x="310.27" y="376.552"/>
      <point x="253.135" y="338.397" type="curve"/>
      <point x="308.613" y="314.855"/>
      <point x="359.124" y="279.136"/>
      <point x="359.124" y="190.649" type="curve" smooth="yes"/>
      <point x="359.124" y="73.75"/>
      <point x="258.932" y="1.50098"/>
      <point x="130.586" y="1.50098" type="curve" smooth="yes"/>
      <point x="72.623" y="1.50098"/>
      <point x="37.0186" y="19.3594"/>
      <point x="37.0186" y="47.7725" type="curve" smooth="yes"/>
      <point x="37.0186" y="64.8213"/>
      <point x="49.4385" y="76.1855"/>
    </contour>
  </outline>
</glyph>
<glyph name="four" format="2">
  <advance width="458"/>
  <unicode hex="0034"/>
  <outline>
    <contour>
      <point x="417.32" y="190.42" type="line"/>
      <point x="417.32" y="137.94" type="line"/>
      <point x="333.68" y="137.94" type="line"/>
      <point x="333.68" y="0" type="line"/>
      <point x="270.54" y="0" type="line"/>
      <point x="270.54" y="137.94" type="line"/>
      <point x="40.1201" y="137.94" type="line"/>
      <point x="40.1201" y="190.42" type="line"/>
      <point x="297.6" y="555.32" type="line"/>
      <point x="333.68" y="555.32" type="line"/>
      <point x="333.68" y="190.42" type="line"/>
    </contour>
    <contour>
      <point x="269.72" y="190.42" type="line"/>
      <point x="269.72" y="471.68" type="line"/>
      <point x="72.9199" y="190.42" type="line"/>
    </contour>
  </outline>
</glyph>
<glyph name="five" format="2">
  <advance width="420"/>
  <unicode hex="0035"/>
  <outline>
    <contour>
      <point x="309.06" y="166.422" type="curve" smooth="yes"/>
      <point x="309.06" y="317.082"/>
      <point x="131.67" y="352.002"/>
      <point x="81.4502" y="352.002" type="curve" smooth="yes"/>
      <point x="74.9697" y="352.002"/>
      <point x="71.7305" y="354.432"/>
      <point x="71.7305" y="358.482" type="curve" smooth="yes"/>
      <point x="71.7305" y="360.102"/>
      <point x="71.7305" y="360.912"/>
      <point x="72.54" y="362.532" type="curve" smooth="yes"/>
      <point x="160.83" y="554.502" type="line"/>
      <point x="330.12" y="554.502" type="line" smooth="yes"/>
      <point x="347.13" y="554.502"/>
      <point x="355.23" y="558.552"/>
      <point x="367.38" y="575.562" type="curve"/>
      <point x="374.67" y="569.892" type="line"/>
      <point x="343.89" y="497.802" type="line" smooth="yes"/>
      <point x="341.46" y="492.132"/>
      <point x="338.22" y="490.512"/>
      <point x="325.26" y="490.512" type="curve" smooth="yes"/>
      <point x="166.5" y="490.512" type="line"/>
      <point x="132.48" y="421.662" type="line"/>
      <point x="283.14" y="394.932"/>
      <point x="365.76" y="331.662"/>
      <point x="365.76" y="205.302" type="curve" smooth="yes"/>
      <point x="365.76" y="39.252"/>
      <point x="230.49" y="-8.05762"/>
      <point x="144.63" y="-8.05762" type="curve" smooth="yes"/>
      <point x="83.8799" y="-8.05762"/>
      <point x="45.8096" y="11.3818"/>
      <point x="45.8096" y="42.1621" type="curve" smooth="yes"/>
      <point x="45.8096" y="62.4121"/>
      <point x="57.1504" y="72.1318"/>
      <point x="80.6396" y="72.1318" type="curve" smooth="yes"/>
      <point x="126" y="72.1318"/>
      <point x="153.54" y="21.9121"/>
      <point x="196.47" y="21.9121" type="curve" smooth="yes"/>
      <point x="259.65" y="21.9121"/>
      <point x="309.06" y="88.6621"/>
    </contour>
  </outline>
</glyph>
<glyph name="six" format="2">
  <advance width="437"/>
  <unicode hex="0036"/>
  <outline>
    <contour>
      <point x="224.62" y="-13.6035" type="curve" smooth="yes"/>
      <point x="114.74" y="-13.6035"/>
      <point x="40.9404" y="82.3359"/>
      <point x="40.9404" y="226.656" type="curve" smooth="yes"/>
      <point x="40.9404" y="322.564"/>
      <point x="87.4443" y="533.2"/>
      <point x="378.78" y="558.756" type="curve"/>
      <point x="380.42" y="545.636" type="line"/>
      <point x="251.68" y="524.316"/>
      <point x="159.84" y="435.756"/>
      <point x="137.7" y="311.936" type="curve"/>
      <point x="189.36" y="343.096"/>
      <point x="206.58" y="348.836"/>
      <point x="242.66" y="348.836" type="curve" smooth="yes"/>
      <point x="336.96" y="348.836"/>
      <point x="396.82" y="282.416"/>
      <point x="396.82" y="177.456" type="curve" smooth="yes"/>
      <point x="396.82" y="64.2959"/>
      <point x="326.3" y="-13.6035"/>
    </contour>
    <contour>
      <point x="211.5" y="311.116" type="curve" smooth="yes"/>
      <point x="131.14" y="311.116"/>
      <point x="117.2" y="270.936"/>
      <point x="117.2" y="213.536" type="curve" smooth="yes"/>
      <point x="117.2" y="86.4355"/>
      <point x="161.48" y="9.35645"/>
      <point x="233.64" y="9.35645" type="curve" smooth="yes"/>
      <point x="291.04" y="9.35645"/>
      <point x="323.02" y="59.376"/>
      <point x="323.02" y="149.576" type="curve" smooth="yes"/>
      <point x="323.02" y="252.076"/>
      <point x="282.02" y="311.116"/>
    </contour>
  </outline>
</glyph>
<glyph name="seven" format="2">
  <advance width="401"/>
  <unicode hex="0037"/>
  <outline>
    <contour>
      <point x="381.04" y="554.32" type="line"/>
      <point x="381.04" y="540.88" type="line"/>
      <point x="202.96" y="-8.48047" type="line"/>
      <point x="148.36" y="-8.48047" type="line"/>
      <point x="314.68" y="492.16" type="line"/>
      <point x="132.4" y="492.16" type="line" smooth="yes"/>
      <point x="86.2002" y="492.16"/>
      <point x="71.0801" y="481.24"/>
      <point x="34.96" y="424.12" type="curve"/>
      <point x="20.6797" y="430.84" type="line"/>
      <point x="70.2402" y="554.32" type="line"/>
    </contour>
  </outline>
</glyph>
<glyph name="eight" format="2">
  <advance width="395"/>
  <unicode hex="0038"/>
  <outline>
    <contour>
      <point x="229.836" y="307.36" type="curve"/>
      <point x="327.544" y="234.46"/>
      <point x="354.999" y="190.77"/>
      <point x="354.999" y="128.4" type="curve" smooth="yes"/>
      <point x="354.999" y="44.9697"/>
      <point x="292.821" y="-8.49023"/>
      <point x="195.921" y="-8.49023" type="curve" smooth="yes"/>
      <point x="104.674" y="-8.49023"/>
      <point x="40.8809" y="46.5898"/>
      <point x="40.8809" y="125.16" type="curve" smooth="yes"/>
      <point x="40.8809" y="180.24"/>
      <point x="58.6465" y="205.35"/>
      <point x="145.856" y="271.77" type="curve"/>
      <point x="61.0684" y="346.29"/>
      <point x="45.7266" y="373.78"/>
      <point x="45.7266" y="426.43" type="curve" smooth="yes"/>
      <point x="45.7266" y="500.14"/>
      <point x="111.134" y="554.41"/>
      <point x="199.151" y="554.41" type="curve" smooth="yes"/>
      <point x="279.901" y="554.41"/>
      <point x="338.041" y="505.81"/>
      <point x="338.041" y="439.39" type="curve" smooth="yes"/>
      <point x="338.041" y="384.31"/>
      <point x="309.778" y="350.29"/>
    </contour>
    <contour>
      <point x="166.852" y="255.57" type="curve"/>
      <point x="120.017" y="217.5"/>
      <point x="102.251" y="183.48"/>
      <point x="102.251" y="131.64" type="curve" smooth="yes"/>
      <point x="102.251" y="61.1699"/>
      <point x="143.434" y="14.1904"/>
      <point x="204.804" y="14.1904" type="curve" smooth="yes"/>
      <point x="257.291" y="14.1904"/>
      <point x="293.629" y="50.6396"/>
      <point x="293.629" y="103.29" type="curve" smooth="yes"/>
      <point x="293.629" y="171.568"/>
      <point x="245.436" y="197.764"/>
    </contour>
    <contour>
      <point x="206.419" y="321.94" type="curve"/>
      <point x="229.028" y="338.95"/>
      <point x="282.324" y="368.92"/>
      <point x="282.324" y="440.2" type="curve" smooth="yes"/>
      <point x="282.324" y="496.09"/>
      <point x="247.602" y="531.73"/>
      <point x="192.691" y="531.73" type="curve" smooth="yes"/>
      <point x="141.818" y="531.73"/>
      <point x="105.481" y="498.52"/>
      <point x="105.481" y="451.54" type="curve" smooth="yes"/>
      <point x="105.481" y="406.18"/>
      <point x="134.551" y="368.92"/>
    </contour>
  </outline>
</glyph>
<glyph name="nine" format="2">
  <advance width="429"/>
  <unicode hex="0039"/>
  <outline>
    <contour>
      <point x="64.2246" y="-12.082" type="curve"/>
      <point x="61.7949" y="4.11816" type="line"/>
      <point x="184.915" y="25.1777"/>
      <point x="274.825" y="111.848"/>
      <point x="308.035" y="243.878" type="curve"/>
      <point x="265.105" y="210.668"/>
      <point x="231.085" y="197.708"/>
      <point x="186.535" y="197.708" type="curve" smooth="yes"/>
      <point x="99.0547" y="197.708"/>
      <point x="40.7354" y="263.318"/>
      <point x="40.7354" y="362.138" type="curve" smooth="yes"/>
      <point x="40.7354" y="471.488"/>
      <point x="112.825" y="553.298"/>
      <point x="209.215" y="553.298" type="curve" smooth="yes"/>
      <point x="313.705" y="553.298"/>
      <point x="388.225" y="458.528"/>
      <point x="388.225" y="324.878" type="curve" smooth="yes"/>
      <point x="388.225" y="235.366"/>
      <point x="350.853" y="21.1875"/>
    </contour>
    <contour>
      <point x="215.695" y="232.538" type="curve" smooth="yes"/>
      <point x="238.375" y="232.538"/>
      <point x="309.655" y="244.688"/>
      <point x="309.655" y="293.288" type="curve" smooth="yes"/>
      <point x="309.655" y="324.878" type="line" smooth="yes"/>
      <point x="309.655" y="460.958"/>
      <point x="273.205" y="530.618"/>
      <point x="202.735" y="530.618" type="curve" smooth="yes"/>
      <point x="133.075" y="530.618"/>
      <point x="115.255" y="449.618"/>
      <point x="115.255" y="389.678" type="curve" smooth="yes"/>
      <point x="115.255" y="293.288"/>
      <point x="154.135" y="232.538"/>
    </contour>
  </outline>
</glyph>
<glyph name="colon" format="2">
  <advance width="250"/>
  <unicode hex="003A"/>
  <outline>
    <contour>
      <point x="82" y="204" type="curve" smooth="yes"/>
      <point x="82" y="228"/>
      <point x="103" y="247"/>
      <point x="125" y="247" type="curve" smooth="yes"/>
      <point x="149" y="247"/>
      <point x="168" y="226"/>
      <point x="168" y="204" type="curve" smooth="yes"/>
      <point x="168" y="180"/>
      <point x="147" y="161"/>
      <point x="125" y="161" type="curve" smooth="yes"/>
      <point x="101" y="161"/>
      <point x="82" y="182"/>
    </contour>
    <contour>
      <point x="82" y="42" type="curve" smooth="yes"/>
      <point x="82" y="66"/>
      <point x="103" y="85"/>
      <point x="125" y="85" type="curve" smooth="yes"/>
      <point x="149" y="85"/>
      <point x="168" y="64"/>
      <point x="168" y="42" type="curve" smooth="yes"/>
      <point x="168" y="18"/>
      <point x="147" y="-1"/>
      <point x="125" y="-1" type="curve" smooth="yes"/>
      <point x="101" y="-1"/>
      <point x="82" y="20"/>
    </contour>
  </outline>
</glyph>
<glyph name="semicolon" format="2">
  <advance width="250"/>
  <unicode hex="003B"/>
  <outline>
    <contour>
      <point x="49" y="4" type="curve"/>
      <point x="48" y="5"/>
      <point x="48" y="6"/>
      <point x="48" y="8" type="curve" smooth="yes"/>
      <point x="48" y="27"/>
      <point x="98" y="85"/>
      <point x="159" y="85" type="curve" smooth="yes"/>
      <point x="192" y="85"/>
      <point x="202" y="70"/>
      <point x="202" y="53" type="curve" smooth="yes"/>
      <point x="202" y="31"/>
      <point x="186" y="6"/>
      <point x="186" y="6" type="curve"/>
      <point x="201" y="6" type="line"/>
      <point x="201" y="0" type="line"/>
      <point x="150" y="0" type="line"/>
      <point x="150" y="6" type="line"/>
      <point x="165" y="6" type="line"/>
      <point x="165" y="6"/>
      <point x="176" y="27"/>
      <point x="176" y="45" type="curve" smooth="yes"/>
      <point x="176" y="59"/>
      <point x="169" y="72"/>
      <point x="147" y="72" type="curve" smooth="yes"/>
      <point x="100" y="72"/>
      <point x="49" y="4"/>
    </contour>
    <contour>
      <point x="136" y="247" type="curve" smooth="yes"/>
      <point x="159" y="247"/>
      <point x="178" y="225"/>
      <point x="178" y="204" type="curve" smooth="yes"/>
      <point x="178" y="180"/>
      <point x="157" y="161"/>
      <point x="135" y="161" type="curve" smooth="yes"/>
      <point x="111" y="161"/>
      <point x="92" y="182"/>
      <point x="92" y="204" type="curve" smooth="yes"/>
      <point x="92" y="228"/>
      <point x="114" y="247"/>
    </contour>
  </outline>
</glyph>
<glyph name="less" format="2">
  <advance width="508"/>
  <unicode hex="003C"/>
  <outline>
    <contour>
      <point x="467.28" y="0.423828" type="line"/>
      <point x="40.5596" y="193.624" type="line"/>
      <point x="40.5596" y="249.064" type="line"/>
      <point x="467.28" y="442.264" type="line"/>
      <point x="467.28" y="381.784" type="line"/>
      <point x="114.48" y="221.344" type="line"/>
      <point x="467.28" y="60.9043" type="line"/>
    </contour>
  </outline>
</glyph>
<glyph name="equal" format="2">
  <advance width="498"/>
  <unicode hex="003D"/>
  <outline>
    <contour>
      <point x="458" y="330.24" type="line"/>
      <point x="458" y="275.46" type="line"/>
      <point x="39.6797" y="275.46" type="line"/>
      <point x="39.6797" y="330.24" type="line"/>
    </contour>
    <contour>
      <point x="458" y="164.24" type="line"/>
      <point x="458" y="109.46" type="line"/>
      <point x="39.6797" y="109.46" type="line"/>
      <point x="39.6797" y="164.24" type="line"/>
    </contour>
  </outline>
</glyph>
<glyph name="greater" format="2">
  <advance width="518"/>
  <unicode hex="003E"/>
  <outline>
    <contour>
      <point x="40.7197" y="443.76" type="line"/>
      <point x="477.6" y="245.96" type="line"/>
      <point x="477.6" y="189.2" type="line"/>
      <point x="40.7197" y="-8.59961" type="line"/>
      <point x="40.7197" y="53.3203" type="line"/>
      <point x="401.92" y="217.58" type="line"/>
      <point x="40.7197" y="381.84" type="line"/>
    </contour>
  </outline>
</glyph>
<glyph name="question" format="2">
  <advance width="250"/>
  <unicode hex="003F"/>
  <outline>
    <contour>
      <point x="115" y="548" type="curve" smooth="yes"/>
      <point x="155" y="548"/>
      <point x="184" y="501"/>
      <point x="184" y="454" type="curve" smooth="yes"/>
      <point x="184" y="384"/>
      <point x="109" y="340"/>
      <point x="86" y="276" type="curve" smooth="yes"/>
      <point x="84" y="270"/>
      <point x="83" y="262"/>
      <point x="83" y="255" type="curve" smooth="yes"/>
      <point x="83" y="222"/>
      <point x="103" y="183"/>
      <point x="128" y="183" type="curve" smooth="yes"/>
      <point x="130" y="183"/>
      <point x="131" y="183"/>
      <point x="132" y="183" type="curve"/>
      <point x="132" y="183"/>
      <point x="124" y="194"/>
      <point x="124" y="205" type="curve" smooth="yes"/>
      <point x="124" y="214"/>
      <point x="132" y="227"/>
      <point x="153" y="227" type="curve" smooth="yes"/>
      <point x="169" y="227"/>
      <point x="178" y="213"/>
      <point x="178" y="199" type="curve" smooth="yes"/>
      <point x="178" y="180"/>
      <point x="160" y="163"/>
      <point x="132" y="163" type="curve" smooth="yes"/>
      <point x="93" y="163"/>
      <point x="63" y="210"/>
      <point x="63" y="257" type="curve" smooth="yes"/>
      <point x="63" y="325"/>
      <point x="135" y="366"/>
      <point x="162" y="435" type="curve" smooth="yes"/>
      <point x="164" y="441"/>
      <point x="165" y="449"/>
      <point x="165" y="456" type="curve" smooth="yes"/>
      <point x="165" y="489"/>
      <point x="145" y="528"/>
      <point x="120" y="528" type="curve" smooth="yes"/>
      <point x="118" y="528"/>
      <point x="117" y="528"/>
      <point x="116" y="528" type="curve"/>
      <point x="116" y="528"/>
      <point x="124" y="517"/>
      <point x="124" y="505" type="curve" smooth="yes"/>
      <point x="124" y="496"/>
      <point x="116" y="484"/>
      <point x="96" y="484" type="curve" smooth="yes"/>
      <point x="80" y="484"/>
      <point x="71" y="497"/>
      <point x="71" y="512" type="curve" smooth="yes"/>
      <point x="71" y="531"/>
      <point x="88" y="548"/>
    </contour>
    <contour>
      <point x="168" y="42" type="curve" smooth="yes"/>
      <point x="168" y="18"/>
      <point x="147" y="0"/>
      <point x="125" y="0" type="curve" smooth="yes"/>
      <point x="101" y="0"/>
      <point x="82" y="20"/>
      <point x="82" y="42" type="curve" smooth="yes"/>
      <point x="82" y="66"/>
      <point x="103" y="85"/>
      <point x="125" y="85" type="curve" smooth="yes"/>
      <point x="149" y="85"/>
      <point x="168" y="64"/>
    </contour>
  </outline>
</glyph>
<glyph name="at" format="2">
  <advance width="642"/>
  <unicode hex="0040"/>
  <outline>
    <contour>
      <point x="340.49" y="526.84" type="curve" smooth="yes"/>
      <point x="199.45" y="526.84"/>
      <point x="109.25" y="405.48"/>
      <point x="109.25" y="262.8" type="curve" smooth="yes"/>
      <point x="109.25" y="120.12"/>
      <point x="209.29" y="18.4404"/>
      <point x="348.689" y="18.4404" type="curve" smooth="yes"/>
      <point x="403.63" y="18.4404"/>
      <point x="445.45" y="29.0996"/>
      <point x="509.41" y="57.7998" type="curve"/>
      <point x="519.25" y="33.2002" type="line"/>
      <point x="439.71" y="-2.87988"/>
      <point x="398.71" y="-13.54"/>
      <point x="341.31" y="-13.54" type="curve" smooth="yes"/>
      <point x="171.57" y="-13.54"/>
      <point x="40.3701" y="107.82"/>
      <point x="40.3701" y="265.26" type="curve" smooth="yes"/>
      <point x="40.3701" y="425.16"/>
      <point x="173.21" y="552.26"/>
      <point x="339.67" y="552.26" type="curve" smooth="yes"/>
      <point x="491.37" y="552.26"/>
      <point x="608.63" y="447.3"/>
      <point x="608.63" y="312" type="curve" smooth="yes"/>
      <point x="608.63" y="206.22"/>
      <point x="538.93" y="115.2"/>
      <point x="457.75" y="115.2" type="curve" smooth="yes"/>
      <point x="418.39" y="115.2"/>
      <point x="388.05" y="138.98"/>
      <point x="383.13" y="175.06" type="curve"/>
      <point x="355.25" y="138.16"/>
      <point x="316.71" y="116.02"/>
      <point x="280.63" y="116.02" type="curve" smooth="yes"/>
      <point x="240.45" y="116.02"/>
      <point x="208.47" y="156.2"/>
      <point x="208.47" y="207.86" type="curve" smooth="yes"/>
      <point x="208.47" y="298.06"/>
      <point x="272.43" y="414.5"/>
      <point x="369.189" y="414.5" type="curve" smooth="yes"/>
      <point x="397.89" y="414.5"/>
      <point x="410.189" y="405.48"/>
      <point x="428.23" y="371.86" type="curve"/>
      <point x="436.43" y="403.02" type="line"/>
      <point x="493.01" y="403.02" type="line"/>
      <point x="439.71" y="194.74" type="line" smooth="yes"/>
      <point x="438.89" y="189.82"/>
      <point x="438.07" y="185.72"/>
      <point x="438.07" y="179.98" type="curve" smooth="yes"/>
      <point x="438.07" y="154.56"/>
      <point x="448.73" y="142.26"/>
      <point x="470.05" y="142.26" type="curve" smooth="yes"/>
      <point x="524.17" y="142.26"/>
      <point x="575.83" y="221.8"/>
      <point x="575.83" y="303.8" type="curve" smooth="yes"/>
      <point x="575.83" y="425.98"/>
      <point x="469.23" y="526.84"/>
    </contour>
    <contour>
      <point x="414.29" y="330.86" type="curve" smooth="yes"/>
      <point x="414.29" y="368.58"/>
      <point x="393.79" y="378.42"/>
      <point x="378.21" y="378.42" type="curve" smooth="yes"/>
      <point x="340.49" y="378.42"/>
      <point x="266.69" y="318.56"/>
      <point x="266.69" y="220.98" type="curve" smooth="yes"/>
      <point x="266.69" y="178.34"/>
      <point x="285.55" y="151.28"/>
      <point x="315.89" y="151.28" type="curve" smooth="yes"/>
      <point x="372.47" y="151.28"/>
      <point x="414.29" y="264.44"/>
    </contour>
  </outline>
</glyph>
<glyph name="A" format="2">
  <advance width="609"/>
  <unicode hex="0041"/>
  <outline>
    <contour>
      <point x="594.62" y="15.96" type="curve"/>
      <point x="594.62" y="0" type="line"/>
      <point x="380.42" y="0" type="line"/>
      <point x="380.42" y="15.96" type="line"/>
      <point x="424.94" y="16.7998"/>
      <point x="439.221" y="23.5195"/>
      <point x="439.221" y="44.5195" type="curve" smooth="yes"/>
      <point x="439.221" y="56.2803"/>
      <point x="433.34" y="78.1201"/>
      <point x="423.26" y="100.8" type="curve" smooth="yes"/>
      <point x="388.82" y="181.439" type="line"/>
      <point x="168.74" y="181.439" type="line"/>
      <point x="130.101" y="83.1602" type="line" smooth="yes"/>
      <point x="125.9" y="72.2402"/>
      <point x="123.38" y="60.4795"/>
      <point x="123.38" y="50.3994" type="curve" smooth="yes"/>
      <point x="123.38" y="26.8799"/>
      <point x="140.181" y="15.96"/>
      <point x="180.5" y="15.96" type="curve"/>
      <point x="180.5" y="0" type="line"/>
      <point x="14.1807" y="0" type="line"/>
      <point x="14.1807" y="15.96" type="line"/>
      <point x="54.5" y="17.6396"/>
      <point x="66.2598" y="30.2402"/>
      <point x="118.34" y="153.72" type="curve" smooth="yes"/>
      <point x="293.061" y="566.16" type="line"/>
      <point x="309.86" y="566.16" type="line"/>
      <point x="519.021" y="89.04" type="line" smooth="yes"/>
      <point x="546.628" y="26.0635"/>
      <point x="556.82" y="18.4795"/>
    </contour>
    <contour>
      <point x="183.021" y="215.88" type="line"/>
      <point x="377.061" y="215.88" type="line"/>
      <point x="279.62" y="446.88" type="line"/>
    </contour>
  </outline>
</glyph>
<glyph name="B" format="2">
  <advance width="517"/>
  <unicode hex="0042"/>
  <outline>
    <contour>
      <point x="500.28" y="151.2" type="curve" smooth="yes"/>
      <point x="500.28" y="90.7197"/>
      <point x="459.96" y="0"/>
      <point x="297" y="0" type="curve" smooth="yes"/>
      <point x="16.4395" y="0" type="line"/>
      <point x="16.4395" y="15.96" type="line"/>
      <point x="86.1602" y="18.4805"/>
      <point x="97.0801" y="29.4004"/>
      <point x="97.0801" y="91.5596" type="curve" smooth="yes"/>
      <point x="97.0801" y="464.52" type="line" smooth="yes"/>
      <point x="97.0801" y="526.68"/>
      <point x="87" y="535.92"/>
      <point x="16.4395" y="540.12" type="curve"/>
      <point x="16.4395" y="556.08" type="line"/>
      <point x="251.64" y="556.08" type="line" smooth="yes"/>
      <point x="396.96" y="556.08"/>
      <point x="471.72" y="507.36"/>
      <point x="471.72" y="413.28" type="curve" smooth="yes"/>
      <point x="471.72" y="316.68"/>
      <point x="386.04" y="299.88"/>
      <point x="356.64" y="292.32" type="curve"/>
      <point x="390.24" y="283.92"/>
      <point x="500.28" y="260.4"/>
    </contour>
    <contour>
      <point x="235.68" y="31.0801" type="curve" smooth="yes"/>
      <point x="327.24" y="31.0801"/>
      <point x="403.68" y="51.2402"/>
      <point x="403.68" y="150.36" type="curve" smooth="yes"/>
      <point x="403.68" y="269.51"/>
      <point x="295.15" y="273.84"/>
      <point x="182.76" y="273.84" type="curve"/>
      <point x="182.76" y="65.5195" type="line" smooth="yes"/>
      <point x="182.76" y="38.6396"/>
      <point x="194.52" y="31.0801"/>
    </contour>
    <contour>
      <point x="182.76" y="307.44" type="line"/>
      <point x="262.56" y="307.44" type="line" smooth="yes"/>
      <point x="341.52" y="307.44"/>
      <point x="386.04" y="344.4"/>
      <point x="386.04" y="409.92" type="curve" smooth="yes"/>
      <point x="386.04" y="484.68"/>
      <point x="334.8" y="525"/>
      <point x="238.2" y="525" type="curve" smooth="yes"/>
      <point x="201.24" y="525" type="line" smooth="yes"/>
      <point x="188.64" y="525"/>
      <point x="182.76" y="517.44"/>
      <point x="182.76" y="499.8" type="curve" smooth="yes"/>
    </contour>
  </outline>
</glyph>
<glyph name="C" format="2">
  <advance width="533"/>
  <unicode hex="0043"/>
  <outline>
    <contour>
      <point x="11.2598" y="269.2" type="curve" smooth="yes"/>
      <point x="11.2598" y="442.22"/>
      <point x="132.62" y="557.02"/>
      <point x="285.96" y="557.02" type="curve" smooth="yes"/>
      <point x="375.34" y="557.02"/>
      <point x="408.14" y="529.96"/>
      <point x="437.66" y="529.96" type="curve" smooth="yes"/>
      <point x="454.06" y="529.96"/>
      <point x="467.18" y="539.8"/>
      <point x="472.1" y="557.02" type="curve"/>
      <point x="489.319" y="557.02" type="line"/>
      <point x="496.699" y="371.7" type="line"/>
      <point x="477.84" y="371.7" type="line"/>
      <point x="454.88" y="449.6"/>
      <point x="407.319" y="524.22"/>
      <point x="301.54" y="524.22" type="curve" smooth="yes"/>
      <point x="182.64" y="524.22"/>
      <point x="106.38" y="428.28"/>
      <point x="106.38" y="279.86" type="curve" smooth="yes"/>
      <point x="106.38" y="79.7803"/>
      <point x="217.899" y="27.2998"/>
      <point x="309.739" y="27.2998" type="curve" smooth="yes"/>
      <point x="377.8" y="27.2998"/>
      <point x="431.92" y="51.9004"/>
      <point x="492.6" y="110.12" type="curve"/>
      <point x="507.359" y="95.3604" type="line"/>
      <point x="457.34" y="28.9404"/>
      <point x="376.16" y="-8.78027"/>
      <point x="283.5" y="-8.78027" type="curve" smooth="yes"/>
      <point x="122.779" y="-8.78027"/>
      <point x="11.2598" y="101.1"/>
    </contour>
  </outline>
</glyph>
<glyph name="D" format="2">
  <advance width="608"/>
  <unicode hex="0044"/>
  <outline>
    <contour>
      <point x="589.85" y="280.267" type="curve" smooth="yes"/>
      <point x="589.85" y="165.588"/>
      <point x="523.63" y="2.71191"/>
      <point x="258.75" y="2.71191" type="curve" smooth="yes"/>
      <point x="14.5098" y="2.71191" type="line"/>
      <point x="14.5098" y="18.501" type="line"/>
      <point x="79.8701" y="22.6562"/>
      <point x="90.1904" y="33.459"/>
      <point x="90.1904" y="93.291" type="curve" smooth="yes"/>
      <point x="90.1904" y="462.255" type="line" smooth="yes"/>
      <point x="90.1904" y="523.749"/>
      <point x="82.4502" y="531.229"/>
      <point x="14.5098" y="537.045" type="curve"/>
      <point x="14.5098" y="552.834" type="line"/>
      <point x="246.71" y="552.834" type="line" smooth="yes"/>
      <point x="519.33" y="552.834"/>
      <point x="589.85" y="400.761"/>
    </contour>
    <contour>
      <point x="496.11" y="274.449" type="curve" smooth="yes"/>
      <point x="496.11" y="385.803"/>
      <point x="441.07" y="522.087"/>
      <point x="222.63" y="522.087" type="curve" smooth="yes"/>
      <point x="187.37" y="522.087"/>
      <point x="177.91" y="515.439"/>
      <point x="177.91" y="489.678" type="curve" smooth="yes"/>
      <point x="177.91" y="67.5303" type="line" smooth="yes"/>
      <point x="177.91" y="40.9385"/>
      <point x="188.23" y="33.459"/>
      <point x="222.63" y="33.459" type="curve" smooth="yes"/>
      <point x="384.31" y="33.459"/>
      <point x="496.11" y="94.1221"/>
    </contour>
  </outline>
</glyph>
<glyph name="E" format="2">
  <advance width="515"/>
  <unicode hex="0045"/>
  <outline>
    <contour>
      <point x="169.5" y="66.7695" type="line" smooth="yes"/>
      <point x="169.5" y="34.4697"/>
      <point x="175.258" y="30.2197"/>
      <point x="255.862" y="30.2197" type="curve" smooth="yes"/>
      <point x="278.07" y="30.2197" type="line" smooth="yes"/>
      <point x="395.688" y="30.2197"/>
      <point x="431.055" y="50.6201"/>
      <point x="472.18" y="142.42" type="curve"/>
      <point x="495.21" y="142.42" type="line"/>
      <point x="458.197" y="-1.23047" type="line"/>
      <point x="14.0479" y="-1.23047" type="line"/>
      <point x="14.0479" y="14.9199" type="line"/>
      <point x="74.0898" y="19.1699"/>
      <point x="85.6055" y="31.9199"/>
      <point x="85.6055" y="91.4199" type="curve" smooth="yes"/>
      <point x="85.6055" y="468.82" type="line" smooth="yes"/>
      <point x="85.6055" y="528.32"/>
      <point x="74.9121" y="540.22"/>
      <point x="14.0479" y="545.32" type="curve"/>
      <point x="14.0479" y="561.47" type="line"/>
      <point x="450.795" y="561.47" type="line"/>
      <point x="453.263" y="439.92" type="line"/>
      <point x="432.7" y="439.92" type="line"/>
      <point x="418.718" y="516.42"/>
      <point x="400.622" y="529.17"/>
      <point x="307.68" y="529.17" type="curve" smooth="yes"/>
      <point x="196.643" y="529.17" type="line" smooth="yes"/>
      <point x="174.435" y="529.17"/>
      <point x="169.5" y="524.07"/>
      <point x="169.5" y="500.27" type="curve" smooth="yes"/>
      <point x="169.5" y="311.57" type="line"/>
      <point x="296.165" y="311.57" type="line" smooth="yes"/>
      <point x="372.657" y="311.57"/>
      <point x="377.593" y="336.22"/>
      <point x="386.64" y="392.32" type="curve"/>
      <point x="405.558" y="392.32" type="line"/>
      <point x="405.558" y="195.12" type="line"/>
      <point x="386.64" y="195.12" type="line"/>
      <point x="375.947" y="265.67"/>
      <point x="363.61" y="276.72"/>
      <point x="296.165" y="276.72" type="curve" smooth="yes"/>
      <point x="169.5" y="276.72" type="line"/>
    </contour>
  </outline>
</glyph>
<glyph name="F" format="2">
  <advance width="475"/>
  <unicode hex="0046"/>
  <outline>
    <contour>
      <point x="408.298" y="196.545" type="line"/>
      <point x="388.914" y="196.545" type="line"/>
      <point x="378.801" y="264.811"/>
      <point x="364.473" y="277.453"/>
      <point x="296.206" y="277.453" type="curve" smooth="yes"/>
      <point x="174" y="277.453" type="line"/>
      <point x="174" y="102.15" type="line" smooth="yes"/>
      <point x="174" y="33.4629"/>
      <point x="185.799" y="21.2412"/>
      <point x="250.694" y="17.8711" type="curve"/>
      <point x="250.694" y="1.85742" type="line"/>
      <point x="14.7109" y="1.85742" type="line"/>
      <point x="14.7109" y="17.8711" type="line"/>
      <point x="78.7637" y="22.084"/>
      <point x="88.0342" y="33.041"/>
      <point x="88.0342" y="102.994" type="curve" smooth="yes"/>
      <point x="88.0342" y="467.926" type="line" smooth="yes"/>
      <point x="88.0342" y="526.922"/>
      <point x="77.0771" y="538.721"/>
      <point x="14.7109" y="543.777" type="curve"/>
      <point x="14.7109" y="559.791" type="line"/>
      <point x="462.237" y="559.791" type="line"/>
      <point x="464.766" y="439.271" type="line"/>
      <point x="443.696" y="439.271" type="line"/>
      <point x="429.368" y="515.122"/>
      <point x="410.827" y="527.765"/>
      <point x="315.591" y="527.765" type="curve" smooth="yes"/>
      <point x="200.97" y="527.765" type="line" smooth="yes"/>
      <point x="178.214" y="527.765"/>
      <point x="174" y="522.707"/>
      <point x="174" y="499.109" type="curve" smooth="yes"/>
      <point x="174" y="312.008" type="line"/>
      <point x="296.206" y="312.008" type="line" smooth="yes"/>
      <point x="363.63" y="312.008"/>
      <point x="378.801" y="324.649"/>
      <point x="388.914" y="392.073" type="curve"/>
      <point x="408.298" y="392.073" type="line"/>
    </contour>
  </outline>
</glyph>
<glyph name="G" format="2">
  <advance width="582"/>
  <unicode hex="0047"/>
  <outline>
    <contour>
      <point x="308.82" y="532.88" type="curve" smooth="yes"/>
      <point x="145.31" y="532.88"/>
      <point x="104.64" y="377.67"/>
      <point x="104.64" y="275.58" type="curve" smooth="yes"/>
      <point x="104.64" y="121.2"/>
      <point x="187.64" y="26.5801"/>
      <point x="322.93" y="26.5801" type="curve" smooth="yes"/>
      <point x="382.689" y="26.5801"/>
      <point x="433.32" y="48.9902"/>
      <point x="433.32" y="75.5498" type="curve" smooth="yes"/>
      <point x="433.32" y="210.01" type="line" smooth="yes"/>
      <point x="433.32" y="273.92"/>
      <point x="420.87" y="279.73"/>
      <point x="360.28" y="283.88" type="curve"/>
      <point x="360.28" y="298.82" type="line"/>
      <point x="571.93" y="298.82" type="line"/>
      <point x="571.93" y="283.88" type="line"/>
      <point x="523.79" y="279.73"/>
      <point x="513.83" y="268.94"/>
      <point x="513.83" y="219.97" type="curve" smooth="yes"/>
      <point x="513.83" y="51.4805" type="line"/>
      <point x="480.63" y="22.4297"/>
      <point x="376.88" y="-6.62012"/>
      <point x="305.5" y="-6.62012" type="curve" smooth="yes"/>
      <point x="192.62" y="-6.62012"/>
      <point x="10.0195" y="49.8203"/>
      <point x="10.0195" y="274.75" type="curve" smooth="yes"/>
      <point x="10.0195" y="444.07"/>
      <point x="128.71" y="566.08"/>
      <point x="294.71" y="566.08" type="curve" smooth="yes"/>
      <point x="377.71" y="566.08"/>
      <point x="415.06" y="538.69"/>
      <point x="444.109" y="538.69" type="curve" smooth="yes"/>
      <point x="461.54" y="538.69"/>
      <point x="476.479" y="550.31"/>
      <point x="481.46" y="566.08" type="curve"/>
      <point x="499.72" y="566.08" type="line"/>
      <point x="506.359" y="390.95" type="line"/>
      <point x="487.27" y="390.95" type="line"/>
      <point x="459.05" y="459.01"/>
      <point x="416.72" y="532.88"/>
    </contour>
  </outline>
</glyph>
<glyph name="H" format="2">
  <advance width="600"/>
  <unicode hex="0048"/>
  <outline>
    <contour>
      <point x="171.699" y="305.15" type="line"/>
      <point x="429.25" y="305.15" type="line"/>
      <point x="429.25" y="470.05" type="line" smooth="yes"/>
      <point x="429.25" y="531.25"/>
      <point x="419.899" y="540.6"/>
      <point x="354.449" y="546.55" type="curve"/>
      <point x="354.449" y="562.7" type="line"/>
      <point x="590.75" y="562.7" type="line"/>
      <point x="590.75" y="546.55" type="line"/>
      <point x="525.3" y="540.6"/>
      <point x="515.949" y="531.25"/>
      <point x="515.949" y="470.05" type="curve" smooth="yes"/>
      <point x="515.949" y="92.6504" type="line" smooth="yes"/>
      <point x="515.949" y="32.2998"/>
      <point x="527" y="21.25"/>
      <point x="590.75" y="16.1504" type="curve"/>
      <point x="590.75" y="0" type="line"/>
      <point x="354.449" y="0" type="line"/>
      <point x="354.449" y="16.1504" type="line"/>
      <point x="420.75" y="20.4004"/>
      <point x="429.25" y="30.5996"/>
      <point x="429.25" y="102" type="curve" smooth="yes"/>
      <point x="429.25" y="267.75" type="line"/>
      <point x="171.699" y="267.75" type="line"/>
      <point x="171.699" y="92.6504" type="line" smooth="yes"/>
      <point x="171.699" y="32.2998"/>
      <point x="182.75" y="21.25"/>
      <point x="246.5" y="16.1504" type="curve"/>
      <point x="246.5" y="0" type="line"/>
      <point x="10.1992" y="0" type="line"/>
      <point x="10.1992" y="16.1504" type="line"/>
      <point x="76.5" y="20.4004"/>
      <point x="85" y="30.5996"/>
      <point x="85" y="102" type="curve" smooth="yes"/>
      <point x="85" y="470.05" type="line" smooth="yes"/>
      <point x="85" y="531.25"/>
      <point x="75.6494" y="540.6"/>
      <point x="10.1992" y="546.55" type="curve"/>
      <point x="10.1992" y="562.7" type="line"/>
      <point x="246.5" y="562.7" type="line"/>
      <point x="246.5" y="546.55" type="line"/>
      <point x="181.05" y="540.6"/>
      <point x="171.699" y="531.25"/>
      <point x="171.699" y="470.05" type="curve" smooth="yes"/>
    </contour>
  </outline>
</glyph>
<glyph name="I" format="2">
  <advance width="272"/>
  <unicode hex="0049"/>
  <outline>
    <contour>
      <point x="93.5" y="91.5596" type="curve" smooth="yes"/>
      <point x="93.5" y="464.52" type="line" smooth="yes"/>
      <point x="93.5" y="526.68"/>
      <point x="83.4199" y="535.92"/>
      <point x="12.0205" y="540.12" type="curve"/>
      <point x="12.0205" y="556.08" type="line"/>
      <point x="261.5" y="556.08" type="line"/>
      <point x="261.5" y="540.12" type="line"/>
      <point x="190.94" y="536.76"/>
      <point x="179.181" y="525.84"/>
      <point x="179.181" y="464.52" type="curve" smooth="yes"/>
      <point x="179.181" y="91.5596" type="line" smooth="yes"/>
      <point x="179.181" y="30.2393"/>
      <point x="192.62" y="18.4795"/>
      <point x="261.5" y="15.96" type="curve"/>
      <point x="261.5" y="-0" type="line"/>
      <point x="12.0205" y="-0" type="line"/>
      <point x="12.0205" y="15.96" type="line"/>
      <point x="82.5801" y="18.4795"/>
      <point x="93.5" y="28.5596"/>
    </contour>
  </outline>
</glyph>
<glyph name="J" format="2">
  <advance width="297"/>
  <unicode hex="004A"/>
  <outline>
    <contour>
      <point x="50.4912" y="94.1016" type="curve" smooth="yes"/>
      <point x="95.9014" y="94.1016"/>
      <point x="82.5" y="23.3066"/>
      <point x="109.301" y="23.3066" type="curve" smooth="yes"/>
      <point x="128.656" y="23.3066"/>
      <point x="137.59" y="41.0059"/>
      <point x="137.59" y="78.9326" type="curve" smooth="yes"/>
      <point x="137.59" y="469.148" type="line" smooth="yes"/>
      <point x="137.59" y="530.673"/>
      <point x="129.4" y="539.943"/>
      <point x="68.3564" y="545" type="curve"/>
      <point x="68.3564" y="561.014" type="line"/>
      <point x="282.011" y="561.014" type="line"/>
      <point x="282.011" y="545" type="line"/>
      <point x="221.712" y="539.943"/>
      <point x="213.523" y="530.673"/>
      <point x="213.523" y="469.148" type="curve" smooth="yes"/>
      <point x="213.523" y="157.312" type="line" smooth="yes"/>
      <point x="213.523" y="51.9619"/>
      <point x="168.111" y="-8.71973"/>
      <point x="87.7119" y="-8.71973" type="curve" smooth="yes"/>
      <point x="44.5342" y="-8.71973"/>
      <point x="14.0117" y="16.5645"/>
      <point x="14.0117" y="51.9619" type="curve" smooth="yes"/>
      <point x="14.0117" y="74.7178"/>
      <point x="30.3906" y="94.1016"/>
    </contour>
  </outline>
</glyph>
<glyph name="K" format="2">
  <advance width="612"/>
  <unicode hex="004B"/>
  <outline>
    <contour>
      <point x="336" y="546.55" type="curve"/>
      <point x="336" y="562.699" type="line"/>
      <point x="558.7" y="562.699" type="line"/>
      <point x="558.7" y="546.55" type="line"/>
      <point x="500.899" y="542.3"/>
      <point x="486.45" y="536.35"/>
      <point x="429.5" y="480.25" type="curve" smooth="yes"/>
      <point x="268" y="320.449" type="line"/>
      <point x="466.05" y="107.949" type="line" smooth="yes"/>
      <point x="543.399" y="25.5"/>
      <point x="555.3" y="17"/>
      <point x="599.5" y="16.1494" type="curve"/>
      <point x="599.5" y="0" type="line"/>
      <point x="340.25" y="0" type="line"/>
      <point x="340.25" y="16.1494" type="line"/>
      <point x="363.036" y="18.0488"/>
      <point x="399.75" y="17.8496"/>
      <point x="399.75" y="35.6992" type="curve" smooth="yes"/>
      <point x="399.75" y="56.0996"/>
      <point x="353.85" y="116.449"/>
      <point x="289.25" y="180.199" type="curve" smooth="yes"/>
      <point x="199.149" y="269.449" type="line"/>
      <point x="177.05" y="251.6" type="line"/>
      <point x="177.05" y="92.6494" type="line" smooth="yes"/>
      <point x="177.05" y="30.5996"/>
      <point x="187.25" y="20.3994"/>
      <point x="253.55" y="16.1494" type="curve"/>
      <point x="253.55" y="0" type="line"/>
      <point x="13.8496" y="0" type="line"/>
      <point x="13.8496" y="16.1494" type="line"/>
      <point x="81" y="20.3994"/>
      <point x="90.3496" y="31.4492"/>
      <point x="90.3496" y="102" type="curve" smooth="yes"/>
      <point x="90.3496" y="470.05" type="line" smooth="yes"/>
      <point x="90.3496" y="530.399"/>
      <point x="80.1494" y="541.449"/>
      <point x="13.8496" y="546.55" type="curve"/>
      <point x="13.8496" y="562.699" type="line"/>
      <point x="255.25" y="562.699" type="line"/>
      <point x="255.25" y="546.55" type="line"/>
      <point x="186.399" y="541.449"/>
      <point x="177.05" y="532.1"/>
      <point x="177.05" y="470.05" type="curve" smooth="yes"/>
      <point x="177.05" y="295.8" type="line"/>
      <point x="327.5" y="432.649" type="line" smooth="yes"/>
      <point x="374.25" y="476"/>
      <point x="393.8" y="501.5"/>
      <point x="393.8" y="520.199" type="curve" smooth="yes"/>
      <point x="393.8" y="537.199"/>
      <point x="383.6" y="544"/>
      <point x="358.1" y="545.699" type="curve" smooth="yes"/>
      <point x="354.7" y="545.699"/>
      <point x="346.2" y="545.699"/>
    </contour>
  </outline>
</glyph>
<glyph name="L" format="2">
  <advance width="520"/>
  <unicode hex="004C"/>
  <outline>
    <contour>
      <point x="303.4" y="33.1504" type="line" smooth="yes"/>
      <point x="452.15" y="33.1504"/>
      <point x="472.55" y="108.8"/>
      <point x="489.55" y="147.9" type="curve"/>
      <point x="510.8" y="147.9" type="line"/>
      <point x="470" y="0" type="line"/>
      <point x="12.7002" y="0" type="line"/>
      <point x="12.7002" y="16.1504" type="line"/>
      <point x="74.75" y="20.4004"/>
      <point x="86.6504" y="33.1504"/>
      <point x="86.6504" y="92.6504" type="curve" smooth="yes"/>
      <point x="86.6504" y="470.05" type="line" smooth="yes"/>
      <point x="86.6504" y="529.55"/>
      <point x="75.6006" y="541.45"/>
      <point x="12.7002" y="546.55" type="curve"/>
      <point x="12.7002" y="562.7" type="line"/>
      <point x="252.4" y="562.7" type="line"/>
      <point x="252.4" y="546.55" type="line"/>
      <point x="185.25" y="542.3"/>
      <point x="173.351" y="530.4"/>
      <point x="173.351" y="470.05" type="curve" smooth="yes"/>
      <point x="173.351" y="68" type="line" smooth="yes"/>
      <point x="173.351" y="38.25"/>
      <point x="184.4" y="33.1504"/>
      <point x="246.45" y="33.1504" type="curve" smooth="yes"/>
    </contour>
  </outline>
</glyph>
<glyph name="M" format="2">
  <advance width="711"/>
  <unicode hex="004D"/>
  <outline>
    <contour>
      <point x="546.9" y="482.925" type="line"/>
      <point x="340.5" y="0" type="line"/>
      <point x="329.213" y="0" type="line"/>
      <point x="126.845" y="463.54" type="line"/>
      <point x="126.845" y="123.892" type="line" smooth="yes"/>
      <point x="126.845" y="38.7686"/>
      <point x="140.55" y="19.3848"/>
      <point x="202.632" y="16.0137" type="curve"/>
      <point x="202.632" y="0" type="line"/>
      <point x="13.1621" y="0" type="line"/>
      <point x="13.1621" y="16.0137" type="line"/>
      <point x="80.0811" y="21.0703"/>
      <point x="91.3691" y="37.084"/>
      <point x="91.3691" y="123.892" type="curve" smooth="yes"/>
      <point x="91.3691" y="466.069" type="line" smooth="yes"/>
      <point x="91.3691" y="527.594"/>
      <point x="80.8877" y="537.707"/>
      <point x="14.7754" y="541.921" type="curve"/>
      <point x="14.7754" y="557.935" type="line"/>
      <point x="174.412" y="557.935" type="line"/>
      <point x="360.656" y="132.319" type="line"/>
      <point x="538.838" y="557.935" type="line"/>
      <point x="699.281" y="557.935" type="line"/>
      <point x="699.281" y="541.921" type="line"/>
      <point x="639.619" y="536.864"/>
      <point x="629.138" y="525.907"/>
      <point x="629.138" y="466.069" type="curve" smooth="yes"/>
      <point x="629.138" y="91.8662" type="line" smooth="yes"/>
      <point x="629.138" y="32.0264"/>
      <point x="640.425" y="20.2275"/>
      <point x="699.281" y="16.0137" type="curve"/>
      <point x="699.281" y="0" type="line"/>
      <point x="473.532" y="0" type="line"/>
      <point x="473.532" y="16.0137" type="line"/>
      <point x="537.225" y="20.2275"/>
      <point x="546.9" y="31.1846"/>
      <point x="546.9" y="101.137" type="curve" smooth="yes"/>
    </contour>
  </outline>
</glyph>
<glyph name="N" format="2">
  <advance width="612"/>
  <unicode hex="004E"/>
  <outline>
    <contour>
      <point x="601.25" y="542.305" type="line"/>
      <point x="549.4" y="537.205"/>
      <point x="520.5" y="532.955"/>
      <point x="520.5" y="433.505" type="curve" smooth="yes"/>
      <point x="520.5" y="-13.5947" type="line"/>
      <point x="506.051" y="-13.5947" type="line"/>
      <point x="130.351" y="453.905" type="line"/>
      <point x="130.351" y="120.705" type="line" smooth="yes"/>
      <point x="130.351" y="34.8555"/>
      <point x="144.801" y="15.3047"/>
      <point x="210.25" y="11.9053" type="curve"/>
      <point x="210.25" y="-4.24512" type="line"/>
      <point x="10.5" y="-4.24512" type="line"/>
      <point x="10.5" y="11.9053" type="line"/>
      <point x="81.0508" y="17.0049"/>
      <point x="92.9502" y="33.1553"/>
      <point x="92.9502" y="120.705" type="curve" smooth="yes"/>
      <point x="92.9502" y="495.555" type="line"/>
      <point x="58.9502" y="535.505"/>
      <point x="47.0508" y="542.305"/>
      <point x="10.5" y="542.305" type="curve"/>
      <point x="10.5" y="558.455" type="line"/>
      <point x="155.851" y="558.455" type="line"/>
      <point x="483.101" y="147.055" type="line"/>
      <point x="483.101" y="433.505" type="line" smooth="yes"/>
      <point x="483.101" y="521.905"/>
      <point x="466.95" y="537.205"/>
      <point x="401.5" y="542.305" type="curve"/>
      <point x="401.5" y="558.455" type="line"/>
      <point x="601.25" y="558.455" type="line"/>
    </contour>
  </outline>
</glyph>
<glyph name="O" format="2">
  <advance width="535"/>
  <unicode hex="004F"/>
  <outline>
    <contour>
      <point x="263.042" y="-10.9922" type="curve" smooth="yes"/>
      <point x="126.66" y="-10.9922"/>
      <point x="12.8789" y="101.475"/>
      <point x="12.8789" y="276.422" type="curve" smooth="yes"/>
      <point x="12.8789" y="443.872"/>
      <point x="118.867" y="563.836"/>
      <point x="267.719" y="563.836" type="curve" smooth="yes"/>
      <point x="415.791" y="563.836"/>
      <point x="522.559" y="447.205"/>
      <point x="522.559" y="273.09" type="curve" smooth="yes"/>
      <point x="522.559" y="105.64"/>
      <point x="416.57" y="-10.9922"/>
    </contour>
    <contour>
      <point x="433.715" y="273.923" type="curve" smooth="yes"/>
      <point x="433.715" y="481.361"/>
      <point x="336.299" y="533.846"/>
      <point x="267.719" y="533.846" type="curve" smooth="yes"/>
      <point x="133.674" y="533.846"/>
      <point x="101.722" y="378.059"/>
      <point x="101.722" y="274.756" type="curve" smooth="yes"/>
      <point x="101.722" y="173.953"/>
      <point x="134.454" y="18.999"/>
      <point x="266.16" y="18.999" type="curve" smooth="yes"/>
      <point x="400.205" y="18.999"/>
      <point x="433.715" y="173.953"/>
    </contour>
  </outline>
</glyph>
<glyph name="P" format="2">
  <advance width="478"/>
  <unicode hex="0050"/>
  <outline>
    <contour>
      <point x="463.101" y="408.85" type="curve" smooth="yes"/>
      <point x="463.101" y="343.4"/>
      <point x="428.25" y="244.8"/>
      <point x="232.75" y="244.8" type="curve" smooth="yes"/>
      <point x="210.65" y="244.8"/>
      <point x="196.2" y="245.65"/>
      <point x="174.101" y="247.35" type="curve"/>
      <point x="174.101" y="92.6504" type="line" smooth="yes"/>
      <point x="174.101" y="30.5996"/>
      <point x="186.851" y="18.7002"/>
      <point x="254" y="16.1504" type="curve"/>
      <point x="254" y="0" type="line"/>
      <point x="16" y="0" type="line"/>
      <point x="16" y="16.1504" type="line"/>
      <point x="80.6006" y="22.0996"/>
      <point x="87.4004" y="30.5996"/>
      <point x="87.4004" y="102" type="curve" smooth="yes"/>
      <point x="87.4004" y="470.05" type="line" smooth="yes"/>
      <point x="87.4004" y="531.25"/>
      <point x="78.9004" y="539.75"/>
      <point x="16" y="546.55" type="curve"/>
      <point x="16" y="562.7" type="line"/>
      <point x="240.4" y="562.7" type="line" smooth="yes"/>
      <point x="332.2" y="562.7"/>
      <point x="463.101" y="532.1"/>
    </contour>
    <contour>
      <point x="174.101" y="502.35" type="curve" smooth="yes"/>
      <point x="174.101" y="281.35" type="line"/>
      <point x="193.65" y="279.65"/>
      <point x="205.55" y="278.8"/>
      <point x="222.55" y="278.8" type="curve" smooth="yes"/>
      <point x="320.3" y="278.8"/>
      <point x="370.45" y="321.3"/>
      <point x="370.45" y="403.75" type="curve" smooth="yes"/>
      <point x="370.45" y="491.3"/>
      <point x="317.75" y="531.25"/>
      <point x="203" y="531.25" type="curve" smooth="yes"/>
      <point x="180.05" y="531.25"/>
      <point x="174.101" y="525.3"/>
    </contour>
  </outline>
</glyph>
<glyph name="Q" format="2">
  <advance width="636"/>
  <unicode hex="0051"/>
  <outline>
    <contour>
      <point x="610.876" y="266.236" type="curve" smooth="yes"/>
      <point x="610.876" y="32.6855"/>
      <point x="420.815" y="-17.4844"/>
      <point x="371.473" y="-26.1338" type="curve"/>
      <point x="445.487" y="-116.959"/>
      <point x="518.587" y="-155.019"/>
      <point x="622.754" y="-157.614" type="curve"/>
      <point x="622.754" y="-173.184" type="line"/>
      <point x="608.363" y="-174.049"/>
      <point x="600.824" y="-174.049"/>
      <point x="585.291" y="-174.049" type="curve" smooth="yes"/>
      <point x="344.975" y="-174.049"/>
      <point x="275.529" y="-76.3037"/>
      <point x="224.359" y="-20.9443" type="curve"/>
      <point x="119.278" y="12.791"/>
      <point x="13.2832" y="93.2363"/>
      <point x="13.2832" y="264.506" type="curve" smooth="yes"/>
      <point x="13.2832" y="440.101"/>
      <point x="137.553" y="564.661"/>
      <point x="312.079" y="564.661" type="curve" smooth="yes"/>
      <point x="486.605" y="564.661"/>
      <point x="610.876" y="440.101"/>
    </contour>
    <contour>
      <point x="506.708" y="267.966" type="curve" smooth="yes"/>
      <point x="506.708" y="429.721"/>
      <point x="429.953" y="533.521"/>
      <point x="314.82" y="533.521" type="curve" smooth="yes"/>
      <point x="156.742" y="533.521"/>
      <point x="117.45" y="374.361"/>
      <point x="117.45" y="269.696" type="curve" smooth="yes"/>
      <point x="117.45" y="55.1758"/>
      <point x="228.928" y="-1.04883"/>
      <point x="312.079" y="-1.04883" type="curve" smooth="yes"/>
      <point x="467.417" y="-1.04883"/>
      <point x="506.708" y="158.976"/>
    </contour>
  </outline>
</glyph>
<glyph name="R" format="2">
  <advance width="569"/>
  <unicode hex="0052"/>
  <outline>
    <contour>
      <point x="246.534" y="557.935" type="line" smooth="yes"/>
      <point x="329.129" y="557.935"/>
      <point x="460.605" y="536.021"/>
      <point x="460.605" y="409.602" type="curve" smooth="yes"/>
      <point x="460.605" y="293.295"/>
      <point x="342.613" y="275.596"/>
      <point x="308.059" y="268.854" type="curve"/>
      <point x="481.676" y="55.625" type="line"/>
      <point x="506.116" y="26.9697"/>
      <point x="522.973" y="18.542"/>
      <point x="555" y="16.0137" type="curve"/>
      <point x="555" y="0" type="line"/>
      <point x="419.309" y="0" type="line"/>
      <point x="218.722" y="259.583" type="line"/>
      <point x="171.525" y="257.897" type="line"/>
      <point x="171.525" y="91.8662" type="line" smooth="yes"/>
      <point x="171.525" y="31.1846"/>
      <point x="182.482" y="20.2275"/>
      <point x="247.377" y="16.0137" type="curve"/>
      <point x="247.377" y="0" type="line"/>
      <point x="13.9219" y="0" type="line"/>
      <point x="13.9219" y="16.0137" type="line"/>
      <point x="77.1318" y="21.0703"/>
      <point x="85.5596" y="31.1846"/>
      <point x="85.5596" y="101.137" type="curve" smooth="yes"/>
      <point x="85.5596" y="466.069" type="line" smooth="yes"/>
      <point x="85.5596" y="525.907"/>
      <point x="77.1318" y="535.178"/>
      <point x="13.9219" y="541.92" type="curve"/>
      <point x="13.9219" y="557.935" type="line"/>
    </contour>
    <contour>
      <point x="171.525" y="289.08" type="line"/>
      <point x="296.26" y="291.608"/>
      <point x="368.74" y="312.679"/>
      <point x="368.74" y="411.286" type="curve" smooth="yes"/>
      <point x="368.74" y="490.51"/>
      <point x="319.858" y="526.75"/>
      <point x="214.508" y="526.75" type="curve" smooth="yes"/>
      <point x="180.796" y="526.75"/>
      <point x="171.525" y="520.008"/>
      <point x="171.525" y="496.41" type="curve" smooth="yes"/>
    </contour>
  </outline>
</glyph>
<glyph name="S" format="2">
  <advance width="393"/>
  <unicode hex="0053"/>
  <outline>
    <contour>
      <point x="295.99" y="114.67" type="curve" smooth="yes"/>
      <point x="295.99" y="256.601"/>
      <point x="31.2197" y="251.62"/>
      <point x="31.2197" y="421.771" type="curve" smooth="yes"/>
      <point x="31.2197" y="509.75"/>
      <point x="100.94" y="563.7"/>
      <point x="174.811" y="563.7" type="curve" smooth="yes"/>
      <point x="236.23" y="563.7"/>
      <point x="273.58" y="535.48"/>
      <point x="299.311" y="535.48" type="curve" smooth="yes"/>
      <point x="313.42" y="535.48"/>
      <point x="322.55" y="544.61"/>
      <point x="325.87" y="563.7" type="curve"/>
      <point x="343.3" y="563.7" type="line"/>
      <point x="361.561" y="386.91" type="line"/>
      <point x="340.811" y="386.91" type="line"/>
      <point x="312.59" y="489.83"/>
      <point x="249.51" y="529.67"/>
      <point x="188.92" y="529.67" type="curve" smooth="yes"/>
      <point x="137.46" y="529.67"/>
      <point x="102.601" y="498.13"/>
      <point x="102.601" y="452.48" type="curve" smooth="yes"/>
      <point x="102.601" y="407.66"/>
      <point x="137.46" y="371.141"/>
      <point x="224.61" y="323" type="curve"/>
      <point x="334.17" y="264.07"/>
      <point x="379.82" y="210.12"/>
      <point x="379.82" y="142.061" type="curve" smooth="yes"/>
      <point x="379.82" y="56.5703"/>
      <point x="305.95" y="-9"/>
      <point x="210.5" y="-9" type="curve" smooth="yes"/>
      <point x="138.29" y="-9"/>
      <point x="104.26" y="19.2207"/>
      <point x="73.5498" y="19.2207" type="curve" smooth="yes"/>
      <point x="61.1006" y="19.2207"/>
      <point x="51.1406" y="7.60059"/>
      <point x="50.3105" y="-8.16992" type="curve"/>
      <point x="32.0498" y="-8.16992" type="line"/>
      <point x="7.15039" y="167.79" type="line"/>
      <point x="26.2402" y="167.79" type="line"/>
      <point x="67.7402" y="66.5303"/>
      <point x="120.03" y="20.8799"/>
      <point x="193.9" y="20.8799" type="curve" smooth="yes"/>
      <point x="254.49" y="20.8799"/>
      <point x="295.99" y="59.0605"/>
    </contour>
  </outline>
</glyph>
<glyph name="T" format="2">
  <advance width="473"/>
  <unicode hex="0054"/>
  <outline>
    <contour>
      <point x="196" y="520.408" type="line"/>
      <point x="152.8" y="520.408" type="line" smooth="yes"/>
      <point x="63.2002" y="520.408"/>
      <point x="44.7998" y="504.448"/>
      <point x="25.5996" y="412.888" type="curve"/>
      <point x="6.40039" y="412.888" type="line"/>
      <point x="11.2002" y="555.688" type="line"/>
      <point x="462.4" y="555.688" type="line"/>
      <point x="467.2" y="412.888" type="line"/>
      <point x="448" y="412.888" type="line"/>
      <point x="429.6" y="505.288"/>
      <point x="412" y="520.408"/>
      <point x="320.8" y="520.408" type="curve" smooth="yes"/>
      <point x="277.6" y="520.408" type="line"/>
      <point x="277.6" y="91.168" type="line" smooth="yes"/>
      <point x="277.6" y="29.8477"/>
      <point x="288.8" y="18.9277"/>
      <point x="354.4" y="15.5684" type="curve"/>
      <point x="354.4" y="-0.391602" type="line"/>
      <point x="120.8" y="-0.391602" type="line"/>
      <point x="120.8" y="15.5684" type="line"/>
      <point x="187.2" y="19.7676"/>
      <point x="196" y="29.0078"/>
      <point x="196" y="100.408" type="curve" smooth="yes"/>
    </contour>
  </outline>
</glyph>
<glyph name="U" format="2">
  <advance width="597"/>
  <unicode hex="0055"/>
  <outline>
    <contour>
      <point x="167.34" y="197.224" type="line" smooth="yes"/>
      <point x="167.34" y="94.7441"/>
      <point x="195.899" y="26.7041"/>
      <point x="311.819" y="26.7041" type="curve" smooth="yes"/>
      <point x="374.819" y="26.7041"/>
      <point x="428.58" y="52.7441"/>
      <point x="451.26" y="93.0645" type="curve" smooth="yes"/>
      <point x="464.7" y="118.264"/>
      <point x="470.58" y="150.184"/>
      <point x="470.58" y="207.304" type="curve" smooth="yes"/>
      <point x="470.58" y="434.104" type="line" smooth="yes"/>
      <point x="470.58" y="518.104"/>
      <point x="457.14" y="536.584"/>
      <point x="391.62" y="541.624" type="curve"/>
      <point x="391.62" y="557.584" type="line"/>
      <point x="586.5" y="557.584" type="line"/>
      <point x="586.5" y="541.624" type="line"/>
      <point x="517.62" y="533.224"/>
      <point x="507.54" y="519.784"/>
      <point x="507.54" y="434.104" type="curve" smooth="yes"/>
      <point x="507.54" y="214.864" type="line" smooth="yes"/>
      <point x="507.54" y="94.7441"/>
      <point x="472.26" y="-10.2559"/>
      <point x="292.5" y="-10.2559" type="curve" smooth="yes"/>
      <point x="149.7" y="-10.2559"/>
      <point x="81.6602" y="58.624"/>
      <point x="81.6602" y="203.944" type="curve" smooth="yes"/>
      <point x="81.6602" y="466.024" type="line" smooth="yes"/>
      <point x="81.6602" y="527.344"/>
      <point x="72.4199" y="536.584"/>
      <point x="6.05957" y="541.624" type="curve"/>
      <point x="6.05957" y="557.584" type="line"/>
      <point x="243.78" y="557.584" type="line"/>
      <point x="243.78" y="541.624" type="line"/>
      <point x="176.58" y="535.744"/>
      <point x="167.34" y="526.504"/>
      <point x="167.34" y="466.024" type="curve" smooth="yes"/>
    </contour>
  </outline>
</glyph>
<glyph name="V" format="2">
  <advance width="598"/>
  <unicode hex="0056"/>
  <outline>
    <contour>
      <point x="588.399" y="556.021" type="line"/>
      <point x="588.399" y="540.061" type="line"/>
      <point x="547.6" y="537.54"/>
      <point x="537.399" y="529.141"/>
      <point x="510.199" y="461.94" type="curve" smooth="yes"/>
      <point x="321.5" y="-8.2998" type="line"/>
      <point x="308.75" y="-8.2998" type="line"/>
      <point x="99.6494" y="451.86" type="line" smooth="yes"/>
      <point x="65.6494" y="527.46"/>
      <point x="51.1992" y="538.38"/>
      <point x="9.5498" y="540.061" type="curve"/>
      <point x="9.5498" y="556.021" type="line"/>
      <point x="235.649" y="556.021" type="line"/>
      <point x="235.649" y="540.061" type="line"/>
      <point x="223.75" y="539.221"/>
      <point x="214.399" y="538.38"/>
      <point x="211" y="538.38" type="curve" smooth="yes"/>
      <point x="183.8" y="536.7"/>
      <point x="171.899" y="528.301"/>
      <point x="171.899" y="512.341" type="curve" smooth="yes"/>
      <point x="171.899" y="499.74"/>
      <point x="178.699" y="480.421"/>
      <point x="206.75" y="419.101" type="curve" smooth="yes"/>
      <point x="335.1" y="136.181" type="line"/>
      <point x="460.05" y="443.46" type="line" smooth="yes"/>
      <point x="470.25" y="468.66"/>
      <point x="476.199" y="491.341"/>
      <point x="476.199" y="504.78" type="curve" smooth="yes"/>
      <point x="476.199" y="528.301"/>
      <point x="460.899" y="537.54"/>
      <point x="414.149" y="540.061" type="curve"/>
      <point x="414.149" y="556.021" type="line"/>
    </contour>
  </outline>
</glyph>
<glyph name="W" format="2">
  <advance width="733"/>
  <unicode hex="0057"/>
  <outline>
    <contour>
      <point x="723.49" y="555.551" type="line"/>
      <point x="723.49" y="539.4" type="line"/>
      <point x="682.68" y="530.9"/>
      <point x="674.21" y="523.25"/>
      <point x="659.58" y="479.051" type="curve" smooth="yes"/>
      <point x="575.65" y="229.15"/>
      <point x="567.95" y="211.351"/>
      <point x="502.5" y="-10.5" type="curve"/>
      <point x="490.95" y="-10.5" type="line"/>
      <point x="367.75" y="343.051" type="line"/>
      <point x="249.17" y="-10.5" type="line"/>
      <point x="237.62" y="-10.5" type="line"/>
      <point x="89.0098" y="439.95" type="line" smooth="yes"/>
      <point x="62.8301" y="520.7"/>
      <point x="48.9697" y="535.15"/>
      <point x="9.7002" y="539.4" type="curve"/>
      <point x="9.7002" y="555.551" type="line"/>
      <point x="198.35" y="555.551" type="line"/>
      <point x="198.35" y="539.4" type="line"/>
      <point x="159.08" y="536.851"/>
      <point x="148.3" y="530.9"/>
      <point x="148.3" y="512.2" type="curve" smooth="yes"/>
      <point x="148.3" y="502.851"/>
      <point x="151.38" y="488.4"/>
      <point x="156.771" y="473.101" type="curve" smooth="yes"/>
      <point x="267.65" y="159.5" type="line"/>
      <point x="350.04" y="393.2" type="line"/>
      <point x="324.63" y="462.9" type="line" smooth="yes"/>
      <point x="299.99" y="531.75"/>
      <point x="290.75" y="538.551"/>
      <point x="246.86" y="539.4" type="curve"/>
      <point x="246.86" y="555.551" type="line"/>
      <point x="452.45" y="555.551" type="line"/>
      <point x="452.45" y="539.4" type="line"/>
      <point x="410.87" y="538.551"/>
      <point x="393.16" y="530.051"/>
      <point x="393.16" y="509.65" type="curve" smooth="yes"/>
      <point x="393.16" y="495.2"/>
      <point x="402.4" y="473.95"/>
      <point x="413.95" y="440.801" type="curve" smooth="yes"/>
      <point x="515.59" y="156.95" type="line"/>
      <point x="611.84" y="439.101" type="line" smooth="yes"/>
      <point x="619.54" y="462.9"/>
      <point x="624.16" y="485"/>
      <point x="624.16" y="502.851" type="curve" smooth="yes"/>
      <point x="624.16" y="525.801"/>
      <point x="610.3" y="535.15"/>
      <point x="571.03" y="539.4" type="curve"/>
      <point x="571.03" y="555.551" type="line"/>
    </contour>
  </outline>
</glyph>
<glyph name="X" format="2">
  <advance width="582"/>
  <unicode hex="0058"/>
  <outline>
    <contour>
      <point x="565.521" y="558.7" type="line"/>
      <point x="565.521" y="542.55" type="line"/>
      <point x="513.681" y="539.149"/>
      <point x="496.67" y="529.8"/>
      <point x="444.83" y="462.649" type="curve" smooth="yes"/>
      <point x="326.57" y="307.95" type="line"/>
      <point x="482.091" y="80.0498" type="line" smooth="yes"/>
      <point x="515.995" y="30.3652"/>
      <point x="529.07" y="22.25"/>
      <point x="572" y="17.1494" type="curve"/>
      <point x="572" y="1" type="line"/>
      <point x="331.431" y="1" type="line"/>
      <point x="331.431" y="17.1494" type="line"/>
      <point x="371.931" y="21.3994"/>
      <point x="393.801" y="26.5"/>
      <point x="393.801" y="43.5" type="curve" smooth="yes"/>
      <point x="393.801" y="56.25"/>
      <point x="379.221" y="85.1494"/>
      <point x="352.49" y="126.8" type="curve" smooth="yes"/>
      <point x="275.54" y="245.8" type="line"/>
      <point x="179.15" y="120" type="line" smooth="yes"/>
      <point x="149.181" y="80.8994"/>
      <point x="137.03" y="59.6494"/>
      <point x="137.03" y="46.8994" type="curve" smooth="yes"/>
      <point x="137.03" y="27.3496"/>
      <point x="151.61" y="20.5498"/>
      <point x="198.591" y="17.1494" type="curve"/>
      <point x="198.591" y="1" type="line"/>
      <point x="9.86035" y="1" type="line"/>
      <point x="9.86035" y="17.1494" type="line"/>
      <point x="51.1709" y="20.5498"/>
      <point x="55.46" y="24.1865"/>
      <point x="127.311" y="114.05" type="curve" smooth="yes"/>
      <point x="254.48" y="273.1" type="line"/>
      <point x="166.19" y="409.1" type="line" smooth="yes"/>
      <point x="88.4307" y="528.95"/>
      <point x="72.2305" y="540"/>
      <point x="19.5801" y="542.55" type="curve"/>
      <point x="19.5801" y="558.7" type="line"/>
      <point x="264.2" y="558.7" type="line"/>
      <point x="264.2" y="542.55" type="line"/>
      <point x="241.521" y="541.7" type="line" smooth="yes"/>
      <point x="214.79" y="540.85"/>
      <point x="202.641" y="534.05"/>
      <point x="202.641" y="517.05" type="curve" smooth="yes"/>
      <point x="202.641" y="498.35"/>
      <point x="222.08" y="461.8"/>
      <point x="271.49" y="389.55" type="curve" smooth="yes"/>
      <point x="305.511" y="339.399" type="line"/>
      <point x="397.04" y="456.7" type="line" smooth="yes"/>
      <point x="420.53" y="487.3"/>
      <point x="429.44" y="502.6"/>
      <point x="429.44" y="515.35" type="curve" smooth="yes"/>
      <point x="429.44" y="534.899"/>
      <point x="416.48" y="540.85"/>
      <point x="372.74" y="542.55" type="curve"/>
      <point x="372.74" y="558.7" type="line"/>
    </contour>
  </outline>
</glyph>
<glyph name="Y" format="2">
  <advance width="599"/>
  <unicode hex="0059"/>
  <outline>
    <contour>
      <point x="589.05" y="557.7" type="line"/>
      <point x="589.05" y="541.55" type="line"/>
      <point x="545.7" y="538.149"/>
      <point x="521.9" y="521.149"/>
      <point x="471.75" y="444.649" type="curve" smooth="yes"/>
      <point x="345.95" y="252.55" type="line"/>
      <point x="345.95" y="93.6494" type="line" smooth="yes"/>
      <point x="345.95" y="29.0498"/>
      <point x="357.85" y="18.8496"/>
      <point x="433.5" y="17.1494" type="curve"/>
      <point x="433.5" y="1" type="line"/>
      <point x="173.4" y="1" type="line"/>
      <point x="173.4" y="17.1494" type="line"/>
      <point x="250.75" y="20.5498"/>
      <point x="259.25" y="29.0498"/>
      <point x="259.25" y="103" type="curve" smooth="yes"/>
      <point x="259.25" y="244.899" type="line"/>
      <point x="147.9" y="408.1" type="line" smooth="yes"/>
      <point x="65.4502" y="529.649"/>
      <point x="51" y="539.85"/>
      <point x="10.2002" y="541.55" type="curve"/>
      <point x="10.2002" y="557.7" type="line"/>
      <point x="248.2" y="557.7" type="line"/>
      <point x="248.2" y="541.55" type="line"/>
      <point x="213.35" y="539"/>
      <point x="187.85" y="534.467"/>
      <point x="187.85" y="516.05" type="curve" smooth="yes"/>
      <point x="187.85" y="506.7"/>
      <point x="192.95" y="492.25"/>
      <point x="202.3" y="478.649" type="curve" smooth="yes"/>
      <point x="328.1" y="289.95" type="line"/>
      <point x="449.65" y="482.05" type="line" smooth="yes"/>
      <point x="457.3" y="494.8"/>
      <point x="461.55" y="505"/>
      <point x="461.55" y="513.5" type="curve" smooth="yes"/>
      <point x="461.55" y="533.899"/>
      <point x="447.1" y="540.7"/>
      <point x="402.9" y="541.55" type="curve"/>
      <point x="402.9" y="557.7" type="line"/>
    </contour>
  </outline>
</glyph>
<glyph name="Z" format="2">
  <advance width="521"/>
  <unicode hex="005A"/>
  <outline>
    <contour>
      <point x="344.45" y="33.9697" type="line" smooth="yes"/>
      <point x="459.2" y="33.9697"/>
      <point x="473.65" y="95.1699"/>
      <point x="490.65" y="151.27" type="curve"/>
      <point x="510.2" y="151.27" type="line"/>
      <point x="489.8" y="1.66992" type="line"/>
      <point x="10.4004" y="1.66992" type="line"/>
      <point x="10.4004" y="14.4199" type="line"/>
      <point x="381.85" y="525.07" type="line"/>
      <point x="194" y="525.07" type="line" smooth="yes"/>
      <point x="73.2998" y="525.07"/>
      <point x="61.4004" y="469.82"/>
      <point x="51.2002" y="412.02" type="curve"/>
      <point x="29.0996" y="412.02" type="line"/>
      <point x="46.0996" y="557.37" type="line"/>
      <point x="493.2" y="557.37" type="line"/>
      <point x="493.2" y="544.62" type="line"/>
      <point x="126" y="33.9697" type="line"/>
    </contour>
  </outline>
</glyph>
<glyph name="bracketleft" format="2">
  <advance width="256"/>
  <unicode hex="005B"/>
  <outline>
    <contour>
      <point x="215.5" y="-103.05" type="line"/>
      <point x="215.5" y="-123.8" type="line"/>
      <point x="40.3701" y="-123.8" type="line"/>
      <point x="40.3701" y="555.14" type="line"/>
      <point x="215.5" y="555.14" type="line"/>
      <point x="215.5" y="534.39" type="line"/>
      <point x="140.801" y="534.39" type="line" smooth="yes"/>
      <point x="114.24" y="534.39"/>
      <point x="103.45" y="523.6"/>
      <point x="103.45" y="497.87" type="curve" smooth="yes"/>
      <point x="103.45" y="-59.8896" type="line" smooth="yes"/>
      <point x="103.45" y="-88.9404"/>
      <point x="116.73" y="-103.05"/>
      <point x="144.12" y="-103.05" type="curve" smooth="yes"/>
    </contour>
  </outline>
</glyph>
<glyph name="bracketright" format="2">
  <advance width="256"/>
  <unicode hex="005D"/>
  <outline>
    <contour>
      <point x="40" y="-103" type="line"/>
      <point x="112" y="-103" type="line" smooth="yes"/>
      <point x="139" y="-103"/>
      <point x="153" y="-89"/>
      <point x="153" y="-60" type="curve" smooth="yes"/>
      <point x="153" y="498" type="line" smooth="yes"/>
      <point x="153" y="524"/>
      <point x="142" y="534"/>
      <point x="115" y="534" type="curve" smooth="yes"/>
      <point x="40" y="534" type="line"/>
      <point x="40" y="555" type="line"/>
      <point x="216" y="555" type="line"/>
      <point x="216" y="-124" type="line"/>
      <point x="40" y="-124" type="line"/>
    </contour>
  </outline>
</glyph>
<glyph name="asciicircum" format="2">
  <advance width="370"/>
  <unicode hex="005E"/>
  <outline>
    <contour>
      <point x="84" y="287.8" type="line"/>
      <point x="35.7207" y="287.8" type="line"/>
      <point x="164.23" y="557.899" type="line"/>
      <point x="206.83" y="557.899" type="line"/>
      <point x="335.341" y="287.8" type="line"/>
      <point x="287.061" y="287.8" type="line"/>
      <point x="185.53" y="501.66" type="line"/>
    </contour>
  </outline>
</glyph>
<glyph name="underscore" format="2">
  <advance width="500"/>
  <unicode hex="005F"/>
  <outline>
    <contour>
      <point x="483" y="-107.02" type="line"/>
      <point x="18" y="-107.02" type="line"/>
      <point x="18" y="-57.0195" type="line"/>
      <point x="483" y="-57.0195" type="line"/>
    </contour>
  </outline>
</glyph>
<glyph name="grave" format="2">
  <advance width="247"/>
  <unicode hex="0060"/>
  <outline>
    <contour>
      <point x="220.5" y="444.2" type="line"/>
      <point x="186.1" y="444.2" type="line"/>
      <point x="53.6602" y="527.62" type="line" smooth="yes"/>
      <point x="38.1797" y="537.939"/>
      <point x="28.7197" y="550.84"/>
      <point x="28.7197" y="564.6" type="curve" smooth="yes"/>
      <point x="28.7197" y="580.939"/>
      <point x="39.8994" y="591.26"/>
      <point x="57.96" y="591.26" type="curve" smooth="yes"/>
      <point x="70.8594" y="591.26"/>
      <point x="78.5996" y="586.96"/>
      <point x="94.0801" y="571.479" type="curve" smooth="yes"/>
    </contour>
  </outline>
</glyph>
<glyph name="a" format="2">
  <advance width="378"/>
  <unicode hex="0061"/>
  <outline>
    <contour>
      <point x="8.83496" y="88.3379" type="curve" smooth="yes"/>
      <point x="8.83496" y="184.565"/>
      <point x="121.102" y="210.533"/>
      <point x="231.585" y="255.083" type="curve"/>
      <point x="231.585" y="309.434" type="line" smooth="yes"/>
      <point x="231.585" y="357.548"/>
      <point x="207.528" y="383.387"/>
      <point x="163.869" y="383.387" type="curve" smooth="yes"/>
      <point x="128.229" y="383.387"/>
      <point x="99.7178" y="363.785"/>
      <point x="99.7178" y="339.729" type="curve" smooth="yes"/>
      <point x="99.7178" y="327.254"/>
      <point x="104.173" y="312.106"/>
      <point x="104.173" y="304.088" type="curve" smooth="yes"/>
      <point x="104.173" y="284.485"/>
      <point x="85.4609" y="266.665"/>
      <point x="64.0771" y="266.665" type="curve" smooth="yes"/>
      <point x="43.584" y="266.665"/>
      <point x="25.7646" y="284.485"/>
      <point x="25.7646" y="304.979" type="curve" smooth="yes"/>
      <point x="25.7646" y="361.111"/>
      <point x="91.6982" y="404.771"/>
      <point x="175.452" y="404.771" type="curve" smooth="yes"/>
      <point x="278.808" y="404.771"/>
      <point x="303.756" y="351.311"/>
      <point x="303.756" y="262.21" type="curve" smooth="yes"/>
      <point x="303.756" y="95.4648" type="line" smooth="yes"/>
      <point x="303.756" y="56.2617"/>
      <point x="309.993" y="43.7881"/>
      <point x="330.486" y="43.7881" type="curve" smooth="yes"/>
      <point x="343.852" y="43.7881"/>
      <point x="354.543" y="48.2432"/>
      <point x="369.689" y="60.7168" type="curve"/>
      <point x="369.689" y="37.5498" type="line"/>
      <point x="338.505" y="3.69336"/>
      <point x="319.794" y="-7"/>
      <point x="289.5" y="-7" type="curve" smooth="yes"/>
      <point x="252.97" y="-7"/>
      <point x="236.932" y="11.7119"/>
      <point x="232.477" y="58.043" type="curve"/>
      <point x="178.125" y="11.7119"/>
      <point x="141.595" y="-7"/>
      <point x="102.39" y="-7" type="curve" smooth="yes"/>
      <point x="48.0391" y="-7"/>
      <point x="8.83496" y="32.2051"/>
    </contour>
    <contour>
      <point x="231.585" y="111.504" type="curve" smooth="yes"/>
      <point x="231.585" y="233.698" type="line"/>
      <point x="123.774" y="194.495"/>
      <point x="87.2432" y="169.418"/>
      <point x="87.2432" y="116.85" type="curve" smooth="yes"/>
      <point x="87.2432" y="63.2129"/>
      <point x="120.923" y="44.6787"/>
      <point x="143.376" y="44.6787" type="curve" smooth="yes"/>
      <point x="162.088" y="44.6787"/>
      <point x="187.035" y="52.6982"/>
      <point x="208.419" y="65.1719" type="curve" smooth="yes"/>
      <point x="227.13" y="75.8633"/>
      <point x="231.585" y="83.8828"/>
    </contour>
  </outline>
</glyph>
<glyph name="b" format="2">
  <advance width="423"/>
  <unicode hex="0062"/>
  <outline>
    <contour>
      <point x="139.145" y="600.887" type="line"/>
      <point x="139.145" y="328.547" type="line"/>
      <point x="156.545" y="372.157"/>
      <point x="207.005" y="404.197"/>
      <point x="260.075" y="404.197" type="curve" smooth="yes"/>
      <point x="347.075" y="404.197"/>
      <point x="413.195" y="320.537"/>
      <point x="413.195" y="211.067" type="curve" smooth="yes"/>
      <point x="413.195" y="83.7969"/>
      <point x="324.455" y="-14.1025"/>
      <point x="209.615" y="-14.1025" type="curve" smooth="yes"/>
      <point x="140.015" y="-14.1025"/>
      <point x="66.0654" y="15.2666"/>
      <point x="66.0654" y="42.8574" type="curve" smooth="yes"/>
      <point x="66.0654" y="504.767" type="line" smooth="yes"/>
      <point x="66.0654" y="542.146"/>
      <point x="58.2354" y="550.157"/>
      <point x="23.4346" y="550.157" type="curve" smooth="yes"/>
      <point x="17.3447" y="550.157"/>
      <point x="13.8652" y="550.157"/>
      <point x="8.64453" y="549.267" type="curve"/>
      <point x="8.64453" y="563.507" type="line"/>
      <point x="50.9814" y="574.281"/>
      <point x="93.0635" y="587.083"/>
      <point x="134.795" y="602.667" type="curve"/>
    </contour>
    <contour>
      <point x="139.145" y="281.377" type="curve" smooth="yes"/>
      <point x="139.145" y="57.0967" type="line" smooth="yes"/>
      <point x="139.145" y="34.8467"/>
      <point x="178.295" y="14.377"/>
      <point x="223.535" y="14.377" type="curve" smooth="yes"/>
      <point x="294.875" y="14.377"/>
      <point x="336.635" y="71.3369"/>
      <point x="336.635" y="170.127" type="curve" smooth="yes"/>
      <point x="336.635" y="278.707"/>
      <point x="293.135" y="348.127"/>
      <point x="225.275" y="348.127" type="curve" smooth="yes"/>
      <point x="180.035" y="348.127"/>
      <point x="139.145" y="316.087"/>
    </contour>
  </outline>
</glyph>
<glyph name="c" format="2">
  <advance width="348"/>
  <unicode hex="0063"/>
  <outline>
    <contour>
      <point x="10.1592" y="188.692" type="curve" smooth="yes"/>
      <point x="10.1592" y="325.906"/>
      <point x="101.301" y="408.77"/>
      <point x="194.973" y="408.77" type="curve" smooth="yes"/>
      <point x="265.86" y="408.77"/>
      <point x="324.934" y="366.893"/>
      <point x="324.934" y="316.996" type="curve" smooth="yes"/>
      <point x="324.934" y="296.503"/>
      <point x="306.368" y="279.574"/>
      <point x="284.427" y="279.574" type="curve" smooth="yes"/>
      <point x="266.704" y="279.574"/>
      <point x="251.515" y="295.613"/>
      <point x="244.763" y="320.562" type="curve" smooth="yes"/>
      <point x="239.7" y="340.163" type="line" smooth="yes"/>
      <point x="231.261" y="373.13"/>
      <point x="220.29" y="382.931"/>
      <point x="189.91" y="382.931" type="curve" smooth="yes"/>
      <point x="121.554" y="382.931"/>
      <point x="75.1396" y="319.67"/>
      <point x="75.1396" y="227.896" type="curve" smooth="yes"/>
      <point x="75.1396" y="125.432"/>
      <point x="129.149" y="54.1514"/>
      <point x="205.944" y="54.1514" type="curve" smooth="yes"/>
      <point x="254.046" y="54.1514"/>
      <point x="284.427" y="75.5361"/>
      <point x="324.934" y="137.906" type="curve"/>
      <point x="336.748" y="129.887" type="line"/>
      <point x="319.026" y="93.3564"/>
      <point x="270.081" y="-10"/>
      <point x="170.5" y="-10" type="curve" smooth="yes"/>
      <point x="76.8271" y="-10"/>
      <point x="10.1592" y="72.8633"/>
    </contour>
  </outline>
</glyph>
<glyph name="d" format="2">
  <advance width="414"/>
  <unicode hex="0064"/>
  <outline>
    <contour>
      <point x="278.199" y="-7.2998" type="line"/>
      <point x="274.8" y="-4.62988" type="line"/>
      <point x="274.8" y="52.3311" type="line"/>
      <point x="245.899" y="10.501"/>
      <point x="213.6" y="-7.2998"/>
      <point x="166" y="-7.2998" type="curve" smooth="yes"/>
      <point x="72.5" y="-7.2998"/>
      <point x="8.75" y="65.1309"/>
      <point x="8.75" y="179.051" type="curve" smooth="yes"/>
      <point x="8.75" y="305.431"/>
      <point x="87.7998" y="406.001"/>
      <point x="185.55" y="406.001" type="curve" smooth="yes"/>
      <point x="219.55" y="406.001"/>
      <point x="242.5" y="396.211"/>
      <point x="274.8" y="367.73" type="curve"/>
      <point x="274.8" y="506.57" type="line" smooth="yes"/>
      <point x="274.8" y="543.061"/>
      <point x="267.149" y="551.961"/>
      <point x="235.699" y="551.961" type="curve" smooth="yes"/>
      <point x="228.899" y="551.961"/>
      <point x="223.8" y="551.961"/>
      <point x="217" y="551.07" type="curve"/>
      <point x="217" y="565.311" type="line"/>
      <point x="271.399" y="580.44"/>
      <point x="301.149" y="589.341"/>
      <point x="341.949" y="604.471" type="curve"/>
      <point x="346.199" y="602.69" type="line"/>
      <point x="346.199" y="103.061" type="line" smooth="yes"/>
      <point x="346.199" y="62.1201"/>
      <point x="353" y="52.3311"/>
      <point x="383.6" y="52.3311" type="curve" smooth="yes"/>
      <point x="386.149" y="52.3311"/>
      <point x="387.85" y="52.3311"/>
      <point x="403.149" y="53.2207" type="curve"/>
      <point x="403.149" y="38.9805" type="line"/>
    </contour>
    <contour>
      <point x="199.149" y="38.9805" type="curve" smooth="yes"/>
      <point x="247.6" y="38.9805"/>
      <point x="274.8" y="77.251"/>
      <point x="274.8" y="92.3809" type="curve" smooth="yes"/>
      <point x="274.8" y="292.08" type="line" smooth="yes"/>
      <point x="274.8" y="339.251"/>
      <point x="233.149" y="381.08"/>
      <point x="188.1" y="381.08" type="curve" smooth="yes"/>
      <point x="123.5" y="381.08"/>
      <point x="81.8496" y="315.221"/>
      <point x="81.8496" y="214.65" type="curve" smooth="yes"/>
      <point x="81.8496" y="105.181"/>
      <point x="128.6" y="38.9805"/>
    </contour>
  </outline>
</glyph>
<glyph name="e" format="2">
  <advance width="356"/>
  <unicode hex="0065"/>
  <outline>
    <contour>
      <point x="70.8994" y="248.43" type="line"/>
      <point x="75.9395" y="90.0098"/>
      <point x="147.34" y="54.4102"/>
      <point x="201.939" y="54.4102" type="curve" smooth="yes"/>
      <point x="255.699" y="54.4102"/>
      <point x="291.819" y="80.2197"/>
      <point x="332.14" y="147.86" type="curve"/>
      <point x="345.579" y="141.63" type="line"/>
      <point x="310.3" y="45.5098"/>
      <point x="247.3" y="-7"/>
      <point x="167.5" y="-7" type="curve" smooth="yes"/>
      <point x="70.8994" y="-7"/>
      <point x="10.4199" y="69.54"/>
      <point x="10.4199" y="192.36" type="curve" smooth="yes"/>
      <point x="10.4199" y="324.97"/>
      <point x="84.3398" y="411.3"/>
      <point x="185.979" y="411.3" type="curve" smooth="yes"/>
      <point x="272.5" y="411.3"/>
      <point x="317.02" y="356.12"/>
      <point x="329.619" y="248.43" type="curve"/>
    </contour>
    <contour>
      <point x="72.5791" y="276.91" type="curve"/>
      <point x="243.939" y="276.91" type="line"/>
      <point x="233.02" y="354.34"/>
      <point x="212.859" y="379.26"/>
      <point x="161.619" y="379.26" type="curve" smooth="yes"/>
      <point x="110.38" y="379.26"/>
      <point x="81.8193" y="346.33"/>
    </contour>
  </outline>
</glyph>
<glyph name="f" format="2">
  <advance width="248"/>
  <unicode hex="0066"/>
  <outline>
    <contour>
      <point x="247.641" y="522.8" type="curve" smooth="yes"/>
      <point x="212.12" y="522.8"/>
      <point x="217.301" y="591.05"/>
      <point x="175.12" y="591.05" type="curve" smooth="yes"/>
      <point x="147" y="591.05"/>
      <point x="132.94" y="562.84"/>
      <point x="132.94" y="510.061" type="curve" smooth="yes"/>
      <point x="132.94" y="404.5" type="line"/>
      <point x="223.96" y="404.5" type="line"/>
      <point x="223.96" y="375.38" type="line"/>
      <point x="133.681" y="375.38" type="line"/>
      <point x="133.681" y="94.6406" type="line" smooth="yes"/>
      <point x="133.681" y="26.3906"/>
      <point x="141.82" y="16.3799"/>
      <point x="202.5" y="13.6504" type="curve"/>
      <point x="202.5" y="0" type="line"/>
      <point x="10.1006" y="0" type="line"/>
      <point x="10.1006" y="13.6504" type="line"/>
      <point x="63.3809" y="17.29"/>
      <point x="71.5205" y="28.21"/>
      <point x="71.5205" y="94.6406" type="curve" smooth="yes"/>
      <point x="71.5205" y="375.38" type="line"/>
      <point x="10.8408" y="375.38" type="line"/>
      <point x="10.8408" y="404.5" type="line"/>
      <point x="71.5205" y="404.5" type="line"/>
      <point x="73" y="530.99"/>
      <point x="104.08" y="616.53"/>
      <point x="201.761" y="616.53" type="curve" smooth="yes"/>
      <point x="246.16" y="616.53"/>
      <point x="278.721" y="592.87"/>
      <point x="278.721" y="560.11" type="curve" smooth="yes"/>
      <point x="278.721" y="539.181"/>
      <point x="264.66" y="522.8"/>
    </contour>
  </outline>
</glyph>
<glyph name="g" format="2">
  <advance width="416"/>
  <unicode hex="0067"/>
  <outline>
    <contour>
      <point x="48.7998" y="38" type="curve" smooth="yes"/>
      <point x="48.7998" y="61.4004"/>
      <point x="57.7998" y="69.5"/>
      <point x="128.9" y="136.101" type="curve"/>
      <point x="69.5" y="165.801"/>
      <point x="45.2002" y="200"/>
      <point x="45.2002" y="256.7" type="curve" smooth="yes"/>
      <point x="45.2002" y="338.601"/>
      <point x="111.8" y="403.4"/>
      <point x="195.5" y="403.4" type="curve" smooth="yes"/>
      <point x="262.618" y="403.4"/>
      <point x="282.047" y="373.7"/>
      <point x="336.8" y="373.7" type="curve" smooth="yes"/>
      <point x="406.101" y="373.7" type="line"/>
      <point x="406.101" y="338.601" type="line"/>
      <point x="331.4" y="338.601" type="line"/>
      <point x="344" y="309.801"/>
      <point x="348.5" y="289.101"/>
      <point x="348.5" y="263" type="curve" smooth="yes"/>
      <point x="348.5" y="176.601"/>
      <point x="280.101" y="123.5"/>
      <point x="208.101" y="123.5" type="curve" smooth="yes"/>
      <point x="197.84" y="123.5"/>
      <point x="167.034" y="126.864"/>
      <point x="156.8" y="128" type="curve"/>
      <point x="132.5" y="120.801"/>
      <point x="102.8" y="89.3008"/>
      <point x="102.8" y="71.3008" type="curve" smooth="yes"/>
      <point x="102.8" y="56.9004"/>
      <point x="125.3" y="48.8008"/>
      <point x="173" y="47" type="curve" smooth="yes"/>
      <point x="289.101" y="41.6006" type="line" smooth="yes"/>
      <point x="355.7" y="38.9004"/>
      <point x="398" y="1.10059"/>
      <point x="398" y="-54.6992" type="curve" smooth="yes"/>
      <point x="398" y="-145.96"/>
      <point x="270.374" y="-206.8"/>
      <point x="164" y="-206.8" type="curve" smooth="yes"/>
      <point x="78.5" y="-206.8"/>
      <point x="8.2998" y="-167.199"/>
      <point x="8.2998" y="-119.5" type="curve" smooth="yes"/>
      <point x="8.2998" y="-86.1992"/>
      <point x="32.6006" y="-56.5"/>
      <point x="96.5" y="-9.69922" type="curve"/>
      <point x="59.6006" y="8.30078"/>
      <point x="48.7998" y="19.1006"/>
    </contour>
    <contour>
      <point x="115.4" y="-12.3994" type="curve"/>
      <point x="77.6006" y="-57.3994"/>
      <point x="71.2998" y="-69.0996"/>
      <point x="71.2998" y="-89.7998" type="curve" smooth="yes"/>
      <point x="71.2998" y="-129.399"/>
      <point x="123.5" y="-155.5"/>
      <point x="202.7" y="-155.5" type="curve" smooth="yes"/>
      <point x="304.4" y="-155.5"/>
      <point x="372.8" y="-120.399"/>
      <point x="372.8" y="-68.1992" type="curve" smooth="yes"/>
      <point x="372.8" y="-35.7998"/>
      <point x="343.101" y="-24.0996"/>
      <point x="261.2" y="-24.0996" type="curve" smooth="yes"/>
      <point x="217.101" y="-24.0996"/>
      <point x="145.101" y="-18.6992"/>
    </contour>
    <contour>
      <point x="279.2" y="227.9" type="curve" smooth="yes"/>
      <point x="279.2" y="257.601"/>
      <point x="265.7" y="378.2"/>
      <point x="186.5" y="378.2" type="curve" smooth="yes"/>
      <point x="145.101" y="378.2"/>
      <point x="119.9" y="346.7"/>
      <point x="119.9" y="293.601" type="curve" smooth="yes"/>
      <point x="119.9" y="179.143"/>
      <point x="174.98" y="146"/>
      <point x="211.7" y="146" type="curve" smooth="yes"/>
      <point x="253.101" y="146"/>
      <point x="279.2" y="177.5"/>
    </contour>
  </outline>
</glyph>
<glyph name="h" format="2">
  <advance width="418"/>
  <unicode hex="0068"/>
  <outline>
    <contour>
      <point x="132.79" y="299.7" type="curve"/>
      <point x="132.79" y="92.7998" type="line" smooth="yes"/>
      <point x="132.79" y="30.7002"/>
      <point x="141.16" y="19.9004"/>
      <point x="189.705" y="14.5" type="curve"/>
      <point x="189.705" y="1" type="line"/>
      <point x="8.91406" y="1" type="line"/>
      <point x="8.91406" y="14.5" type="line"/>
      <point x="57.46" y="21.7002"/>
      <point x="62.4814" y="29.7998"/>
      <point x="62.4814" y="92.7998" type="curve" smooth="yes"/>
      <point x="62.4814" y="506.7" type="line" smooth="yes"/>
      <point x="62.4814" y="545.4"/>
      <point x="56.3438" y="553.5"/>
      <point x="23.9805" y="553.5" type="curve" smooth="yes"/>
      <point x="20.6846" y="553.5"/>
      <point x="13.0225" y="552.437"/>
      <point x="9.75" y="551.7" type="curve"/>
      <point x="9.75" y="566.101" type="line"/>
      <point x="57.46" y="579.601"/>
      <point x="81.7324" y="587.7"/>
      <point x="128.605" y="605.7" type="curve"/>
      <point x="132.79" y="603" type="line"/>
      <point x="132.79" y="329.4" type="line"/>
      <point x="171.292" y="383.4"/>
      <point x="206.445" y="405"/>
      <point x="255.829" y="405" type="curve" smooth="yes"/>
      <point x="323.625" y="405"/>
      <point x="358.78" y="356.4"/>
      <point x="358.78" y="261.9" type="curve" smooth="yes"/>
      <point x="358.78" y="92.7998" type="line" smooth="yes"/>
      <point x="358.78" y="30.7002"/>
      <point x="363.802" y="23.5"/>
      <point x="409" y="14.5" type="curve"/>
      <point x="409" y="1" type="line"/>
      <point x="231.556" y="1" type="line"/>
      <point x="231.556" y="14.5" type="line"/>
      <point x="280.102" y="19.9004"/>
      <point x="288.472" y="31.6006"/>
      <point x="288.472" y="92.7998" type="curve" smooth="yes"/>
      <point x="288.472" y="261" type="line" smooth="yes"/>
      <point x="288.472" y="324"/>
      <point x="267.547" y="356.4"/>
      <point x="225.696" y="356.4" type="curve" smooth="yes"/>
      <point x="193.054" y="356.4"/>
      <point x="167.944" y="341.101"/>
    </contour>
  </outline>
</glyph>
<glyph name="i" format="2">
  <advance width="230"/>
  <unicode hex="0069"/>
  <outline>
    <contour>
      <point x="50.5107" y="346.12" type="curve" smooth="yes"/>
      <point x="42.5" y="346.12"/>
      <point x="26.7773" y="345.527"/>
      <point x="13.1309" y="343.45" type="curve"/>
      <point x="13.1309" y="356.801" type="line"/>
      <point x="59.1143" y="369.792"/>
      <point x="105.097" y="386.7"/>
      <point x="151.08" y="405.751" type="curve"/>
      <point x="154.641" y="403.081" type="line"/>
      <point x="154.641" y="93.1309" type="line" smooth="yes"/>
      <point x="154.641" y="29.0508"/>
      <point x="161.761" y="20.1504"/>
      <point x="220.5" y="15.7002" type="curve"/>
      <point x="220.5" y="2.35059" type="line"/>
      <point x="9.57031" y="2.35059" type="line"/>
      <point x="9.57031" y="15.7002" type="line"/>
      <point x="70.9805" y="19.2607"/>
      <point x="79.8809" y="29.0508"/>
      <point x="79.8809" y="93.1309" type="curve" smooth="yes"/>
      <point x="79.8809" y="293.61" type="line" smooth="yes"/>
      <point x="79.8809" y="332.771"/>
      <point x="71.8701" y="346.12"/>
    </contour>
    <contour>
      <point x="109.25" y="604.221" type="curve" smooth="yes"/>
      <point x="135.061" y="604.221"/>
      <point x="155.53" y="583.751"/>
      <point x="155.53" y="558.831" type="curve" smooth="yes"/>
      <point x="155.53" y="533.021"/>
      <point x="135.061" y="513.44"/>
      <point x="109.25" y="513.44" type="curve" smooth="yes"/>
      <point x="84.3301" y="513.44"/>
      <point x="64.75" y="533.911"/>
      <point x="64.75" y="558.831" type="curve" smooth="yes"/>
      <point x="64.75" y="583.751"/>
      <point x="85.2207" y="604.221"/>
    </contour>
  </outline>
</glyph>
<glyph name="j" format="2">
  <advance width="260"/>
  <unicode hex="006A"/>
  <outline>
    <contour>
      <point x="138.627" y="345.658" type="curve" smooth="yes"/>
      <point x="116.607" y="345.658"/>
      <point x="97.3398" y="342.86"/>
      <point x="97.3398" y="342.86" type="curve"/>
      <point x="97.3398" y="357.78" type="line"/>
      <point x="151.473" y="374.565"/>
      <point x="186.337" y="386.688"/>
      <point x="240.47" y="408.136" type="curve"/>
      <point x="245.058" y="405.338" type="line"/>
      <point x="245.058" y="-20.8145" type="line" smooth="yes"/>
      <point x="245.058" y="-153.229"/>
      <point x="190.925" y="-224.1"/>
      <point x="90" y="-224.1" type="curve" smooth="yes"/>
      <point x="40.4551" y="-224.1"/>
      <point x="3.75488" y="-202.652"/>
      <point x="3.75488" y="-172.812" type="curve" smooth="yes"/>
      <point x="3.75488" y="-152.297"/>
      <point x="20.2695" y="-136.444"/>
      <point x="41.3721" y="-136.444" type="curve" smooth="yes"/>
      <point x="78.9893" y="-136.444"/>
      <point x="89.082" y="-192.395"/>
      <point x="123.947" y="-192.395" type="curve" smooth="yes"/>
      <point x="162.482" y="-192.395"/>
      <point x="167.987" y="-150.432"/>
      <point x="167.987" y="-62.7773" type="curve" smooth="yes"/>
      <point x="167.987" y="290.641" type="line" smooth="yes"/>
      <point x="167.987" y="330.738"/>
      <point x="159.729" y="345.658"/>
    </contour>
    <contour>
      <point x="198.265" y="616.083" type="curve" smooth="yes"/>
      <point x="224.872" y="616.083"/>
      <point x="245.975" y="594.636"/>
      <point x="245.975" y="568.525" type="curve" smooth="yes"/>
      <point x="245.975" y="541.483"/>
      <point x="224.872" y="520.968"/>
      <point x="198.265" y="520.968" type="curve" smooth="yes"/>
      <point x="172.575" y="520.968"/>
      <point x="152.39" y="542.416"/>
      <point x="152.39" y="568.525" type="curve" smooth="yes"/>
      <point x="152.39" y="594.636"/>
      <point x="173.492" y="616.083"/>
    </contour>
  </outline>
</glyph>
<glyph name="k" format="2">
  <advance width="436"/>
  <unicode hex="006B"/>
  <outline>
    <contour>
      <point x="8.48145" y="560.008" type="curve"/>
      <point x="8.48145" y="574.441" type="line"/>
      <point x="60.5869" y="587.973"/>
      <point x="92.8008" y="597.597"/>
      <point x="138.743" y="614.134" type="curve"/>
      <point x="142.105" y="612.33" type="line"/>
      <point x="142.105" y="233.447" type="line"/>
      <point x="257.24" y="343.504" type="line" smooth="yes"/>
      <point x="269.006" y="354.329"/>
      <point x="276.569" y="366.959"/>
      <point x="276.569" y="374.175" type="curve" smooth="yes"/>
      <point x="276.569" y="386.805"/>
      <point x="267.325" y="390.413"/>
      <point x="234.549" y="391.315" type="curve"/>
      <point x="234.549" y="403.945" type="line"/>
      <point x="405.991" y="403.945" type="line"/>
      <point x="405.991" y="390.413" type="line"/>
      <point x="365.2" y="390.413"/>
      <point x="336.853" y="389.069"/>
      <point x="224.464" y="276.749" type="curve" smooth="yes"/>
      <point x="200.092" y="252.392" type="line"/>
      <point x="328.673" y="80.3848" type="line"/>
      <point x="363.97" y="34.3779"/>
      <point x="390.022" y="17.2383"/>
      <point x="427" y="14.5312" type="curve"/>
      <point x="427" y="1" type="line"/>
      <point x="243.792" y="1" type="line"/>
      <point x="243.792" y="14.5312" type="line"/>
      <point x="266.483" y="14.5312"/>
      <point x="277.408" y="16.335"/>
      <point x="277.408" y="28.0635" type="curve" smooth="yes"/>
      <point x="277.408" y="37.084"/>
      <point x="267.138" y="48.3438"/>
      <point x="259.761" y="58.7334" type="curve" smooth="yes"/>
      <point x="142.104" y="224.427" type="line"/>
      <point x="142.104" y="73.168" type="line" smooth="yes"/>
      <point x="142.104" y="29.416"/>
      <point x="147.146" y="24.9053"/>
      <point x="205.135" y="14.5312" type="curve"/>
      <point x="205.135" y="1" type="line"/>
      <point x="8.48145" y="1" type="line"/>
      <point x="8.48145" y="14.5312" type="line"/>
      <point x="68.9893" y="25.3564"/>
      <point x="71.5107" y="28.0635"/>
      <point x="71.5107" y="74.9717" type="curve" smooth="yes"/>
      <point x="71.5107" y="506.784" type="line" smooth="yes"/>
      <point x="71.5107" y="550.085"/>
      <point x="63.1064" y="561.812"/>
      <point x="35.373" y="561.812" type="curve" smooth="yes"/>
      <point x="26.9697" y="561.812"/>
      <point x="18.2598" y="561.157"/>
    </contour>
  </outline>
</glyph>
<glyph name="l" format="2">
  <advance width="212"/>
  <unicode hex="006C"/>
  <outline>
    <contour>
      <point x="3.08008" y="524.912" type="curve"/>
      <point x="3.08008" y="538.352" type="line"/>
      <point x="61.04" y="552.632"/>
      <point x="92.96" y="561.032"/>
      <point x="136.64" y="575.312" type="curve"/>
      <point x="140" y="573.632" type="line"/>
      <point x="140" y="72.1523" type="line" smooth="yes"/>
      <point x="140" y="25.9521"/>
      <point x="150.08" y="17.5518"/>
      <point x="203" y="14.1924" type="curve"/>
      <point x="203" y="1.5918" type="line"/>
      <point x="4.75977" y="1.5918" type="line"/>
      <point x="4.75977" y="14.1924" type="line"/>
      <point x="57.6797" y="18.3916"/>
      <point x="69.4395" y="29.3115"/>
      <point x="69.4395" y="74.6719" type="curve" smooth="yes"/>
      <point x="69.4395" y="475.352" type="line" smooth="yes"/>
      <point x="69.4395" y="514.832"/>
      <point x="61.04" y="526.592"/>
      <point x="34.1602" y="526.592" type="curve" smooth="yes"/>
      <point x="23.0508" y="526.592"/>
      <point x="13.7197" y="526.172"/>
    </contour>
  </outline>
</glyph>
<glyph name="m" format="2">
  <advance width="692"/>
  <unicode hex="006D"/>
  <outline>
    <contour>
      <point x="11.6602" y="348.22" type="curve"/>
      <point x="11.6602" y="363.35" type="line"/>
      <point x="60.6104" y="376.699"/>
      <point x="90.8701" y="386.489"/>
      <point x="136.26" y="403.399" type="curve"/>
      <point x="142.49" y="401.619" type="line"/>
      <point x="142.49" y="334.869" type="line"/>
      <point x="216.36" y="390.939"/>
      <point x="241.28" y="403.399"/>
      <point x="280.44" y="403.399" type="curve" smooth="yes"/>
      <point x="328.5" y="403.399"/>
      <point x="358.76" y="379.369"/>
      <point x="374.78" y="328.64" type="curve"/>
      <point x="422.84" y="380.26"/>
      <point x="468.229" y="403.399"/>
      <point x="519.85" y="403.399" type="curve" smooth="yes"/>
      <point x="588.38" y="403.399"/>
      <point x="623.09" y="350"/>
      <point x="623.09" y="244.979" type="curve" smooth="yes"/>
      <point x="623.09" y="67.6396" type="line" smooth="yes"/>
      <point x="623.09" y="32.9297"/>
      <point x="634.66" y="16.9092"/>
      <point x="661.36" y="15.1299" type="curve" smooth="yes"/>
      <point x="684.5" y="13.3496" type="line"/>
      <point x="684.5" y="0" type="line"/>
      <point x="489.59" y="0" type="line"/>
      <point x="489.59" y="13.3496" type="line"/>
      <point x="541.21" y="19.5801"/>
      <point x="548.33" y="26.6992"/>
      <point x="548.33" y="77.4297" type="curve" smooth="yes"/>
      <point x="548.33" y="259.22" type="line" smooth="yes"/>
      <point x="548.33" y="333.09"/>
      <point x="532.31" y="357.119"/>
      <point x="481.58" y="357.119" type="curve" smooth="yes"/>
      <point x="440.64" y="357.119"/>
      <point x="411.271" y="341.1"/>
      <point x="384.57" y="302.83" type="curve"/>
      <point x="384.57" y="84.5498" type="line" smooth="yes"/>
      <point x="384.57" y="29.3691"/>
      <point x="397.92" y="14.2393"/>
      <point x="448.65" y="13.3496" type="curve"/>
      <point x="448.65" y="0" type="line"/>
      <point x="249.29" y="0" type="line"/>
      <point x="249.29" y="13.3496" type="line"/>
      <point x="300.021" y="16.9092"/>
      <point x="309.81" y="26.6992"/>
      <point x="309.81" y="76.54" type="curve" smooth="yes"/>
      <point x="309.81" y="263.67" type="line" smooth="yes"/>
      <point x="309.81" y="325.97"/>
      <point x="290.23" y="357.119"/>
      <point x="251.07" y="357.119" type="curve" smooth="yes"/>
      <point x="225.009" y="357.119"/>
      <point x="173.981" y="345.238"/>
      <point x="146.05" y="304.609" type="curve"/>
      <point x="146.05" y="59.6299" type="line" smooth="yes"/>
      <point x="146.05" y="24.9199"/>
      <point x="159.4" y="15.1299"/>
      <point x="206.57" y="13.3496" type="curve"/>
      <point x="206.57" y="0" type="line"/>
      <point x="8.99023" y="0" type="line"/>
      <point x="8.99023" y="13.3496" type="line"/>
      <point x="58.8301" y="14.2393"/>
      <point x="71.29" y="27.5898"/>
      <point x="71.29" y="75.6494" type="curve" smooth="yes"/>
      <point x="71.29" y="294.819" type="line" smooth="yes"/>
      <point x="71.29" y="337.54"/>
      <point x="63.2803" y="351.779"/>
      <point x="40.1396" y="351.779" type="curve" smooth="yes"/>
      <point x="30.3496" y="351.779"/>
      <point x="23.2305" y="350.89"/>
    </contour>
  </outline>
</glyph>
<glyph name="n" format="2">
  <advance width="432"/>
  <unicode hex="006E"/>
  <outline>
    <contour>
      <point x="9.78027" y="350.24" type="curve"/>
      <point x="9.78027" y="365.2" type="line"/>
      <point x="58.1807" y="379.28"/>
      <point x="88.1006" y="388.96"/>
      <point x="131.221" y="404.801" type="curve"/>
      <point x="137.38" y="403.04" type="line"/>
      <point x="137.38" y="333.521" type="line"/>
      <point x="197.221" y="389.841"/>
      <point x="224.5" y="404.801"/>
      <point x="264.98" y="404.801" type="curve" smooth="yes"/>
      <point x="330.101" y="404.801"/>
      <point x="368.82" y="355.521"/>
      <point x="368.82" y="272.801" type="curve" smooth="yes"/>
      <point x="368.82" y="71.2803" type="line" smooth="yes"/>
      <point x="368.82" y="28.1602"/>
      <point x="379.38" y="17.6006"/>
      <point x="422.5" y="13.2002" type="curve"/>
      <point x="422.5" y="0" type="line"/>
      <point x="239.46" y="0" type="line"/>
      <point x="239.46" y="13.2002" type="line"/>
      <point x="283.46" y="16.7207"/>
      <point x="294.9" y="31.6807"/>
      <point x="294.9" y="87.1201" type="curve" smooth="yes"/>
      <point x="294.9" y="271.04" type="line" smooth="yes"/>
      <point x="294.9" y="329.12"/>
      <point x="273.78" y="356.4"/>
      <point x="230.66" y="356.4" type="curve" smooth="yes"/>
      <point x="201.62" y="356.4"/>
      <point x="182.26" y="345.841"/>
      <point x="140.021" y="306.24" type="curve"/>
      <point x="140.021" y="58.96" type="line" smooth="yes"/>
      <point x="140.021" y="27.2803"/>
      <point x="153.221" y="16.7207"/>
      <point x="198.101" y="13.2002" type="curve"/>
      <point x="198.101" y="0" type="line"/>
      <point x="11.54" y="0" type="line"/>
      <point x="11.54" y="13.2002" type="line"/>
      <point x="56.4199" y="16.7207"/>
      <point x="66.1006" y="29.04"/>
      <point x="66.1006" y="79.2002" type="curve" smooth="yes"/>
      <point x="66.1006" y="297.44" type="line" smooth="yes"/>
      <point x="66.1006" y="340.561"/>
      <point x="58.1807" y="353.761"/>
      <point x="33.54" y="353.761" type="curve" smooth="yes"/>
      <point x="23.8604" y="353.761"/>
      <point x="15.0605" y="352.88"/>
    </contour>
  </outline>
</glyph>
<glyph name="o" format="2">
  <advance width="411"/>
  <unicode hex="006F"/>
  <outline>
    <contour>
      <point x="207.285" y="407.75" type="curve" smooth="yes"/>
      <point x="321.205" y="407.75"/>
      <point x="403.085" y="323.2"/>
      <point x="403.085" y="206.61" type="curve" smooth="yes"/>
      <point x="403.085" y="83.79"/>
      <point x="317.645" y="-6.5498"/>
      <point x="205.505" y="-6.5498" type="curve" smooth="yes"/>
      <point x="93.3652" y="-6.5498"/>
      <point x="10.5947" y="79.3398"/>
      <point x="10.5947" y="199.49" type="curve" smooth="yes"/>
      <point x="10.5947" y="322.31"/>
      <point x="91.585" y="407.75"/>
    </contour>
    <contour>
      <point x="90.6953" y="243.1" type="curve" smooth="yes"/>
      <point x="90.6953" y="119.39"/>
      <point x="139.645" y="18.3701"/>
      <point x="216.185" y="18.3701" type="curve" smooth="yes"/>
      <point x="282.935" y="18.3701"/>
      <point x="322.985" y="74.8896"/>
      <point x="322.985" y="175.46" type="curve" smooth="yes"/>
      <point x="322.985" y="297.39"/>
      <point x="270.475" y="382.83"/>
      <point x="195.715" y="382.83" type="curve" smooth="yes"/>
      <point x="132.525" y="382.83"/>
      <point x="90.6953" y="327.65"/>
    </contour>
  </outline>
</glyph>
<glyph name="p" format="2">
  <advance width="425"/>
  <unicode hex="0070"/>
  <outline>
    <contour>
      <point x="13.7256" y="343.746" type="curve"/>
      <point x="13.7256" y="357.87" type="line"/>
      <point x="61.7412" y="372.876"/>
      <point x="92.2959" y="384.351"/>
      <point x="139.438" y="402.888" type="curve"/>
      <point x="144.676" y="401.122" type="line"/>
      <point x="144.676" y="333.153" type="line"/>
      <point x="183.088" y="380.82"/>
      <point x="221.5" y="402.888"/>
      <point x="270.388" y="402.888" type="curve" smooth="yes"/>
      <point x="355.069" y="402.888"/>
      <point x="416.18" y="324.327"/>
      <point x="416.18" y="214.872" type="curve" smooth="yes"/>
      <point x="416.18" y="86.8809"/>
      <point x="335.862" y="-11.9814"/>
      <point x="232.85" y="-11.9814" type="curve" smooth="yes"/>
      <point x="196.183" y="-11.9814"/>
      <point x="175.231" y="-3.15527"/>
      <point x="144.676" y="25.9746" type="curve"/>
      <point x="144.676" y="-115.609" type="line" smooth="yes"/>
      <point x="144.676" y="-171.22"/>
      <point x="156.025" y="-180.929"/>
      <point x="221.5" y="-181.812" type="curve"/>
      <point x="221.5" y="-197.7" type="line"/>
      <point x="10.2344" y="-197.7" type="line"/>
      <point x="10.2344" y="-182.695" type="line"/>
      <point x="61.7412" y="-177.398"/>
      <point x="71.3447" y="-167.688"/>
      <point x="71.3447" y="-121.788" type="curve" smooth="yes"/>
      <point x="71.3447" y="294.315" type="line" smooth="yes"/>
      <point x="71.3447" y="335.803"/>
      <point x="65.2324" y="344.629"/>
      <point x="35.5508" y="344.629" type="curve" smooth="yes"/>
      <point x="27.6943" y="344.629"/>
      <point x="21.583" y="344.629"/>
    </contour>
    <contour>
      <point x="144.676" y="291.667" type="curve" smooth="yes"/>
      <point x="144.676" y="74.5225" type="line" smooth="yes"/>
      <point x="144.676" y="48.042"/>
      <point x="194.437" y="16.2646"/>
      <point x="235.468" y="16.2646" type="curve" smooth="yes"/>
      <point x="298.324" y="16.2646"/>
      <point x="341.102" y="82.4678"/>
      <point x="341.102" y="180.447" type="curve" smooth="yes"/>
      <point x="341.102" y="282.84"/>
      <point x="298.324" y="349.925"/>
      <point x="233.722" y="349.925" type="curve" smooth="yes"/>
      <point x="193.564" y="349.925"/>
      <point x="144.676" y="318.148"/>
    </contour>
  </outline>
</glyph>
<glyph name="q" format="2">
  <advance width="401"/>
  <unicode hex="0071"/>
  <outline>
    <contour>
      <point x="284.652" y="370.894" type="curve"/>
      <point x="329.518" y="399.14" type="line"/>
      <point x="338.657" y="399.14" type="line"/>
      <point x="338.657" y="-131.714" type="line" smooth="yes"/>
      <point x="338.657" y="-168.788"/>
      <point x="345.304" y="-175.85"/>
      <point x="391" y="-186.441" type="curve"/>
      <point x="391" y="-198.8" type="line"/>
      <point x="194.92" y="-198.8" type="line"/>
      <point x="194.92" y="-183.794" type="line"/>
      <point x="253.91" y="-179.381"/>
      <point x="268.866" y="-166.14"/>
      <point x="268.866" y="-116.709" type="curve" smooth="yes"/>
      <point x="268.866" y="52.2393" type="line"/>
      <point x="232.309" y="9.86914"/>
      <point x="186.611" y="-13.0801"/>
      <point x="138.423" y="-13.0801" type="curve" smooth="yes"/>
      <point x="60.3223" y="-13.0801"/>
      <point x="5.48633" y="65.4795"/>
      <point x="5.48633" y="176.699" type="curve" smooth="yes"/>
      <point x="5.48633" y="303.809"/>
      <point x="85.2471" y="402.671"/>
      <point x="189.104" y="402.671" type="curve" smooth="yes"/>
      <point x="221.508" y="402.671"/>
      <point x="246.433" y="394.727"/>
    </contour>
    <contour>
      <point x="76.9395" y="208.477" type="curve" smooth="yes"/>
      <point x="76.9395" y="143.157"/>
      <point x="98.542" y="40.7637"/>
      <point x="185.781" y="40.7637" type="curve" smooth="yes"/>
      <point x="211.537" y="40.7637"/>
      <point x="238.955" y="51.3564"/>
      <point x="257.234" y="68.1279" type="curve" smooth="yes"/>
      <point x="265.542" y="75.1895"/>
      <point x="268.866" y="86.665"/>
      <point x="268.866" y="107.85" type="curve" smooth="yes"/>
      <point x="268.866" y="289.686" type="line" smooth="yes"/>
      <point x="268.866" y="348.826"/>
      <point x="243.109" y="377.955"/>
      <point x="191.597" y="377.955" type="curve" smooth="yes"/>
      <point x="120.975" y="377.955"/>
      <point x="76.9395" y="312.636"/>
    </contour>
  </outline>
</glyph>
<glyph name="r" format="2">
  <advance width="302"/>
  <unicode hex="0072"/>
  <outline>
    <contour>
      <point x="259.4" y="319.12" type="curve" smooth="yes"/>
      <point x="236.18" y="319.12"/>
      <point x="216.4" y="349.92"/>
      <point x="202.64" y="349.92" type="curve" smooth="yes"/>
      <point x="179.42" y="349.92"/>
      <point x="142.44" y="305.92"/>
      <point x="142.44" y="277.76" type="curve" smooth="yes"/>
      <point x="142.44" y="79.7598" type="line" smooth="yes"/>
      <point x="142.44" y="29.5996"/>
      <point x="157.06" y="16.4004"/>
      <point x="215.54" y="13.7598" type="curve"/>
      <point x="215.54" y="0.55957" type="line"/>
      <point x="9.13965" y="0.55957" type="line"/>
      <point x="9.13965" y="13.7598" type="line"/>
      <point x="64.1797" y="24.3203"/>
      <point x="70.2002" y="30.4805"/>
      <point x="70.2002" y="74.4805" type="curve" smooth="yes"/>
      <point x="70.2002" y="294.48" type="line" smooth="yes"/>
      <point x="70.2002" y="333.2"/>
      <point x="62.46" y="347.28"/>
      <point x="40.96" y="347.28" type="curve" smooth="yes"/>
      <point x="30.6396" y="347.28"/>
      <point x="22.9004" y="346.4"/>
      <point x="10.8604" y="343.76" type="curve"/>
      <point x="10.8604" y="357.84" type="line"/>
      <point x="61.5996" y="374.56"/>
      <point x="92.5596" y="386"/>
      <point x="138.14" y="405.36" type="curve"/>
      <point x="142.44" y="403.6" type="line"/>
      <point x="142.44" y="322.64" type="line"/>
      <point x="184.58" y="385.12"/>
      <point x="209.52" y="405.36"/>
      <point x="245.64" y="405.36" type="curve" smooth="yes"/>
      <point x="274.88" y="405.36"/>
      <point x="292.94" y="387.76"/>
      <point x="292.94" y="358.72" type="curve" smooth="yes"/>
      <point x="292.94" y="334.08"/>
      <point x="280.04" y="319.12"/>
    </contour>
  </outline>
</glyph>
<glyph name="s" format="2">
  <advance width="282"/>
  <unicode hex="0073"/>
  <outline>
    <contour>
      <point x="216.202" y="389.62" type="curve" smooth="yes"/>
      <point x="221.515" y="389.62"/>
      <point x="225.057" y="394.933"/>
      <point x="230.37" y="398.475" type="curve"/>
      <point x="240.11" y="398.475" type="line"/>
      <point x="243.652" y="278.047" type="line"/>
      <point x="230.37" y="278.047" type="line"/>
      <point x="210.003" y="356.856"/>
      <point x="183.438" y="386.964"/>
      <point x="132.965" y="386.964" type="curve" smooth="yes"/>
      <point x="92.2314" y="386.964"/>
      <point x="64.7812" y="362.17"/>
      <point x="64.7812" y="326.75" type="curve" smooth="yes"/>
      <point x="64.7812" y="302.841"/>
      <point x="78.0635" y="280.703"/>
      <point x="102.857" y="266.535" type="curve" smooth="yes"/>
      <point x="198.492" y="209.863" type="line" smooth="yes"/>
      <point x="251.622" y="177.985"/>
      <point x="272.874" y="148.764"/>
      <point x="272.874" y="104.489" type="curve" smooth="yes"/>
      <point x="272.874" y="42.5039"/>
      <point x="216.202" y="-8.85547"/>
      <point x="148.019" y="-8.85547" type="curve" smooth="yes"/>
      <point x="108.171" y="-8.85547"/>
      <point x="64.7812" y="7.08398"/>
      <point x="42.6436" y="7.08398" type="curve" smooth="yes"/>
      <point x="32.0176" y="7.08398"/>
      <point x="28.4756" y="5.31348"/>
      <point x="22.2773" y="-3.54199" type="curve"/>
      <point x="10.7656" y="-3.54199" type="line"/>
      <point x="10.7656" y="134.596" type="line"/>
      <point x="24.9336" y="134.596" type="line"/>
      <point x="32.9033" y="99.1758"/>
      <point x="47.0713" y="10.626"/>
      <point x="137.393" y="10.626" type="curve" smooth="yes"/>
      <point x="182.553" y="10.626"/>
      <point x="210.889" y="35.4199"/>
      <point x="210.889" y="74.3818" type="curve" smooth="yes"/>
      <point x="210.889" y="101.832"/>
      <point x="195.835" y="123.085"/>
      <point x="164.843" y="140.795" type="curve" smooth="yes"/>
      <point x="113.483" y="170.016" type="line" smooth="yes"/>
      <point x="38.2158" y="212.52"/>
      <point x="9.87988" y="247.94"/>
      <point x="9.87988" y="297.528" type="curve" smooth="yes"/>
      <point x="9.87988" y="361.284"/>
      <point x="60.3535" y="406.444"/>
      <point x="130.309" y="406.444" type="curve" smooth="yes"/>
      <point x="181.667" y="406.444"/>
      <point x="196.721" y="389.62"/>
    </contour>
  </outline>
</glyph>
<glyph name="t" format="2">
  <advance width="233"/>
  <unicode hex="0074"/>
  <outline>
    <contour>
      <point x="206.566" y="402.327" type="line"/>
      <point x="206.566" y="373.79" type="line"/>
      <point x="123.908" y="373.79" type="line"/>
      <point x="123.908" y="118.735" type="line" smooth="yes"/>
      <point x="123.908" y="62.5518"/>
      <point x="136.184" y="38.4727"/>
      <point x="166.465" y="38.4727" type="curve" smooth="yes"/>
      <point x="184.47" y="38.4727"/>
      <point x="198.382" y="47.3916"/>
      <point x="215.568" y="69.6865" type="curve"/>
      <point x="226.208" y="59.876" type="line"/>
      <point x="199.2" y="13.5029"/>
      <point x="168.102" y="-7.90039"/>
      <point x="128" y="-7.90039" type="curve" smooth="yes"/>
      <point x="79.7148" y="-7.90039"/>
      <point x="55.1621" y="30.4473"/>
      <point x="55.1621" y="105.357" type="curve" smooth="yes"/>
      <point x="55.1621" y="373.79" type="line"/>
      <point x="11.7871" y="373.79" type="line"/>
      <point x="9.33203" y="375.573"/>
      <point x="8.51367" y="377.356"/>
      <point x="8.51367" y="380.032" type="curve" smooth="yes"/>
      <point x="8.51367" y="397.869"/>
      <point x="28.9736" y="378.249"/>
      <point x="101.811" y="492.399" type="curve" smooth="yes"/>
      <point x="107.54" y="501.317"/>
      <point x="112.45" y="509.344"/>
      <point x="118.18" y="517.369" type="curve"/>
      <point x="123.09" y="517.369"/>
      <point x="123.908" y="514.694"/>
      <point x="123.908" y="505.776" type="curve" smooth="yes"/>
      <point x="123.908" y="402.327" type="line"/>
    </contour>
  </outline>
</glyph>
<glyph name="u" format="2">
  <advance width="457"/>
  <unicode hex="0075"/>
  <outline>
    <contour>
      <point x="446.95" y="46.5195" type="line"/>
      <point x="446.95" y="33.7803" type="line"/>
      <point x="399.52" y="21.04"/>
      <point x="366.04" y="11.0303"/>
      <point x="319.54" y="-7.16992" type="curve"/>
      <point x="315.82" y="-5.34961" type="line"/>
      <point x="315.82" y="70.1797" type="line"/>
      <point x="283.533" y="38.5879"/>
      <point x="247.165" y="-8.08008"/>
      <point x="180.04" y="-8.08008" type="curve" smooth="yes"/>
      <point x="112.15" y="-8.08008"/>
      <point x="67.5098" y="38.3301"/>
      <point x="67.5098" y="110.22" type="curve" smooth="yes"/>
      <point x="67.5098" y="333.54" type="line" smooth="yes"/>
      <point x="67.5098" y="375.4"/>
      <point x="54.4902" y="389.05"/>
      <point x="9.84961" y="391.78" type="curve"/>
      <point x="9.84961" y="404.52" type="line"/>
      <point x="145.63" y="404.52" type="line"/>
      <point x="145.63" y="113.86" type="line" smooth="yes"/>
      <point x="145.63" y="75.6396"/>
      <point x="175.39" y="44.7002"/>
      <point x="211.66" y="44.7002" type="curve" smooth="yes"/>
      <point x="230.613" y="44.7002"/>
      <point x="311.17" y="54.4492"/>
      <point x="311.17" y="123.87" type="curve" smooth="yes"/>
      <point x="311.17" y="331.72" type="line" smooth="yes"/>
      <point x="311.17" y="377.22"/>
      <point x="300.01" y="386.32"/>
      <point x="242.35" y="389.05" type="curve"/>
      <point x="242.35" y="404.52" type="line"/>
      <point x="389.29" y="404.52" type="line"/>
      <point x="389.29" y="98.3896" type="line" smooth="yes"/>
      <point x="389.29" y="56.5303"/>
      <point x="399.52" y="46.5195"/>
      <point x="442.3" y="46.5195" type="curve" smooth="yes"/>
    </contour>
  </outline>
</glyph>
<glyph name="v" format="2">
  <advance width="422"/>
  <unicode hex="0076"/>
  <outline>
    <contour>
      <point x="412.479" y="405.199" type="line"/>
      <point x="412.479" y="391.699" type="line"/>
      <point x="386.08" y="388.999"/>
      <point x="379.04" y="383.6"/>
      <point x="355.28" y="321.499" type="curve" smooth="yes"/>
      <point x="242.64" y="32.5996" type="line" smooth="yes"/>
      <point x="229.439" y="-0.700195"/>
      <point x="223.28" y="-12.4004"/>
      <point x="218" y="-12.4004" type="curve" smooth="yes"/>
      <point x="213.6" y="-12.4004"/>
      <point x="207.439" y="-8.80078"/>
      <point x="195.12" y="29.8994" type="curve"/>
      <point x="89.5195" y="288.199" type="line" smooth="yes"/>
      <point x="51.2266" y="381.866"/>
      <point x="42.8799" y="389.899"/>
      <point x="9.43945" y="391.699" type="curve"/>
      <point x="9.43945" y="405.199" type="line"/>
      <point x="181.92" y="405.199" type="line"/>
      <point x="181.92" y="391.699" type="line"/>
      <point x="151.12" y="388.999"/>
      <point x="141.439" y="382.699"/>
      <point x="141.439" y="366.499" type="curve" smooth="yes"/>
      <point x="141.439" y="358.399"/>
      <point x="144.08" y="345.8"/>
      <point x="149.359" y="333.199" type="curve" smooth="yes"/>
      <point x="239.12" y="102.8" type="line"/>
      <point x="326.24" y="335.899" type="line" smooth="yes"/>
      <point x="329.76" y="344.899"/>
      <point x="331.52" y="353.899"/>
      <point x="331.52" y="362.899" type="curve" smooth="yes"/>
      <point x="331.52" y="379.999"/>
      <point x="318.32" y="388.999"/>
      <point x="290.16" y="391.699" type="curve"/>
      <point x="290.16" y="405.199" type="line"/>
    </contour>
  </outline>
</glyph>
<glyph name="w" format="2">
  <advance width="591"/>
  <unicode hex="0077"/>
  <outline>
    <contour>
      <point x="290.1" y="275.25" type="line"/>
      <point x="259.5" y="374.439"/>
      <point x="251" y="384.449"/>
      <point x="214.449" y="389" type="curve"/>
      <point x="214.449" y="402.649" type="line"/>
      <point x="387" y="402.649" type="line"/>
      <point x="387" y="389" type="line"/>
      <point x="347.05" y="382.63"/>
      <point x="337.699" y="376.26"/>
      <point x="337.699" y="356.239" type="curve" smooth="yes"/>
      <point x="337.699" y="344.409"/>
      <point x="337.699" y="344.409"/>
      <point x="352.149" y="302.55" type="curve" smooth="yes"/>
      <point x="423.55" y="98.71" type="line"/>
      <point x="500.05" y="300.729" type="line" smooth="yes"/>
      <point x="509.399" y="325.3"/>
      <point x="514.5" y="347.14"/>
      <point x="514.5" y="360.789" type="curve" smooth="yes"/>
      <point x="514.5" y="376.26"/>
      <point x="506" y="382.63"/>
      <point x="477.1" y="389" type="curve"/>
      <point x="477.1" y="402.649" type="line"/>
      <point x="581.649" y="402.649" type="line"/>
      <point x="581.649" y="389" type="line"/>
      <point x="564.649" y="382.63"/>
      <point x="561.431" y="378.011"/>
      <point x="546.8" y="339.859" type="curve" smooth="yes"/>
      <point x="429.5" y="34" type="line" smooth="yes"/>
      <point x="415.899" y="-2.40039"/>
      <point x="411.649" y="-10.5908"/>
      <point x="405.699" y="-10.5908" type="curve" smooth="yes"/>
      <point x="400.6" y="-10.5908"/>
      <point x="397.199" y="-5.13086"/>
      <point x="385.3" y="28.5391" type="curve" smooth="yes"/>
      <point x="307.949" y="234.3" type="line"/>
      <point x="212.75" y="24.8994" type="line" smooth="yes"/>
      <point x="202.55" y="1.23926"/>
      <point x="195.75" y="-10.5908"/>
      <point x="191.5" y="-10.5908" type="curve" smooth="yes"/>
      <point x="186.399" y="-10.5908"/>
      <point x="179.6" y="2.14941"/>
      <point x="169.399" y="29.4492" type="curve" smooth="yes"/>
      <point x="54.6494" y="331.67" type="line" smooth="yes"/>
      <point x="36.8633" y="378.513"/>
      <point x="29.1494" y="387.18"/>
      <point x="9.59961" y="389" type="curve"/>
      <point x="9.59961" y="402.649" type="line"/>
      <point x="162.6" y="402.649" type="line"/>
      <point x="162.6" y="389" type="line"/>
      <point x="133.699" y="385.359"/>
      <point x="123.5" y="378.079"/>
      <point x="123.5" y="358.97" type="curve" smooth="yes"/>
      <point x="123.5" y="349.869"/>
      <point x="125.199" y="340.77"/>
      <point x="128.6" y="331.67" type="curve" smooth="yes"/>
      <point x="212.75" y="94.1592" type="line"/>
    </contour>
  </outline>
</glyph>
<glyph name="x" format="2">
  <advance width="428"/>
  <unicode hex="0078"/>
  <outline>
    <contour>
      <point x="214.3" y="273.04" type="line"/>
      <point x="247.93" y="324.37"/>
      <point x="273.595" y="350.035"/>
      <point x="273.595" y="369.505" type="curve" smooth="yes"/>
      <point x="273.595" y="381.895"/>
      <point x="264.745" y="387.205"/>
      <point x="238.195" y="388.975" type="curve"/>
      <point x="238.195" y="402.25" type="line"/>
      <point x="378.025" y="402.25" type="line"/>
      <point x="378.025" y="388.975" type="line"/>
      <point x="349.705" y="388.09"/>
      <point x="323.155" y="373.93"/>
      <point x="306.34" y="350.035" type="curve" smooth="yes"/>
      <point x="232.885" y="243.835" type="line"/>
      <point x="346.165" y="67.375" type="line" smooth="yes"/>
      <point x="371.898" y="27.29"/>
      <point x="391.3" y="14.2754"/>
      <point x="418.735" y="14.2754" type="curve"/>
      <point x="418.735" y="1" type="line"/>
      <point x="240.85" y="1" type="line"/>
      <point x="240.85" y="14.2754" type="line"/>
      <point x="270.055" y="16.0449"/>
      <point x="276.25" y="19.585"/>
      <point x="276.25" y="35.5146" type="curve" smooth="yes"/>
      <point x="276.25" y="40.8252"/>
      <point x="274.48" y="46.1348"/>
      <point x="270.94" y="51.4453" type="curve" smooth="yes"/>
      <point x="190.405" y="175.345" type="line"/>
      <point x="120.49" y="66.4902" type="line" smooth="yes"/>
      <point x="108.985" y="48.79"/>
      <point x="102.79" y="35.5146"/>
      <point x="102.79" y="30.2051" type="curve" smooth="yes"/>
      <point x="102.79" y="18.7002"/>
      <point x="113.41" y="14.2754"/>
      <point x="138.19" y="14.2754" type="curve"/>
      <point x="138.19" y="1" type="line"/>
      <point x="9.86523" y="1" type="line"/>
      <point x="9.86523" y="14.2754" type="line"/>
      <point x="39.0703" y="16.9297"/>
      <point x="49.1475" y="22.0068"/>
      <point x="74.4697" y="59.4102" type="curve" smooth="yes"/>
      <point x="175.36" y="208.435" type="line"/>
      <point x="92.1699" y="335.875" type="line" smooth="yes"/>
      <point x="58.4941" y="387.464"/>
      <point x="45.0439" y="388.312"/>
      <point x="16.0596" y="388.975" type="curve"/>
      <point x="16.0596" y="402.25" type="line"/>
      <point x="199.255" y="402.25" type="line"/>
      <point x="199.255" y="388.975" type="line"/>
      <point x="172.705" y="388.09"/>
      <point x="161.2" y="381.895"/>
      <point x="161.2" y="369.505" type="curve" smooth="yes"/>
      <point x="161.2" y="358"/>
      <point x="177.13" y="327.91"/>
      <point x="201.91" y="290.74" type="curve"/>
    </contour>
  </outline>
</glyph>
<glyph name="y" format="2">
  <advance width="443"/>
  <unicode hex="0079"/>
  <outline>
    <contour>
      <point x="135.6" y="-123.152" type="curve" smooth="yes"/>
      <point x="173.32" y="-123.152"/>
      <point x="218.4" y="-11.2217"/>
      <point x="218.4" y="16.0781" type="curve" smooth="yes"/>
      <point x="218.4" y="29.7275"/>
      <point x="201.498" y="55.3447"/>
      <point x="177.92" y="101.988" type="curve"/>
      <point x="56.4805" y="360.428" type="line" smooth="yes"/>
      <point x="49.1201" y="375.898"/>
      <point x="33.4805" y="385.908"/>
      <point x="9.55957" y="389.548" type="curve"/>
      <point x="9.55957" y="402.288" type="line"/>
      <point x="199.08" y="402.288" type="line"/>
      <point x="199.08" y="388.638" type="line"/>
      <point x="159.52" y="386.818"/>
      <point x="145.72" y="380.448"/>
      <point x="145.72" y="364.068" type="curve" smooth="yes"/>
      <point x="145.72" y="354.058"/>
      <point x="149.4" y="342.228"/>
      <point x="154.92" y="329.488" type="curve" smooth="yes"/>
      <point x="260.72" y="99.2578" type="line"/>
      <point x="349.96" y="350.418" type="line" smooth="yes"/>
      <point x="352.72" y="356.788"/>
      <point x="353.64" y="362.248"/>
      <point x="353.64" y="365.888" type="curve" smooth="yes"/>
      <point x="353.64" y="380.448"/>
      <point x="338.92" y="388.638"/>
      <point x="309.48" y="388.638" type="curve"/>
      <point x="309.48" y="402.288" type="line"/>
      <point x="433.68" y="402.288" type="line"/>
      <point x="433.68" y="388.638" type="line"/>
      <point x="411.6" y="385.908"/>
      <point x="400.781" y="376.723"/>
      <point x="389.52" y="347.688" type="curve" smooth="yes"/>
      <point x="247.84" y="-17.5918" type="line" smooth="yes"/>
      <point x="198.16" y="-148.632"/>
      <point x="154" y="-199.592"/>
      <point x="92.3604" y="-199.592" type="curve" smooth="yes"/>
      <point x="53.7197" y="-199.592"/>
      <point x="24.2803" y="-176.842"/>
      <point x="24.2803" y="-146.812" type="curve" smooth="yes"/>
      <point x="24.2803" y="-124.972"/>
      <point x="42.6797" y="-106.772"/>
      <point x="63.8398" y="-106.772" type="curve" smooth="yes"/>
      <point x="98.7998" y="-106.772"/>
      <point x="119.96" y="-123.152"/>
    </contour>
  </outline>
</glyph>
<glyph name="z" format="2">
  <advance width="384"/>
  <unicode hex="007A"/>
  <outline>
    <contour>
      <point x="238.669" y="24.3301" type="line" smooth="yes"/>
      <point x="337.514" y="24.3301"/>
      <point x="344.041" y="54.3604"/>
      <point x="358.028" y="123.52" type="curve"/>
      <point x="374.813" y="119.88" type="line"/>
      <point x="361.759" y="-2.96973" type="line"/>
      <point x="10.2061" y="-2.96973" type="line"/>
      <point x="10.2061" y="10.6797" type="line"/>
      <point x="258.251" y="379.23" type="line"/>
      <point x="129.566" y="379.23" type="line" smooth="yes"/>
      <point x="73.6162" y="379.23"/>
      <point x="59.6289" y="365.58"/>
      <point x="51.2363" y="299.15" type="curve"/>
      <point x="34.4512" y="299.15" type="line"/>
      <point x="37.249" y="406.53" type="line"/>
      <point x="360.826" y="406.53" type="line"/>
      <point x="360.826" y="392.88" type="line"/>
      <point x="109.983" y="24.3301" type="line"/>
    </contour>
  </outline>
</glyph>
<glyph name="braceleft" format="2">
  <advance width="291"/>
  <unicode hex="007B"/>
  <outline>
    <contour>
      <point x="250.915" y="-164.693" type="line"/>
      <point x="160.768" y="-163.008"/>
      <point x="111.902" y="-147.001"/>
      <point x="111.902" y="-46.7432" type="curve" smooth="yes"/>
      <point x="111.902" y="102.379" type="line" smooth="yes"/>
      <point x="111.902" y="160.512"/>
      <point x="96.7373" y="180.731"/>
      <point x="40.29" y="198.424" type="curve"/>
      <point x="96.7373" y="215.274"/>
      <point x="111.902" y="234.651"/>
      <point x="111.902" y="293.627" type="curve" smooth="yes"/>
      <point x="111.902" y="443.592" type="line" smooth="yes"/>
      <point x="111.902" y="543.85"/>
      <point x="161.61" y="559.015"/>
      <point x="250.915" y="560.699" type="curve"/>
      <point x="250.915" y="551.432" type="line"/>
      <point x="192.782" y="536.267"/>
      <point x="174.247" y="510.992"/>
      <point x="174.247" y="447.805" type="curve" smooth="yes"/>
      <point x="174.247" y="306.265" type="line" smooth="yes"/>
      <point x="174.247" y="236.337"/>
      <point x="158.24" y="214.432"/>
      <point x="95.0527" y="197.582" type="curve"/>
      <point x="158.24" y="181.574"/>
      <point x="174.247" y="159.669"/>
      <point x="174.247" y="89.7422" type="curve" smooth="yes"/>
      <point x="174.247" y="-51.7979" type="line" smooth="yes"/>
      <point x="174.247" y="-114.985"/>
      <point x="192.782" y="-140.261"/>
      <point x="250.915" y="-155.426" type="curve"/>
    </contour>
  </outline>
</glyph>
<glyph name="bar" format="2">
  <advance width="200"/>
  <unicode hex="007C"/>
  <outline>
    <contour>
      <point x="67" y="-16.1201" type="line"/>
      <point x="67" y="557.48" type="line"/>
      <point x="133" y="557.48" type="line"/>
      <point x="133" y="-16.1201" type="line"/>
    </contour>
  </outline>
</glyph>
<glyph name="braceright" format="2">
  <advance width="500"/>
  <unicode hex="007D"/>
  <outline>
    <contour>
      <point x="40" y="-165" type="curve"/>
      <point x="40" y="-155" type="line"/>
      <point x="98" y="-140"/>
      <point x="117" y="-115"/>
      <point x="117" y="-52" type="curve" smooth="yes"/>
      <point x="117" y="90" type="line" smooth="yes"/>
      <point x="117" y="160"/>
      <point x="133" y="182"/>
      <point x="196" y="198" type="curve"/>
      <point x="133" y="214"/>
      <point x="117" y="236"/>
      <point x="117" y="306" type="curve" smooth="yes"/>
      <point x="117" y="448" type="line" smooth="yes"/>
      <point x="117" y="511"/>
      <point x="98" y="536"/>
      <point x="40" y="551" type="curve"/>
      <point x="40" y="561" type="line"/>
      <point x="129" y="559"/>
      <point x="179" y="544"/>
      <point x="179" y="444" type="curve" smooth="yes"/>
      <point x="179" y="294" type="line" smooth="yes"/>
      <point x="179" y="235"/>
      <point x="194" y="215"/>
      <point x="251" y="198" type="curve"/>
      <point x="194" y="181"/>
      <point x="179" y="161"/>
      <point x="179" y="102" type="curve" smooth="yes"/>
      <point x="179" y="-47" type="line" smooth="yes"/>
      <point x="179" y="-147"/>
      <point x="130" y="-163"/>
    </contour>
  </outline>
</glyph>
<glyph name="asciitilde" format="2">
  <advance width="468"/>
  <unicode hex="007E"/>
  <outline>
    <contour>
      <point x="138.92" y="300.8" type="curve" smooth="yes"/>
      <point x="222.521" y="300.8"/>
      <point x="258.6" y="240.96"/>
      <point x="324.6" y="240.96" type="curve" smooth="yes"/>
      <point x="351.88" y="240.96"/>
      <point x="366.84" y="251.52"/>
      <point x="389.72" y="285.84" type="curve"/>
      <point x="437.24" y="257.68" type="line"/>
      <point x="396.76" y="201.36"/>
      <point x="369.48" y="182.88"/>
      <point x="329" y="182.88" type="curve" smooth="yes"/>
      <point x="245.4" y="182.88"/>
      <point x="209.32" y="242.72"/>
      <point x="143.32" y="242.72" type="curve" smooth="yes"/>
      <point x="116.04" y="242.72"/>
      <point x="101.08" y="232.16"/>
      <point x="78.2002" y="197.84" type="curve"/>
      <point x="30.6797" y="226" type="line"/>
      <point x="71.1602" y="282.32"/>
      <point x="98.4404" y="300.8"/>
    </contour>
  </outline>
</glyph>
<glyph name="currency" format="2">
  <advance width="554"/>
  <unicode hex="00A4"/>
  <outline>
    <contour>
      <point x="40.4805" y="120.454" type="line"/>
      <point x="125.74" y="203.974" type="line"/>
      <point x="100.51" y="240.514"/>
      <point x="90.0703" y="272.704"/>
      <point x="90.0703" y="313.594" type="curve" smooth="yes"/>
      <point x="90.0703" y="355.354"/>
      <point x="100.51" y="388.414"/>
      <point x="125.74" y="423.214" type="curve"/>
      <point x="40.4805" y="508.474" type="line"/>
      <point x="83.9805" y="550.234" type="line"/>
      <point x="167.5" y="466.714" type="line"/>
      <point x="206.65" y="491.944"/>
      <point x="235.36" y="500.644"/>
      <point x="277.99" y="500.644" type="curve" smooth="yes"/>
      <point x="319.75" y="500.644"/>
      <point x="352.811" y="490.204"/>
      <point x="386.74" y="466.714" type="curve"/>
      <point x="472" y="550.234" type="line"/>
      <point x="513.76" y="508.474" type="line"/>
      <point x="430.24" y="423.214" type="line"/>
      <point x="455.471" y="385.804"/>
      <point x="464.17" y="357.094"/>
      <point x="464.17" y="314.464" type="curve" smooth="yes"/>
      <point x="464.17" y="272.704"/>
      <point x="455.471" y="243.124"/>
      <point x="430.24" y="203.974" type="curve"/>
      <point x="513.76" y="120.454" type="line"/>
      <point x="472" y="76.9541" type="line"/>
      <point x="386.74" y="162.214" type="line"/>
      <point x="352.811" y="137.854"/>
      <point x="318.88" y="126.544"/>
      <point x="277.99" y="126.544" type="curve" smooth="yes"/>
      <point x="237.971" y="126.544"/>
      <point x="204.04" y="137.854"/>
      <point x="167.5" y="162.214" type="curve"/>
      <point x="83.9805" y="76.9541" type="line"/>
    </contour>
    <contour>
      <point x="279.73" y="444.964" type="curve" smooth="yes"/>
      <point x="206.65" y="444.964"/>
      <point x="149.23" y="386.674"/>
      <point x="149.23" y="313.594" type="curve" smooth="yes"/>
      <point x="149.23" y="241.384"/>
      <point x="206.65" y="182.224"/>
      <point x="277.99" y="182.224" type="curve" smooth="yes"/>
      <point x="348.46" y="182.224"/>
      <point x="405.01" y="240.514"/>
      <point x="405.01" y="314.464" type="curve" smooth="yes"/>
      <point x="405.01" y="385.804"/>
      <point x="348.46" y="444.964"/>
    </contour>
  </outline>
</glyph>
<glyph name="section" format="2">
  <advance width="374"/>
  <unicode hex="00A7"/>
  <outline>
    <contour>
      <point x="212.258" y="469.803" type="curve" smooth="yes"/>
      <point x="212.258" y="497.363"/>
      <point x="240.062" y="508.562"/>
      <point x="240.062" y="517.174" type="curve" smooth="yes"/>
      <point x="240.062" y="532.677"/>
      <point x="217.165" y="544.736"/>
      <point x="189.359" y="544.736" type="curve" smooth="yes"/>
      <point x="147.652" y="544.736"/>
      <point x="119.847" y="519.758"/>
      <point x="119.847" y="483.583" type="curve" smooth="yes"/>
      <point x="119.847" y="462.051"/>
      <point x="131.296" y="437.073"/>
      <point x="147.652" y="422.432" type="curve" smooth="yes"/>
      <point x="259.69" y="325.104" type="line" smooth="yes"/>
      <point x="307.122" y="283.762"/>
      <point x="332.475" y="237.251"/>
      <point x="332.475" y="191.603" type="curve" smooth="yes"/>
      <point x="332.475" y="131.312"/>
      <point x="293.221" y="87.3848"/>
      <point x="237.61" y="87.3848" type="curve" smooth="yes"/>
      <point x="232.331" y="87.3848"/>
      <point x="228.39" y="87.7773"/>
      <point x="222.89" y="88.2461" type="curve"/>
      <point x="284.225" y="32.2617"/>
      <point x="299.763" y="6.42285"/>
      <point x="299.763" y="-37.5029" type="curve" smooth="yes"/>
      <point x="299.763" y="-102.962"/>
      <point x="253.147" y="-146.889"/>
      <point x="182" y="-146.889" type="curve" smooth="yes"/>
      <point x="118.211" y="-146.889"/>
      <point x="69.1426" y="-108.991"/>
      <point x="69.1426" y="-60.7588" type="curve" smooth="yes"/>
      <point x="69.1426" y="-34.0586"/>
      <point x="87.9531" y="-14.249"/>
      <point x="113.305" y="-14.249" type="curve" smooth="yes"/>
      <point x="135.385" y="-14.249"/>
      <point x="152.559" y="-29.751"/>
      <point x="152.559" y="-50.4229" type="curve" smooth="yes"/>
      <point x="152.559" y="-77.123"/>
      <point x="124.753" y="-88.3203"/>
      <point x="124.753" y="-98.6562" type="curve" smooth="yes"/>
      <point x="124.753" y="-114.159"/>
      <point x="152.559" y="-128.802"/>
      <point x="182.817" y="-128.802" type="curve" smooth="yes"/>
      <point x="226.16" y="-128.802"/>
      <point x="253.966" y="-102.962"/>
      <point x="253.966" y="-62.4814" type="curve" smooth="yes"/>
      <point x="253.966" y="39.1523"/>
      <point x="41.3379" y="76.1885"/>
      <point x="41.3379" y="226.916" type="curve" smooth="yes"/>
      <point x="41.3379" y="285.484"/>
      <point x="81.4102" y="329.411"/>
      <point x="135.385" y="329.411" type="curve" smooth="yes"/>
      <point x="140.292" y="329.411"/>
      <point x="147.652" y="329.411"/>
      <point x="155.83" y="328.55" type="curve"/>
      <point x="90.4053" y="385.396"/>
      <point x="74.0498" y="411.233"/>
      <point x="74.0498" y="457.744" type="curve" smooth="yes"/>
      <point x="74.0498" y="519.758"/>
      <point x="119.847" y="562.822"/>
      <point x="187.724" y="562.822" type="curve" smooth="yes"/>
      <point x="247.423" y="562.822"/>
      <point x="292.402" y="526.648"/>
      <point x="292.402" y="478.415" type="curve" smooth="yes"/>
      <point x="292.402" y="449.992"/>
      <point x="276.864" y="432.767"/>
      <point x="250.695" y="432.767" type="curve" smooth="yes"/>
      <point x="228.614" y="432.767"/>
      <point x="212.258" y="448.27"/>
    </contour>
    <contour>
      <point x="289.949" y="163.18" type="curve" smooth="yes"/>
      <point x="289.949" y="228.639"/>
      <point x="175.457" y="310.462"/>
      <point x="140.292" y="310.462" type="curve" smooth="yes"/>
      <point x="108.397" y="310.462"/>
      <point x="84.6807" y="286.346"/>
      <point x="84.6807" y="252.755" type="curve" smooth="yes"/>
      <point x="84.6807" y="194.186"/>
      <point x="182" y="106.334"/>
      <point x="233.521" y="106.334" type="curve" smooth="yes"/>
      <point x="263.779" y="106.334"/>
      <point x="289.949" y="133.034"/>
    </contour>
  </outline>
</glyph>
<glyph name="guillemotleft" format="2">
  <advance width="500"/>
  <unicode hex="00AB"/>
  <outline>
    <contour>
      <point x="329" y="224" type="curve"/>
      <point x="378" y="150"/>
      <point x="457" y="74"/>
      <point x="457" y="42" type="curve" smooth="yes"/>
      <point x="457" y="37"/>
      <point x="453" y="33"/>
      <point x="448" y="33" type="curve" smooth="yes"/>
      <point x="437.55" y="33"/>
      <point x="443.295" y="41.4521"/>
      <point x="236" y="222" type="curve"/>
      <point x="448.78" y="415.139"/>
      <point x="444.664" y="416"/>
      <point x="448" y="416" type="curve" smooth="yes"/>
      <point x="453" y="416"/>
      <point x="458" y="411"/>
      <point x="458" y="406" type="curve" smooth="yes"/>
      <point x="458" y="375"/>
      <point x="376" y="287"/>
    </contour>
    <contour>
      <point x="135" y="224" type="curve"/>
      <point x="184" y="150"/>
      <point x="263" y="74"/>
      <point x="263" y="42" type="curve" smooth="yes"/>
      <point x="263" y="37"/>
      <point x="259" y="33"/>
      <point x="254" y="33" type="curve" smooth="yes"/>
      <point x="243.55" y="33"/>
      <point x="249.295" y="41.4521"/>
      <point x="42" y="222" type="curve"/>
      <point x="254.78" y="415.139"/>
      <point x="250.664" y="416"/>
      <point x="254" y="416" type="curve" smooth="yes"/>
      <point x="259" y="416"/>
      <point x="264" y="411"/>
      <point x="264" y="406" type="curve" smooth="yes"/>
      <point x="264" y="375"/>
      <point x="182" y="287"/>
    </contour>
  </outline>
</glyph>
<glyph name="logicalnot" format="2">
  <advance width="484"/>
  <unicode hex="00AC"/>
  <outline>
    <contour>
      <point x="391.2" y="9.59961" type="line"/>
      <point x="391.2" y="179.2" type="line"/>
      <point x="40.7998" y="179.2" type="line"/>
      <point x="40.7998" y="232" type="line"/>
      <point x="444" y="232" type="line"/>
      <point x="444" y="9.59961" type="line"/>
    </contour>
  </outline>
</glyph>
<glyph name="paragraph" format="2">
  <advance width="462"/>
  <unicode hex="00B6"/>
  <outline>
    <contour>
      <point x="195.601" y="220.737" type="line"/>
      <point x="97" y="224.239"/>
      <point x="30.7002" y="265.388"/>
      <point x="30.7002" y="399.339" type="curve" smooth="yes"/>
      <point x="30.7002" y="513.154"/>
      <point x="83.4004" y="561.307"/>
      <point x="208.351" y="561.307" type="curve" smooth="yes"/>
      <point x="431.9" y="561.307" type="line"/>
      <point x="431.9" y="544.672" type="line"/>
      <point x="366.45" y="538.544"/>
      <point x="357.101" y="528.913"/>
      <point x="357.101" y="465.877" type="curve" smooth="yes"/>
      <point x="357.101" y="-55.0459" type="line" smooth="yes"/>
      <point x="357.101" y="-117.206"/>
      <point x="367.301" y="-128.587"/>
      <point x="431.9" y="-133.841" type="curve"/>
      <point x="431.9" y="-153.101" type="line"/>
      <point x="301" y="-153.101" type="line"/>
      <point x="301" y="542.046" type="line"/>
      <point x="251.7" y="542.046" type="line"/>
      <point x="251.7" y="-153.101" type="line"/>
      <point x="120.801" y="-153.101" type="line"/>
      <point x="120.801" y="-133.841" type="line"/>
      <point x="187.101" y="-129.463"/>
      <point x="195.601" y="-118.957"/>
      <point x="195.601" y="-45.4141" type="curve" smooth="yes"/>
    </contour>
    <contour>
      <point x="195.601" y="542.046" type="line"/>
      <point x="132.7" y="536.793"/>
      <point x="95.3008" y="516.656"/>
      <point x="95.3008" y="402.842" type="curve" smooth="yes"/>
      <point x="95.3008" y="292.528"/>
      <point x="122.5" y="247.878"/>
      <point x="195.601" y="239.998" type="curve"/>
    </contour>
  </outline>
</glyph>
<glyph name="guillemotright" format="2">
  <advance width="500"/>
  <unicode hex="00BB"/>
  <outline>
    <contour>
      <point x="365" y="225" type="curve"/>
      <point x="316" y="299"/>
      <point x="237" y="375"/>
      <point x="237" y="407" type="curve" smooth="yes"/>
      <point x="237" y="412"/>
      <point x="241" y="416"/>
      <point x="246" y="416" type="curve" smooth="yes"/>
      <point x="256.45" y="416"/>
      <point x="250.705" y="407.548"/>
      <point x="458" y="227" type="curve"/>
      <point x="245.22" y="33.8613"/>
      <point x="249.336" y="33"/>
      <point x="246" y="33" type="curve" smooth="yes"/>
      <point x="241" y="33"/>
      <point x="236" y="38"/>
      <point x="236" y="43" type="curve" smooth="yes"/>
      <point x="236" y="74"/>
      <point x="318" y="162"/>
    </contour>
    <contour>
      <point x="171" y="225" type="curve"/>
      <point x="122" y="299"/>
      <point x="43" y="375"/>
      <point x="43" y="407" type="curve" smooth="yes"/>
      <point x="43" y="412"/>
      <point x="47" y="416"/>
      <point x="52" y="416" type="curve" smooth="yes"/>
      <point x="62.4502" y="416"/>
      <point x="56.7051" y="407.548"/>
      <point x="264" y="227" type="curve"/>
      <point x="51.2197" y="33.8613"/>
      <point x="55.3359" y="33"/>
      <point x="52" y="33" type="curve" smooth="yes"/>
      <point x="47" y="33"/>
      <point x="42" y="38"/>
      <point x="42" y="43" type="curve" smooth="yes"/>
      <point x="42" y="74"/>
      <point x="124" y="162"/>
    </contour>
  </outline>
</glyph>
<glyph name="uni0300" format="2">
  <advance width="0"/>
  <unicode hex="0300"/>
  <anchor x="-174" y="560" name="_Stacking"/>
  <anchor x="-169" y="736.7" name="Stacking"/>
  <anchor x="-174" y="560" name="_Diacritic"/>
  <outline>
    <contour>
      <point x="-126" y="671" type="curve" smooth="yes"/>
      <point x="-126" y="668"/>
      <point x="-129" y="666"/>
      <point x="-132" y="666" type="curve" smooth="yes"/>
      <point x="-135" y="666"/>
      <point x="-137" y="668"/>
      <point x="-137" y="671" type="curve" smooth="yes"/>
      <point x="-137" y="674"/>
      <point x="-135" y="677"/>
      <point x="-132" y="677" type="curve" smooth="yes"/>
      <point x="-129" y="677"/>
      <point x="-126" y="674"/>
    </contour>
    <contour>
      <point x="-138" y="683" type="curve" smooth="yes"/>
      <point x="-138" y="680"/>
      <point x="-141" y="678"/>
      <point x="-144" y="678" type="curve" smooth="yes"/>
      <point x="-147" y="678"/>
      <point x="-149" y="680"/>
      <point x="-149" y="683" type="curve" smooth="yes"/>
      <point x="-149" y="686"/>
      <point x="-147" y="689"/>
      <point x="-144" y="689" type="curve" smooth="yes"/>
      <point x="-141" y="689"/>
      <point x="-138" y="686"/>
    </contour>
    <contour>
      <point x="-151" y="674" type="curve" smooth="yes"/>
      <point x="-151" y="671"/>
      <point x="-154" y="669"/>
      <point x="-157" y="669" type="curve" smooth="yes"/>
      <point x="-160" y="669"/>
      <point x="-162" y="671"/>
      <point x="-162" y="674" type="curve" smooth="yes"/>
      <point x="-162" y="677"/>
      <point x="-160" y="680"/>
      <point x="-157" y="680" type="curve" smooth="yes"/>
      <point x="-154" y="680"/>
      <point x="-151" y="677"/>
    </contour>
    <contour>
      <point x="-311" y="673" type="curve" smooth="yes"/>
      <point x="-311" y="700"/>
      <point x="-291" y="720"/>
      <point x="-263" y="720" type="curve" smooth="yes"/>
      <point x="-260" y="720"/>
      <point x="-256" y="719"/>
      <point x="-253" y="719" type="curve" smooth="yes"/>
      <point x="-210" y="715"/>
      <point x="-143" y="613"/>
      <point x="-143" y="613" type="curve"/>
      <point x="-143" y="613"/>
      <point x="-150" y="626"/>
      <point x="-151" y="640" type="curve" smooth="yes"/>
      <point x="-152" y="663"/>
      <point x="-147" y="668"/>
      <point x="-144" y="668" type="curve" smooth="yes"/>
      <point x="-141" y="668"/>
      <point x="-141" y="666"/>
      <point x="-141" y="663" type="curve" smooth="yes"/>
      <point x="-141" y="659"/>
      <point x="-142" y="653"/>
      <point x="-142" y="645" type="curve" smooth="yes"/>
      <point x="-142" y="637"/>
      <point x="-141" y="628"/>
      <point x="-136" y="619" type="curve"/>
      <point x="-134" y="612"/>
      <point x="-114" y="590"/>
      <point x="-114" y="590" type="curve"/>
      <point x="-114" y="590"/>
      <point x="-120" y="582"/>
      <point x="-134" y="582" type="curve"/>
      <point x="-134" y="582"/>
      <point x="-193" y="653"/>
      <point x="-222" y="653" type="curve" smooth="yes"/>
      <point x="-223" y="653" type="line" smooth="yes"/>
      <point x="-238" y="653" type="line"/>
      <point x="-238" y="653"/>
      <point x="-237" y="664"/>
      <point x="-215" y="665" type="curve" smooth="yes"/>
      <point x="-204" y="666"/>
      <point x="-197" y="661"/>
      <point x="-197" y="661" type="curve"/>
      <point x="-197" y="661"/>
      <point x="-235" y="708"/>
      <point x="-267" y="708" type="curve" smooth="yes"/>
      <point x="-285" y="708"/>
      <point x="-299" y="693"/>
      <point x="-299" y="676" type="curve" smooth="yes"/>
      <point x="-299" y="662"/>
      <point x="-295" y="653"/>
      <point x="-284" y="648" type="curve" smooth="yes"/>
      <point x="-264" y="639"/>
      <point x="-256" y="651"/>
      <point x="-257" y="644" type="curve"/>
      <point x="-259" y="638"/>
      <point x="-266" y="635"/>
      <point x="-273" y="635" type="curve" smooth="yes"/>
      <point x="-295" y="635"/>
      <point x="-311" y="651"/>
    </contour>
  </outline>
</glyph>
<glyph name="uni0301" format="2">
  <advance width="0"/>
  <unicode hex="0301"/>
  <anchor x="-210" y="572" name="_Stacking"/>
  <anchor x="-204" y="749.7" name="Stacking"/>
  <anchor x="-207" y="572" name="_Diacritic"/>
  <outline>
    <contour>
      <point x="-217" y="671" type="curve" smooth="yes"/>
      <point x="-217" y="674"/>
      <point x="-214" y="677"/>
      <point x="-211" y="677" type="curve" smooth="yes"/>
      <point x="-208" y="677"/>
      <point x="-206" y="674"/>
      <point x="-206" y="671" type="curve" smooth="yes"/>
      <point x="-206" y="668"/>
      <point x="-208" y="666"/>
      <point x="-211" y="666" type="curve" smooth="yes"/>
      <point x="-214" y="666"/>
      <point x="-217" y="668"/>
    </contour>
    <contour>
      <point x="-205" y="683" type="curve" smooth="yes"/>
      <point x="-205" y="686"/>
      <point x="-202" y="689"/>
      <point x="-199" y="689" type="curve" smooth="yes"/>
      <point x="-196" y="689"/>
      <point x="-194" y="686"/>
      <point x="-194" y="683" type="curve" smooth="yes"/>
      <point x="-194" y="680"/>
      <point x="-196" y="678"/>
      <point x="-199" y="678" type="curve" smooth="yes"/>
      <point x="-202" y="678"/>
      <point x="-205" y="680"/>
    </contour>
    <contour>
      <point x="-192" y="674" type="curve" smooth="yes"/>
      <point x="-192" y="677"/>
      <point x="-189" y="680"/>
      <point x="-186" y="680" type="curve" smooth="yes"/>
      <point x="-183" y="680"/>
      <point x="-181" y="677"/>
      <point x="-181" y="674" type="curve" smooth="yes"/>
      <point x="-181" y="671"/>
      <point x="-183" y="669"/>
      <point x="-186" y="669" type="curve" smooth="yes"/>
      <point x="-189" y="669"/>
      <point x="-192" y="671"/>
    </contour>
    <contour>
      <point x="-229" y="590" type="curve"/>
      <point x="-229" y="590"/>
      <point x="-209" y="612"/>
      <point x="-207" y="619" type="curve"/>
      <point x="-202" y="628"/>
      <point x="-201" y="637"/>
      <point x="-201" y="645" type="curve" smooth="yes"/>
      <point x="-201" y="653"/>
      <point x="-202" y="659"/>
      <point x="-202" y="663" type="curve" smooth="yes"/>
      <point x="-202" y="666"/>
      <point x="-202" y="668"/>
      <point x="-199" y="668" type="curve" smooth="yes"/>
      <point x="-196" y="668"/>
      <point x="-191" y="663"/>
      <point x="-192" y="640" type="curve" smooth="yes"/>
      <point x="-193" y="626"/>
      <point x="-200" y="613"/>
      <point x="-200" y="613" type="curve"/>
      <point x="-200" y="613"/>
      <point x="-133" y="715"/>
      <point x="-90" y="719" type="curve" smooth="yes"/>
      <point x="-87" y="719"/>
      <point x="-83" y="720"/>
      <point x="-80" y="720" type="curve" smooth="yes"/>
      <point x="-68" y="720"/>
      <point x="-56" y="717"/>
      <point x="-47" y="708" type="curve" smooth="yes"/>
      <point x="-37" y="699"/>
      <point x="-32" y="686"/>
      <point x="-32" y="673" type="curve" smooth="yes"/>
      <point x="-32" y="661"/>
      <point x="-36" y="651"/>
      <point x="-44" y="644" type="curve" smooth="yes"/>
      <point x="-51" y="639"/>
      <point x="-61" y="635"/>
      <point x="-70" y="635" type="curve" smooth="yes"/>
      <point x="-77" y="635"/>
      <point x="-84" y="638"/>
      <point x="-86" y="644" type="curve"/>
      <point x="-87" y="651"/>
      <point x="-79" y="639"/>
      <point x="-59" y="648" type="curve" smooth="yes"/>
      <point x="-48" y="653"/>
      <point x="-44" y="662"/>
      <point x="-44" y="676" type="curve" smooth="yes"/>
      <point x="-44" y="693"/>
      <point x="-58" y="707"/>
      <point x="-75" y="708" type="curve" smooth="yes"/>
      <point x="-76" y="708" type="line" smooth="yes"/>
      <point x="-108" y="708"/>
      <point x="-146" y="661"/>
      <point x="-146" y="661" type="curve"/>
      <point x="-146" y="661"/>
      <point x="-139" y="666"/>
      <point x="-128" y="665" type="curve" smooth="yes"/>
      <point x="-106" y="664"/>
      <point x="-105" y="653"/>
      <point x="-105" y="653" type="curve"/>
      <point x="-120" y="653" type="line"/>
      <point x="-120" y="653"/>
      <point x="-120" y="653"/>
      <point x="-121" y="653" type="curve" smooth="yes"/>
      <point x="-150" y="653"/>
      <point x="-209" y="582"/>
      <point x="-209" y="582" type="curve"/>
      <point x="-223" y="582"/>
      <point x="-229" y="590"/>
    </contour>
  </outline>
</glyph>
<glyph name="uni0306" format="2">
  <advance width="0"/>
  <unicode hex="0306"/>
  <anchor x="-168" y="588" name="_Stacking"/>
  <anchor x="-169" y="705.7" name="Stacking"/>
  <anchor x="-168" y="588" name="_Diacritic"/>
  <outline>
    <contour>
      <point x="-131" y="692" type="curve" smooth="yes"/>
      <point x="-112" y="692"/>
      <point x="-95" y="679"/>
      <point x="-95" y="657" type="curve" smooth="yes"/>
      <point x="-95" y="619"/>
      <point x="-135" y="602"/>
      <point x="-173" y="602" type="curve" smooth="yes"/>
      <point x="-250" y="602"/>
      <point x="-269" y="660"/>
      <point x="-269" y="681" type="curve" smooth="yes"/>
      <point x="-269" y="685"/>
      <point x="-268" y="688"/>
      <point x="-267" y="688" type="curve" smooth="yes"/>
      <point x="-260" y="688"/>
      <point x="-262" y="644"/>
      <point x="-205" y="626" type="curve" smooth="yes"/>
      <point x="-193" y="622"/>
      <point x="-180" y="620"/>
      <point x="-168" y="620" type="curve" smooth="yes"/>
      <point x="-140" y="620"/>
      <point x="-115" y="631"/>
      <point x="-114" y="653" type="curve"/>
      <point x="-114" y="653"/>
      <point x="-123" y="649"/>
      <point x="-131" y="649" type="curve" smooth="yes"/>
      <point x="-141" y="649"/>
      <point x="-151" y="654"/>
      <point x="-151" y="674" type="curve" smooth="yes"/>
      <point x="-151" y="687"/>
      <point x="-142" y="692"/>
    </contour>
  </outline>
</glyph>
<glyph name="uni0307" format="2">
  <advance width="0"/>
  <unicode hex="0307"/>
  <anchor x="-228" y="588" name="_Stacking"/>
  <anchor x="-228" y="703.7" name="Stacking"/>
  <anchor x="-226" y="587" name="_Diacritic"/>
  <outline>
    <contour>
      <point x="-266" y="631" type="curve" smooth="yes"/>
      <point x="-266" y="650"/>
      <point x="-250" y="667"/>
      <point x="-230" y="667" type="curve" smooth="yes"/>
      <point x="-211" y="667"/>
      <point x="-194" y="651"/>
      <point x="-194" y="631" type="curve" smooth="yes"/>
      <point x="-194" y="612"/>
      <point x="-210" y="595"/>
      <point x="-230" y="595" type="curve" smooth="yes"/>
      <point x="-249" y="595"/>
      <point x="-266" y="611"/>
    </contour>
  </outline>
</glyph>
<glyph name="uni0308" format="2">
  <advance width="0"/>
  <unicode hex="0308"/>
  <anchor x="-257" y="587" name="_Stacking"/>
  <anchor x="-256" y="703.7" name="Stacking"/>
  <anchor x="-258" y="587" name="_Diacritic"/>
  <outline>
    <contour>
      <point x="-352" y="631" type="curve" smooth="yes"/>
      <point x="-352" y="650"/>
      <point x="-336" y="667"/>
      <point x="-316" y="667" type="curve" smooth="yes"/>
      <point x="-297" y="667"/>
      <point x="-280" y="651"/>
      <point x="-280" y="631" type="curve" smooth="yes"/>
      <point x="-280" y="612"/>
      <point x="-296" y="595"/>
      <point x="-316" y="595" type="curve" smooth="yes"/>
      <point x="-335" y="595"/>
      <point x="-352" y="611"/>
    </contour>
    <contour>
      <point x="-229" y="631" type="curve" smooth="yes"/>
      <point x="-229" y="650"/>
      <point x="-213" y="667"/>
      <point x="-193" y="667" type="curve" smooth="yes"/>
      <point x="-174" y="667"/>
      <point x="-157" y="651"/>
      <point x="-157" y="631" type="curve" smooth="yes"/>
      <point x="-157" y="612"/>
      <point x="-173" y="595"/>
      <point x="-193" y="595" type="curve" smooth="yes"/>
      <point x="-212" y="595"/>
      <point x="-229" y="611"/>
    </contour>
  </outline>
</glyph>
<glyph name="uni0311" format="2">
  <advance width="0"/>
  <unicode hex="0311"/>
  <anchor x="-184" y="588" name="_Stacking"/>
  <anchor x="-182" y="703.7" name="Stacking"/>
  <anchor x="-185" y="587" name="_Diacritic"/>
  <outline>
    <contour>
      <point x="-210" y="639" type="curve" smooth="yes"/>
      <point x="-210" y="628"/>
      <point x="-215" y="621"/>
      <point x="-224" y="621" type="curve" smooth="yes"/>
      <point x="-237" y="621"/>
      <point x="-252" y="633"/>
      <point x="-252" y="648" type="curve" smooth="yes"/>
      <point x="-252" y="677"/>
      <point x="-221" y="690"/>
      <point x="-195" y="690" type="curve" smooth="yes"/>
      <point x="-154" y="690"/>
      <point x="-127" y="664"/>
      <point x="-127" y="633" type="curve" smooth="yes"/>
      <point x="-127" y="624"/>
      <point x="-129" y="614"/>
      <point x="-133" y="605" type="curve"/>
      <point x="-151" y="610" type="line"/>
      <point x="-146" y="619"/>
      <point x="-143" y="628"/>
      <point x="-143" y="636" type="curve" smooth="yes"/>
      <point x="-143" y="658"/>
      <point x="-174" y="675"/>
      <point x="-199" y="675" type="curve" smooth="yes"/>
      <point x="-216" y="675"/>
      <point x="-231" y="669"/>
      <point x="-235" y="655" type="curve"/>
      <point x="-235" y="655"/>
      <point x="-232" y="655"/>
      <point x="-229" y="655" type="curve" smooth="yes"/>
      <point x="-222" y="655"/>
      <point x="-210" y="653"/>
    </contour>
  </outline>
</glyph>
<glyph name="uni033E" format="2">
  <advance width="0"/>
  <unicode hex="033E"/>
  <anchor x="-132" y="465" name="_Stacking"/>
  <anchor x="-116" y="684.7" name="Stacking"/>
  <anchor x="-133" y="463" name="_Yerok"/>
  <outline>
    <contour>
      <point x="-51" y="620" type="line"/>
      <point x="-70" y="617"/>
      <point x="-104" y="603"/>
      <point x="-113" y="588" type="curve" smooth="yes"/>
      <point x="-121" y="575" type="line"/>
      <point x="-113" y="573"/>
      <point x="-100" y="563"/>
      <point x="-100" y="553" type="curve" smooth="yes"/>
      <point x="-100" y="520"/>
      <point x="-127" y="499"/>
      <point x="-147" y="485" type="curve" smooth="yes"/>
      <point x="-159" y="476"/>
      <point x="-177" y="469"/>
      <point x="-193" y="466" type="curve"/>
      <point x="-196" y="479" type="line"/>
      <point x="-178" y="486"/>
      <point x="-150" y="495"/>
      <point x="-142" y="511" type="curve" smooth="yes"/>
      <point x="-139" y="516"/>
      <point x="-137" y="521"/>
      <point x="-135" y="524" type="curve"/>
      <point x="-143" y="527"/>
      <point x="-155" y="535"/>
      <point x="-155" y="546" type="curve" smooth="yes"/>
      <point x="-155" y="552"/>
      <point x="-153" y="556"/>
      <point x="-152" y="563" type="curve"/>
      <point x="-141" y="586"/>
      <point x="-129" y="599"/>
      <point x="-109" y="614" type="curve" smooth="yes"/>
      <point x="-94" y="626"/>
      <point x="-69" y="631"/>
      <point x="-49" y="635" type="curve"/>
    </contour>
  </outline>
</glyph>
